{"glyphs":{"0":{"ha":1068,"x_min":0,"x_max":0,"o":"m 82 433 b 104 700 78 525 85 614 b 72 768 111 733 115 753 b 49 893 13 790 0 850 b 282 1029 117 953 190 1007 b 519 1061 360 1049 438 1064 b 890 836 686 1056 810 981 b 954 369 974 690 985 532 b 751 -79 924 203 861 51 b 350 -190 643 -210 492 -253 b 172 -22 271 -157 214 -96 b 83 311 114 81 90 194 b 82 433 81 353 82 394 m 835 514 b 829 611 833 550 833 581 b 393 918 801 847 611 981 b 346 890 375 913 353 910 b 263 815 329 850 301 829 b 231 768 242 808 236 788 b 217 154 178 565 160 360 b 285 21 231 106 253 61 b 643 17 394 -112 532 -117 b 835 514 764 161 828 329 "},"1":{"ha":538,"x_min":0,"x_max":0,"o":"m 285 -179 b 125 -211 231 -181 176 -178 b 15 -175 83 -239 31 -217 b 75 -83 0 -136 22 -103 b 82 -79 78 -82 79 -81 b 186 67 186 -44 188 -44 b 231 588 182 242 204 415 b 176 692 240 660 242 660 b 129 808 126 715 107 757 b 260 1010 163 881 206 950 b 342 1036 281 1033 308 1047 b 396 961 376 1025 393 997 b 369 663 401 860 383 761 b 310 85 343 471 311 279 b 310 18 310 63 310 40 b 363 -43 310 -18 325 -39 b 388 -47 371 -43 379 -46 b 449 -122 436 -64 454 -86 b 368 -179 443 -156 415 -176 b 285 -179 340 -181 313 -179 "},"2":{"ha":818,"x_min":0,"x_max":0,"o":"m 451 -214 b 197 -231 374 -204 286 -233 b 115 -226 169 -231 142 -232 b 47 -104 57 -212 31 -161 b 124 24 63 -56 93 -15 b 469 501 243 181 367 332 b 589 764 519 583 568 668 b 439 967 617 886 564 958 b 193 907 351 974 269 954 b 174 835 164 889 147 871 b 164 753 194 807 190 776 b 71 746 135 726 103 729 b 21 890 22 771 0 833 b 74 964 31 919 49 944 b 535 1061 211 1072 367 1106 b 721 786 667 1026 735 922 b 626 504 710 685 676 592 b 356 115 549 365 450 242 b 228 -60 313 58 271 0 b 221 -89 222 -68 215 -78 b 257 -101 228 -106 244 -104 b 488 -76 332 -81 411 -93 b 610 -87 528 -67 571 -68 b 651 -161 640 -103 658 -126 b 588 -214 646 -196 621 -212 b 451 -214 546 -215 504 -214 "},"3":{"ha":838,"x_min":0,"x_max":0,"o":"m 247 -282 b 156 -274 217 -281 186 -283 b 93 -150 99 -256 72 -200 b 200 -108 113 -103 156 -83 b 546 -68 325 -176 435 -112 b 557 -8 575 -57 578 -33 b 438 82 524 31 482 57 b 318 157 397 106 356 126 b 268 407 233 228 215 308 b 383 569 299 467 342 517 b 558 790 443 642 507 711 b 590 897 579 822 610 857 b 479 935 568 942 519 933 b 231 874 392 935 310 908 b 171 810 203 861 183 842 b 61 761 149 753 107 738 b 29 890 15 785 0 842 b 63 926 39 903 50 918 b 582 1046 221 1028 392 1086 b 706 799 710 1017 754 921 b 628 672 686 753 658 711 b 453 450 569 597 510 525 b 392 361 431 422 410 393 b 418 249 363 310 368 283 b 540 178 457 222 500 201 b 681 63 593 146 644 114 b 636 -178 747 -32 732 -115 b 507 -235 596 -203 553 -222 b 247 -282 422 -260 336 -283 "},"4":{"ha":874,"x_min":0,"x_max":0,"o":"m 625 332 b 558 289 597 328 581 303 b 261 203 468 229 371 194 b 60 513 90 215 0 353 b 210 771 94 607 151 689 b 322 963 254 831 301 888 b 401 1019 333 1007 371 1028 b 456 935 433 1013 456 976 b 419 854 456 903 439 879 b 213 544 343 756 268 656 b 179 460 199 517 186 489 b 269 344 165 385 194 349 b 531 467 378 340 463 388 b 619 617 569 511 597 563 b 658 699 631 644 643 672 b 740 739 676 731 703 751 b 786 660 776 726 790 696 b 769 494 781 604 775 550 b 757 -111 750 293 758 90 b 767 -168 757 -131 764 -149 b 718 -260 775 -218 756 -251 b 636 -187 678 -268 643 -240 b 628 -6 626 -128 622 -67 b 638 301 635 96 635 199 b 625 332 638 313 638 324 "},"5":{"ha":821,"x_min":0,"x_max":0,"o":"m 118 663 b 278 392 118 540 168 447 b 474 301 342 358 408 332 b 628 219 526 278 582 257 b 669 -15 708 156 722 74 b 524 -147 635 -74 582 -114 b 208 -246 425 -201 318 -231 b 110 -236 176 -250 142 -253 b 65 -132 69 -217 51 -172 b 154 -94 78 -97 107 -85 b 511 1 289 -122 406 -74 b 501 139 582 53 576 99 b 276 247 428 179 351 211 b 107 365 214 278 156 315 b 13 574 51 424 19 494 b 39 953 0 701 21 828 b 146 1008 50 1022 78 1033 b 210 1001 167 1000 186 999 b 572 990 331 1018 453 1015 b 688 946 613 983 654 972 b 718 844 726 914 738 878 b 617 829 699 811 661 803 b 261 879 504 896 383 890 b 128 744 189 874 140 819 b 118 663 122 717 121 690 "},"6":{"ha":1043,"x_min":0,"x_max":0,"o":"m 200 242 b 303 278 239 244 269 265 b 650 347 414 325 528 353 b 904 204 760 342 851 306 b 879 -101 960 99 944 -7 b 526 -312 794 -225 674 -293 b 360 -308 471 -319 415 -321 b 96 -103 239 -283 149 -215 b 33 4 78 -65 67 -25 b 24 103 1 31 0 69 b 63 236 51 143 56 190 b 382 956 106 504 208 746 b 447 1019 401 979 422 1003 b 556 997 490 1046 532 1036 b 522 885 579 956 568 896 b 340 696 418 860 385 774 b 200 315 272 576 228 449 b 200 242 194 293 188 272 m 450 -172 b 749 -31 571 -178 671 -126 b 774 143 792 22 797 85 b 635 217 750 200 692 214 b 551 213 607 218 579 217 b 235 93 439 193 335 147 b 200 -3 188 67 183 50 b 450 -172 233 -114 318 -172 "},"7":{"ha":865,"x_min":0,"x_max":0,"o":"m 779 649 b 707 318 774 553 744 435 b 593 -19 669 206 631 93 b 568 -157 578 -64 560 -107 b 533 -228 574 -186 557 -210 b 463 -239 513 -243 489 -250 b 421 -174 433 -228 422 -204 b 443 -69 419 -136 432 -103 b 597 369 494 78 547 224 b 657 711 635 481 663 593 b 456 917 651 840 585 913 b 138 844 344 919 236 904 b 22 864 89 815 44 825 b 69 969 0 903 15 949 b 482 1039 201 1024 339 1057 b 779 649 678 1014 782 883 "},"8":{"ha":1019,"x_min":0,"x_max":0,"o":"m 458 1111 b 596 1092 499 1113 549 1108 b 821 794 732 1044 814 938 b 763 478 828 683 797 581 b 797 346 735 400 735 400 b 922 156 857 294 910 238 b 824 -78 936 58 896 -17 b 488 -231 726 -160 611 -204 b 242 -228 404 -249 324 -250 b 42 107 81 -186 0 -54 b 239 479 79 246 153 365 b 228 599 286 543 286 543 b 122 726 189 638 150 676 b 192 1033 61 840 86 956 b 458 1111 263 1086 346 1111 m 356 -106 b 696 6 479 -104 593 -65 b 765 75 724 24 747 46 b 751 190 790 117 781 157 b 643 242 724 221 703 263 b 540 319 568 217 544 239 b 381 449 539 365 425 457 b 346 426 365 446 356 438 b 161 78 258 324 192 210 b 288 -101 140 -15 192 -86 b 356 -106 308 -106 332 -104 m 683 743 b 565 954 685 865 654 922 b 338 951 490 981 411 981 b 285 746 228 907 208 835 b 579 503 369 649 476 576 b 635 524 607 483 624 492 b 683 743 660 597 686 669 "},"9":{"ha":1044,"x_min":0,"x_max":0,"o":"m 819 763 b 765 696 789 744 781 718 b 529 397 696 589 624 485 b 336 271 472 343 410 297 b 14 518 164 208 0 297 b 242 967 26 696 107 846 b 679 954 379 1088 589 1058 b 756 963 717 910 721 913 b 865 1035 783 1000 810 1047 b 936 915 926 1021 928 967 b 925 494 961 774 936 633 b 794 -36 911 311 861 135 b 719 -183 775 -87 754 -140 b 633 -221 697 -211 671 -231 b 568 -153 597 -212 578 -186 b 636 -7 549 -87 574 -25 b 697 56 671 4 685 26 b 806 504 756 200 797 349 b 819 763 811 589 831 674 m 142 518 b 144 485 142 513 143 499 b 278 401 156 403 200 374 b 417 492 331 421 375 454 b 571 676 475 547 524 613 b 465 929 640 774 585 911 b 308 869 403 939 351 910 b 142 518 208 776 151 663 "}," ":{"ha":556,"x_min":0,"x_max":0,"o":""}," ":{"ha":556,"x_min":0,"x_max":0,"o":""},"!":{"ha":243,"x_min":0,"x_max":0,"o":"m 3 457 b 3 697 4 538 10 618 b 13 796 0 731 0 764 b 75 842 24 824 44 842 b 132 799 103 840 121 824 b 143 685 146 761 151 722 b 128 494 128 621 129 558 b 117 313 126 433 124 374 b 129 140 108 256 111 197 b 93 60 140 106 133 74 b 11 110 60 47 25 68 b 3 183 4 133 3 158 b 3 457 1 275 3 367 m 158 -146 b 86 -211 157 -183 122 -214 b 19 -132 47 -210 15 -171 b 86 -71 22 -97 53 -69 b 158 -146 125 -71 160 -107 "},"\"":{"ha":492,"x_min":0,"x_max":0,"o":"m 161 1139 b 176 992 154 1089 167 1040 b 133 889 186 935 174 903 b 32 951 93 875 50 900 b 39 1221 0 1042 24 1132 b 103 1261 43 1250 72 1263 b 165 1204 139 1258 160 1236 b 161 1139 168 1183 163 1161 m 383 1139 b 399 992 376 1089 389 1040 b 356 889 408 935 396 903 b 254 951 315 875 272 900 b 261 1221 222 1042 246 1132 b 325 1261 265 1250 294 1263 b 388 1204 361 1258 382 1236 b 383 1139 390 1183 385 1161 "},"#":{"ha":1046,"x_min":0,"x_max":0,"o":"m 794 504 b 881 485 825 478 854 490 b 951 392 933 475 963 436 b 853 342 940 350 903 331 b 786 292 789 356 789 356 b 786 243 785 275 785 258 b 850 169 789 181 789 179 b 890 163 864 168 878 167 b 943 81 931 149 951 115 b 850 18 935 39 892 10 b 826 28 842 19 835 24 b 792 -4 792 43 788 21 b 828 -104 799 -39 806 -74 b 821 -190 854 -143 849 -171 b 731 -175 793 -210 757 -204 b 683 -36 694 -136 693 -85 b 590 43 668 44 668 46 b 515 32 565 42 540 36 b 440 -85 435 19 419 -3 b 454 -124 443 -97 450 -110 b 435 -196 465 -153 463 -179 b 350 -185 406 -212 376 -208 b 314 -104 326 -164 318 -135 b 311 -37 313 -82 313 -60 b 264 -1 311 -6 296 8 b 185 -25 238 -8 211 -18 b 103 13 147 -35 118 -24 b 142 100 88 47 104 85 b 247 122 175 114 211 121 b 313 190 292 122 314 146 b 313 224 311 201 311 213 b 201 290 321 324 281 322 b 157 254 185 283 172 265 b 43 261 119 228 76 231 b 67 381 0 300 8 356 b 226 419 117 403 172 410 b 314 528 311 435 317 440 b 315 619 314 558 313 589 b 376 697 318 658 335 692 b 449 639 417 701 436 671 b 453 510 464 597 472 556 b 490 454 435 467 444 457 b 631 472 539 450 583 465 b 664 522 657 476 664 499 b 667 604 665 550 664 578 b 721 679 668 640 683 669 b 806 626 753 688 783 667 b 794 504 829 582 815 542 m 529 153 b 664 306 671 160 681 169 b 664 314 664 308 664 311 b 614 354 661 346 644 358 b 490 343 572 350 532 346 b 438 292 457 342 439 326 b 436 242 438 275 436 258 b 529 153 435 149 435 149 "},"$":{"ha":951,"x_min":0,"x_max":0,"o":"m 513 457 b 526 203 507 390 524 297 b 581 129 526 164 546 144 b 715 67 626 111 671 89 b 801 1 747 50 778 29 b 774 -219 868 -75 857 -162 b 621 -283 728 -251 675 -269 b 560 -331 593 -292 574 -303 b 467 -356 535 -378 500 -387 b 343 -325 428 -319 388 -322 b 269 -324 318 -326 293 -331 b 211 -236 225 -311 201 -275 b 299 -175 221 -197 257 -171 b 378 -194 325 -178 349 -196 b 428 -149 411 -194 432 -187 b 422 1 424 -99 422 -49 b 369 75 422 40 404 63 b 200 144 313 97 256 119 b 94 532 0 236 3 399 b 275 714 143 604 204 664 b 365 807 313 739 346 763 b 461 844 385 851 417 864 b 557 835 494 829 524 831 b 661 814 593 838 629 833 b 714 672 713 785 736 722 b 593 651 690 618 632 608 b 572 686 585 661 579 675 b 538 706 564 699 554 708 b 513 668 518 701 513 685 b 513 457 511 607 513 546 m 419 286 b 401 583 408 385 404 483 b 396 615 401 593 399 604 b 356 636 390 638 379 651 b 163 426 272 583 200 521 b 210 278 135 360 149 319 b 368 208 258 246 314 229 b 419 244 408 193 417 201 b 419 286 419 258 419 272 m 531 -69 b 640 -146 529 -167 550 -181 b 678 -128 653 -140 667 -135 b 685 -74 700 -112 704 -93 b 564 -6 651 -40 608 -21 b 531 -28 544 1 532 -7 b 531 -69 529 -42 531 -56 "},"%":{"ha":858,"x_min":0,"x_max":0,"o":"m 774 913 b 724 824 772 875 761 839 b 644 743 685 807 665 775 b 113 -118 460 461 276 176 b 96 -147 107 -128 103 -137 b 31 -167 79 -168 58 -181 b 8 -103 6 -153 0 -129 b 29 -58 13 -87 21 -72 b 638 951 221 285 426 619 b 725 1000 657 983 681 1011 b 774 913 757 990 775 957 m 378 765 b 322 579 379 697 365 633 b 85 608 249 483 135 499 b 75 892 43 701 50 797 b 189 974 90 944 135 969 b 378 815 285 981 368 910 b 378 765 379 799 378 782 m 206 667 b 243 764 240 697 236 733 b 229 799 246 778 246 794 b 193 783 214 803 200 794 b 206 667 167 744 175 707 m 744 43 b 675 -139 746 -28 722 -87 b 532 -182 636 -182 588 -199 b 440 -74 478 -167 449 -125 b 481 192 424 18 435 108 b 629 236 514 251 565 265 b 744 43 713 199 744 131 m 565 -50 b 578 83 611 31 611 36 b 565 -50 553 44 557 6 "},"&":{"ha":979,"x_min":0,"x_max":0,"o":"m 465 957 b 572 942 501 956 538 956 b 674 713 671 901 713 813 b 553 536 649 644 603 589 b 406 389 506 486 456 438 b 406 303 376 360 376 332 b 418 290 410 299 414 294 b 631 279 518 182 522 181 b 707 354 657 303 682 329 b 742 390 718 367 729 381 b 839 381 775 414 815 410 b 831 290 864 349 857 318 b 683 144 782 242 732 193 b 690 68 646 106 646 100 b 825 -12 733 38 774 3 b 875 -107 876 -28 896 -74 b 765 -112 854 -142 814 -143 b 635 -25 721 -83 678 -54 b 489 -22 561 25 561 25 b 256 -125 417 -71 342 -111 b 50 113 101 -151 0 -36 b 165 303 74 183 114 247 b 186 429 204 343 207 379 b 153 713 146 519 126 613 b 465 957 193 867 306 957 m 268 606 b 289 504 274 579 279 540 b 335 488 296 482 314 471 b 558 742 424 560 506 639 b 517 836 583 790 567 819 b 426 838 486 847 457 846 b 268 606 329 808 269 726 m 243 7 b 415 94 301 17 360 53 b 410 143 436 110 426 128 b 313 233 378 172 344 203 b 258 233 294 251 276 257 b 171 85 222 188 188 142 b 243 7 154 31 174 6 "},"'":{"ha":269,"x_min":0,"x_max":0,"o":"m 161 1139 b 176 992 154 1089 167 1040 b 133 889 186 935 174 903 b 32 951 93 875 50 900 b 39 1221 0 1042 24 1132 b 103 1261 43 1250 72 1263 b 165 1204 139 1258 160 1236 b 161 1139 168 1183 163 1161 "},"(":{"ha":542,"x_min":0,"x_max":0,"o":"m 336 1097 b 410 1026 385 1097 413 1067 b 383 967 408 1004 397 985 b 156 353 244 786 176 575 b 290 -53 140 201 182 61 b 390 -124 318 -83 347 -111 b 443 -219 440 -139 458 -179 b 333 -271 428 -260 378 -285 b 222 -186 288 -256 254 -221 b 51 469 51 3 0 222 b 197 883 81 615 132 751 b 271 1042 222 936 253 986 b 336 1097 281 1076 307 1097 "},")":{"ha":542,"x_min":0,"x_max":0,"o":"m 122 -275 b 50 -204 75 -274 47 -244 b 76 -144 51 -181 63 -162 b 304 471 215 38 282 247 b 169 876 318 621 276 763 b 69 946 140 907 113 933 b 15 1042 18 961 0 1001 b 125 1093 31 1083 81 1107 b 236 1010 172 1078 204 1044 b 408 353 407 819 458 600 b 261 -61 379 208 326 71 b 189 -219 236 -112 207 -162 b 122 -275 178 -253 153 -274 "},"*":{"ha":750,"x_min":0,"x_max":0,"o":"m 197 1269 b 204 1364 211 1303 200 1333 b 254 1424 208 1394 224 1417 b 325 1393 285 1432 308 1417 b 338 1249 354 1350 365 1303 b 396 1279 367 1246 379 1268 b 456 1324 415 1293 433 1311 b 569 1296 503 1349 549 1336 b 526 1186 590 1253 575 1206 b 429 1125 489 1172 458 1153 b 439 1063 400 1099 407 1079 b 583 1001 486 1039 531 1011 b 658 921 640 992 667 961 b 551 868 649 881 603 856 b 415 926 503 879 458 903 b 344 881 349 963 342 957 b 353 807 344 856 350 832 b 310 721 360 758 344 731 b 222 779 274 711 235 735 b 200 910 211 822 208 865 b 139 853 164 903 156 874 b 43 833 110 821 72 814 b 25 938 10 856 0 899 b 132 1053 53 982 96 1014 b 124 1150 175 1097 174 1113 b 65 1181 107 1163 85 1169 b 26 1286 24 1204 8 1249 b 135 1306 44 1322 88 1329 b 197 1269 154 1294 167 1275 "},"+":{"ha":764,"x_min":0,"x_max":0,"o":"m 388 101 b 406 25 386 76 393 51 b 386 -54 421 -6 417 -35 b 299 -31 358 -72 325 -64 b 265 86 272 4 264 44 b 158 154 269 176 256 179 b 106 131 140 149 124 135 b 8 185 61 119 17 144 b 71 267 0 224 24 258 b 218 285 119 276 168 282 b 278 346 260 288 279 306 b 279 446 278 379 278 413 b 288 503 281 465 281 485 b 400 519 308 554 365 564 b 422 411 424 488 438 451 b 407 372 418 397 411 385 b 457 300 396 324 408 306 b 572 286 496 294 533 290 b 635 265 594 285 615 279 b 663 163 668 242 681 197 b 569 138 644 131 608 117 b 460 174 533 156 499 169 b 388 101 400 181 388 167 "},",":{"ha":303,"x_min":0,"x_max":0,"o":"m 217 -156 b 164 -347 206 -222 197 -289 b 124 -399 153 -367 142 -386 b 32 -403 94 -421 63 -425 b 25 -315 0 -378 3 -344 b 83 -140 64 -262 85 -207 b 151 -76 82 -96 114 -72 b 217 -156 192 -81 219 -115 "},"-":{"ha":822,"x_min":0,"x_max":0,"o":"m 478 335 b 618 335 525 335 571 336 b 703 304 650 335 679 325 b 718 199 733 279 739 232 b 618 179 694 163 656 151 b 501 211 581 207 543 211 b 211 194 404 211 307 215 b 135 167 185 189 158 185 b 36 167 103 142 68 142 b 8 240 13 186 0 210 b 82 300 18 276 47 293 b 478 335 213 322 344 339 "},"­":{"ha":822,"x_min":0,"x_max":0,"o":"m 478 335 b 82 300 344 339 213 322 b 8 240 47 293 18 276 b 36 167 0 210 13 186 b 135 167 68 142 103 142 b 211 194 158 185 185 189 b 501 211 307 215 404 211 b 618 179 543 211 581 207 b 718 199 656 151 694 163 b 703 304 739 232 733 279 b 618 335 679 325 650 335 b 478 335 571 336 525 335 "},".":{"ha":229,"x_min":0,"x_max":0,"o":"m 76 -76 b 146 -143 115 -78 144 -107 b 71 -215 146 -182 108 -217 b 3 -137 32 -214 0 -176 b 76 -76 7 -100 38 -75 "},"/":{"ha":496,"x_min":0,"x_max":0,"o":"m 257 946 b 292 1058 253 985 267 1024 b 365 1083 310 1083 335 1092 b 408 1028 393 1075 404 1054 b 400 938 413 997 411 967 b 229 297 322 729 281 511 b 158 -19 206 192 182 86 b 124 -206 144 -81 124 -142 b 117 -239 124 -217 121 -228 b 53 -279 106 -267 83 -285 b 3 -222 21 -275 4 -254 b 11 -149 0 -197 7 -174 b 243 819 83 175 158 499 b 257 946 253 860 271 899 "},":":{"ha":229,"x_min":0,"x_max":0,"o":"m 76 67 b 146 0 115 65 144 36 b 71 -72 146 -39 108 -74 b 3 6 32 -71 0 -33 b 76 67 7 43 38 68 m 76 556 b 146 489 115 554 144 525 b 71 417 146 450 108 415 b 3 494 32 418 0 456 b 76 556 7 532 38 557 "},";":{"ha":303,"x_min":0,"x_max":0,"o":"m 147 556 b 217 489 186 554 215 525 b 142 417 217 450 179 415 b 74 494 103 418 71 456 b 147 556 78 532 108 557 m 217 -8 b 164 -200 206 -75 197 -142 b 124 -251 153 -219 142 -239 b 32 -256 94 -274 63 -278 b 25 -168 0 -231 3 -197 b 83 7 64 -115 85 -60 b 151 71 82 51 114 75 b 217 -8 192 67 219 32 "},"<":{"ha":811,"x_min":0,"x_max":0,"o":"m 529 368 b 472 360 508 375 490 367 b 207 207 376 322 290 267 b 183 168 193 199 176 189 b 218 149 189 153 206 154 b 365 128 265 131 317 131 b 644 115 457 122 550 99 b 721 68 683 121 715 100 b 671 -7 728 28 706 6 b 622 -17 656 -12 638 -18 b 171 40 471 -1 318 0 b 124 54 154 44 139 47 b 81 261 19 94 0 183 b 308 413 147 325 228 369 b 483 486 365 440 425 464 b 549 501 504 494 526 500 b 628 433 593 503 626 474 b 544 364 629 390 596 363 b 529 368 539 364 533 367 "},"=":{"ha":822,"x_min":0,"x_max":0,"o":"m 478 425 b 618 425 525 425 571 426 b 703 394 650 425 679 415 b 718 289 733 369 739 322 b 618 269 694 253 656 242 b 501 301 581 297 543 301 b 211 285 404 301 307 306 b 135 257 185 279 158 275 b 36 257 103 232 68 232 b 8 331 13 275 0 300 b 82 389 18 367 47 383 b 478 425 213 413 344 429 m 435 207 b 526 207 465 207 496 208 b 613 178 557 204 588 197 b 638 97 638 157 651 129 b 563 58 624 65 596 47 b 210 56 444 100 328 78 b 113 107 157 46 119 67 b 188 189 106 146 135 179 b 213 192 196 192 204 192 b 435 207 286 193 360 218 "},">":{"ha":811,"x_min":0,"x_max":0,"o":"m 199 117 b 256 124 219 110 238 117 b 521 276 351 163 438 217 b 544 315 533 285 551 294 b 510 335 539 331 522 329 b 363 356 463 353 411 353 b 83 369 269 363 178 385 b 7 417 43 363 13 385 b 57 490 0 456 22 479 b 106 500 72 496 90 503 b 557 444 256 485 408 483 b 604 431 572 439 589 436 b 647 222 708 389 728 300 b 419 72 581 158 500 114 b 243 -3 363 43 303 21 b 179 -17 224 -11 201 -17 b 100 50 135 -19 101 11 b 183 119 99 93 132 122 b 199 117 189 119 193 118 "},"?":{"ha":928,"x_min":0,"x_max":0,"o":"m 424 906 b 203 838 360 903 276 883 b 179 740 151 806 150 796 b 174 657 196 710 197 682 b 82 649 146 629 113 632 b 36 840 19 683 0 772 b 124 928 57 878 88 906 b 578 1008 264 1018 418 1033 b 739 925 639 1000 693 969 b 813 653 818 850 844 760 b 654 403 783 554 719 478 b 493 224 601 342 546 283 b 429 53 450 175 414 126 b 364 -28 438 7 407 -22 b 275 31 324 -33 288 -10 b 279 113 267 58 272 85 b 404 325 301 194 349 263 b 617 569 475 407 553 482 b 682 675 642 603 667 636 b 628 857 710 749 692 810 b 424 906 582 892 524 907 m 424 -143 b 349 -215 424 -182 389 -215 b 272 -142 313 -214 274 -178 b 350 -71 272 -107 310 -71 b 424 -143 388 -69 424 -106 "},"@":{"ha":1326,"x_min":0,"x_max":0,"o":"m 610 -221 b 288 -121 493 -215 383 -185 b 31 478 72 22 0 232 b 256 901 51 644 125 789 b 1190 581 543 1149 1076 1063 b 1021 4 1243 358 1183 164 b 954 -44 1001 -15 979 -32 b 717 32 858 -94 767 -64 b 606 78 681 100 681 99 b 426 68 547 61 489 43 b 325 188 371 90 332 126 b 397 328 319 249 346 296 b 629 350 471 375 549 372 b 692 394 686 333 689 335 b 692 419 693 403 693 411 b 657 513 689 454 703 499 b 536 476 611 528 569 511 b 511 444 526 467 521 454 b 429 431 488 419 458 411 b 399 517 397 450 386 481 b 406 532 400 522 403 526 b 674 625 440 599 579 646 b 799 450 749 607 796 544 b 814 178 801 358 796 268 b 817 144 815 167 814 154 b 921 108 831 75 868 63 b 1049 356 996 174 1032 260 b 553 897 1097 626 906 929 b 314 790 463 889 381 853 b 142 294 169 657 110 486 b 718 -75 186 19 440 -139 b 817 -121 775 -62 808 -79 b 750 -211 824 -162 799 -199 b 683 -219 728 -217 706 -218 b 610 -221 660 -221 635 -221 "},"A":{"ha":1032,"x_min":0,"x_max":0,"o":"m 949 275 b 919 218 947 251 939 229 b 883 119 875 196 876 161 b 936 -121 899 39 886 -47 b 918 -179 949 -140 939 -165 b 850 -178 896 -197 872 -196 b 814 -106 826 -160 819 -133 b 782 167 796 -15 785 75 b 706 257 781 243 778 247 b 275 233 561 274 418 250 b 226 175 242 229 232 204 b 175 -18 214 110 197 44 b 124 -101 164 -49 151 -81 b 39 -107 97 -121 67 -126 b 24 -26 8 -86 7 -54 b 67 82 44 8 60 43 b 39 207 75 128 88 169 b 58 308 0 238 11 289 b 129 410 107 329 121 365 b 251 815 160 549 192 686 b 364 989 281 879 313 940 b 661 996 457 1079 563 1081 b 776 826 714 950 751 893 b 857 428 825 697 844 564 b 910 335 861 388 865 353 b 949 275 933 325 946 301 m 763 411 b 654 819 743 551 722 692 b 583 910 636 854 615 886 b 464 906 539 943 506 942 b 393 813 435 879 413 847 b 265 403 322 685 293 543 b 314 350 257 358 269 343 b 679 363 436 368 558 358 b 721 364 693 363 707 363 b 763 411 753 364 767 381 "},"B":{"ha":1118,"x_min":0,"x_max":0,"o":"m 592 268 b 646 221 606 242 628 235 b 686 -68 738 146 754 28 b 161 -32 571 -232 281 -281 b 100 149 133 26 113 86 b 96 693 65 331 60 511 b 104 764 100 718 101 743 b 67 781 94 785 79 779 b 4 838 32 785 8 803 b 51 908 0 872 21 894 b 172 978 94 928 138 944 b 219 989 185 990 203 994 b 415 1003 286 968 350 994 b 828 938 560 1022 697 1001 b 936 529 990 856 1035 683 b 714 333 882 443 801 383 b 592 268 674 311 633 290 m 175 442 b 176 400 175 428 175 414 b 274 313 176 315 188 303 b 526 390 361 322 444 356 b 785 564 624 431 714 483 b 728 832 875 669 854 772 b 674 853 711 840 692 847 b 307 857 551 892 429 888 b 224 776 260 846 235 822 b 175 442 197 667 178 556 m 339 175 b 264 171 314 174 289 174 b 219 108 213 164 207 156 b 271 4 231 71 247 36 b 543 -19 338 -87 460 -99 b 522 133 601 36 594 96 b 339 175 465 164 403 171 "},"C":{"ha":915,"x_min":0,"x_max":0,"o":"m 1 276 b 236 865 6 503 89 697 b 424 983 288 922 349 964 b 656 885 515 1010 611 968 b 639 774 681 838 674 796 b 536 801 607 754 568 764 b 518 828 529 810 525 819 b 418 851 483 869 467 874 b 343 800 389 839 364 821 b 113 240 188 646 107 458 b 404 -40 117 54 243 -47 b 710 43 513 -35 619 -26 b 801 39 740 67 772 65 b 810 -60 829 13 832 -25 b 729 -117 790 -89 761 -106 b 314 -160 594 -164 456 -186 b 3 201 138 -128 15 17 b 1 276 0 226 1 251 "},"D":{"ha":1124,"x_min":0,"x_max":0,"o":"m 119 213 b 167 532 135 319 149 425 b 250 826 183 633 210 732 b 274 879 257 844 265 863 b 671 967 371 1056 513 1089 b 1000 435 846 832 961 653 b 763 -104 1040 207 946 28 b 276 -279 619 -210 451 -258 b 125 -233 221 -285 154 -287 b 33 -40 92 -172 49 -112 b 3 199 18 39 4 118 b 1 706 0 368 0 536 b 18 879 3 764 10 821 b 96 957 24 933 57 964 b 151 858 132 950 167 901 b 119 213 82 647 117 431 m 882 358 b 607 856 863 560 767 726 b 403 810 515 929 456 914 b 382 764 394 794 389 779 b 308 483 346 674 324 579 b 239 -68 276 301 272 115 b 307 -136 229 -126 246 -146 b 738 46 465 -111 615 -62 b 882 358 828 126 876 231 "},"E":{"ha":981,"x_min":0,"x_max":0,"o":"m 563 1010 b 756 992 619 1017 688 1004 b 861 947 793 985 832 975 b 865 828 896 911 897 861 b 758 835 833 794 794 794 b 688 872 738 857 715 867 b 308 861 561 897 435 882 b 224 771 260 854 233 819 b 203 522 208 689 208 606 b 247 481 201 489 217 474 b 463 500 318 497 392 488 b 726 511 550 517 639 510 b 804 486 756 511 782 504 b 826 404 829 464 842 438 b 758 369 813 375 788 365 b 660 386 725 374 694 385 b 247 351 521 388 383 369 b 192 292 210 347 193 329 b 240 0 189 192 200 93 b 419 -94 275 -82 332 -110 b 593 -36 481 -83 539 -65 b 647 -18 610 -28 626 -18 b 714 -115 699 -17 733 -67 b 676 -157 707 -133 693 -150 b 322 -224 564 -210 447 -247 b 146 -86 243 -210 182 -162 b 83 221 100 11 89 115 b 40 338 82 264 86 306 b 40 439 4 364 4 413 b 93 554 85 469 89 511 b 107 744 101 617 103 681 b 75 782 110 769 99 781 b 3 847 33 785 6 806 b 68 935 0 893 31 919 b 194 972 110 951 151 964 b 563 1010 313 994 429 1013 "},"F":{"ha":1094,"x_min":0,"x_max":0,"o":"m 690 1044 b 913 1021 767 1046 840 1044 b 993 888 982 997 1011 947 b 933 825 983 857 965 832 b 860 864 897 815 871 835 b 765 917 842 910 807 917 b 418 900 650 919 533 919 b 326 800 339 886 332 879 b 311 535 322 713 314 624 b 438 411 306 408 307 408 b 710 428 528 414 618 435 b 800 414 740 425 771 426 b 849 308 850 392 869 351 b 739 278 828 264 785 249 b 644 303 708 297 678 303 b 346 288 544 300 446 308 b 297 226 308 281 292 263 b 310 -56 310 132 307 38 b 339 -132 311 -85 325 -107 b 304 -235 363 -171 344 -215 b 215 -186 268 -251 228 -233 b 189 36 194 -114 196 -39 b 188 135 185 68 186 101 b 132 251 189 183 185 224 b 132 361 88 274 88 335 b 190 478 182 390 185 431 b 203 769 203 575 200 672 b 182 819 203 788 204 810 b 140 800 164 826 153 810 b 26 801 89 763 53 763 b 54 917 0 838 10 882 b 151 961 83 939 117 951 b 690 1044 328 1015 507 1043 "},"G":{"ha":974,"x_min":0,"x_max":0,"o":"m 593 182 b 381 160 508 193 446 167 b 281 157 347 156 314 150 b 219 233 240 167 215 197 b 297 292 224 269 257 300 b 535 307 379 275 457 297 b 675 300 582 313 629 313 b 803 179 740 281 781 240 b 826 40 821 135 824 88 b 872 -225 833 -49 825 -142 b 846 -304 890 -254 876 -285 b 750 -285 815 -324 772 -315 b 719 -182 728 -254 721 -218 b 717 1 718 -121 718 -60 b 708 81 715 28 724 56 b 664 44 683 79 676 58 b 483 -126 610 -18 551 -78 b 385 -187 453 -149 419 -171 b 40 -35 225 -262 90 -204 b 36 368 0 99 7 235 b 317 932 79 581 158 776 b 632 1033 406 1018 508 1074 b 850 761 760 992 821 886 b 799 654 863 706 842 665 b 706 728 756 644 718 671 b 660 860 696 774 688 821 b 472 907 610 931 550 947 b 349 799 422 882 382 843 b 128 142 200 604 125 386 b 165 -19 129 86 143 32 b 307 -74 197 -87 238 -103 b 372 -37 329 -64 353 -51 b 593 182 453 22 519 96 "},"H":{"ha":1008,"x_min":0,"x_max":0,"o":"m 719 321 b 692 313 707 317 697 317 b 290 260 568 214 432 218 b 182 300 253 269 218 288 b 136 272 154 311 142 301 b 122 15 121 186 124 100 b 122 -218 121 -62 122 -140 b 79 -287 122 -250 117 -281 b 17 -224 50 -294 24 -267 b 14 -133 13 -194 14 -164 b 17 267 14 0 15 133 b 7 374 17 303 18 339 b 7 431 1 393 0 411 b 25 800 49 551 32 676 b 32 881 24 828 19 856 b 96 925 44 908 64 925 b 158 879 128 925 147 907 b 167 814 168 858 171 836 b 143 542 147 724 157 632 b 213 421 131 464 140 454 b 435 360 283 388 354 360 b 631 453 517 360 581 392 b 761 806 717 554 750 676 b 778 963 765 857 767 910 b 844 1035 786 1000 801 1032 b 917 957 879 1038 908 1006 b 917 792 925 901 925 846 b 874 597 908 725 899 658 b 821 279 835 494 822 388 b 819 -4 819 185 819 90 b 861 -122 819 -49 817 -90 b 867 -199 888 -140 881 -172 b 786 -246 849 -229 825 -250 b 729 -193 754 -243 739 -221 b 713 -71 715 -154 713 -112 b 719 321 711 58 711 189 "},"I":{"ha":507,"x_min":0,"x_max":0,"o":"m 292 828 b 283 781 281 814 283 797 b 282 65 283 543 282 304 b 290 -15 282 39 275 8 b 360 -36 306 -39 336 -29 b 421 -106 394 -47 418 -69 b 386 -168 424 -133 410 -154 b 331 -172 368 -178 350 -178 b 154 -199 268 -156 210 -168 b 99 -212 136 -208 119 -214 b 36 -165 68 -210 47 -194 b 58 -92 24 -136 35 -111 b 94 -72 68 -83 82 -78 b 169 54 179 -35 179 -35 b 161 519 151 210 164 364 b 160 736 160 592 161 664 b 97 793 158 790 157 792 b 18 842 61 794 33 808 b 67 940 0 882 18 921 b 285 989 136 968 211 982 b 389 947 324 992 363 979 b 401 856 413 919 422 889 b 324 825 385 826 358 815 b 292 828 314 828 304 835 "},"J":{"ha":1119,"x_min":0,"x_max":0,"o":"m 871 849 b 861 761 854 817 861 789 b 847 97 863 540 867 318 b 792 -162 839 8 824 -79 b 540 -276 746 -283 661 -321 b 232 126 353 -207 269 -58 b 296 226 222 176 254 221 b 379 146 342 233 374 206 b 585 -151 390 6 457 -94 b 689 -112 643 -178 661 -172 b 753 161 732 -26 749 68 b 743 750 761 357 767 554 b 738 792 742 764 742 779 b 607 876 703 892 692 886 b 257 815 489 863 371 850 b 154 750 217 803 181 788 b 32 744 124 706 65 707 b 43 861 0 779 3 826 b 169 924 79 893 124 910 b 593 996 308 963 449 988 b 883 994 690 1001 788 1004 b 972 976 914 992 944 990 b 1015 867 1021 951 1036 910 b 904 833 993 821 956 810 b 890 842 899 835 896 840 b 871 849 886 844 881 846 "},"K":{"ha":971,"x_min":0,"x_max":0,"o":"m 7 6 b 36 778 17 263 25 521 b 53 918 39 824 46 871 b 113 988 57 953 74 982 b 186 921 143 993 176 964 b 178 825 194 889 203 851 b 132 688 140 785 136 736 b 124 479 125 618 124 549 b 175 447 124 436 136 429 b 358 572 243 478 308 513 b 663 890 451 686 556 790 b 758 971 693 919 725 946 b 856 972 789 994 824 1001 b 864 874 888 943 883 907 b 822 811 853 851 838 831 b 476 476 722 685 607 572 b 292 256 396 418 346 336 b 301 174 271 225 276 199 b 665 -51 406 71 526 -6 b 760 -42 697 -62 729 -67 b 839 -56 788 -21 818 -26 b 831 -139 861 -86 851 -114 b 742 -181 807 -165 776 -178 b 636 -165 706 -182 671 -175 b 289 26 506 -128 392 -60 b 244 64 274 39 260 51 b 186 47 218 85 199 78 b 160 -22 178 24 169 0 b 131 -82 150 -43 143 -64 b 58 -111 114 -107 89 -118 b 8 -60 32 -104 15 -85 b 0 6 4 -39 3 -17 b 7 6 3 6 4 6 "},"L":{"ha":932,"x_min":0,"x_max":0,"o":"m 422 -231 b 64 -10 243 -229 128 -160 b 8 274 25 81 13 176 b 44 721 0 424 22 572 b 58 828 49 756 54 792 b 81 915 61 858 67 889 b 139 954 93 939 111 957 b 194 910 167 953 185 935 b 193 807 208 876 218 839 b 140 643 156 758 150 700 b 113 238 115 510 107 374 b 144 75 115 182 125 128 b 450 -99 196 -68 301 -131 b 713 4 543 -79 633 -51 b 733 17 719 8 725 14 b 828 -6 771 35 807 26 b 817 -97 849 -39 840 -69 b 783 -122 807 -107 796 -115 b 422 -231 664 -185 539 -226 "},"M":{"ha":1142,"x_min":0,"x_max":0,"o":"m 281 664 b 179 154 224 494 194 325 b 156 -110 172 67 149 -21 b 121 -174 157 -136 142 -157 b 36 -185 96 -193 68 -204 b 6 -114 10 -169 0 -143 b 42 190 26 -12 32 89 b 169 850 64 414 115 633 b 207 951 179 886 186 921 b 332 943 244 1006 303 1001 b 361 822 350 906 353 863 b 446 374 389 672 417 524 b 464 313 449 358 456 343 b 574 722 486 463 518 596 b 707 939 607 801 643 879 b 765 986 726 957 744 974 b 964 925 847 1036 925 1013 b 1007 656 1000 839 1007 747 b 1008 -42 1010 424 1007 190 b 1039 -193 1008 -94 1003 -146 b 1018 -264 1058 -218 1046 -247 b 944 -250 990 -283 965 -274 b 919 -182 928 -231 922 -207 b 903 8 913 -118 903 -56 b 900 590 904 203 903 397 b 872 813 900 665 889 739 b 843 858 868 831 867 853 b 796 831 821 864 808 844 b 693 632 750 771 721 701 b 594 138 629 474 608 306 b 575 24 592 99 590 60 b 506 -29 561 -6 540 -28 b 435 21 471 -29 447 -10 b 406 115 424 51 413 83 b 303 568 371 267 338 418 b 281 664 296 600 288 632 "},"N":{"ha":1040,"x_min":0,"x_max":0,"o":"m 146 207 b 261 614 174 347 207 483 b 485 953 315 740 385 857 b 622 1043 525 992 569 1024 b 868 947 725 1079 818 1044 b 917 756 899 888 917 824 b 904 224 918 578 922 401 b 901 24 899 158 903 90 b 926 -44 901 -1 908 -25 b 925 -150 957 -79 950 -115 b 846 -186 906 -176 879 -193 b 779 -100 801 -176 785 -140 b 782 199 769 -1 775 99 b 793 771 794 389 821 579 b 771 858 789 801 783 831 b 646 900 746 922 704 936 b 576 840 621 883 597 863 b 382 524 488 750 425 643 b 285 53 326 372 303 213 b 256 -110 278 -1 271 -57 b 163 -200 238 -175 208 -201 b 78 -112 121 -200 94 -175 b 31 174 50 -19 40 78 b 26 788 8 378 0 583 b 44 868 29 815 32 843 b 160 881 71 918 124 924 b 163 758 190 843 194 797 b 119 621 128 717 119 671 b 146 207 119 482 114 343 "},"O":{"ha":1065,"x_min":0,"x_max":0,"o":"m 982 375 b 810 -82 978 233 925 65 b 671 -199 771 -131 725 -169 b 275 -87 522 -278 361 -232 b 196 231 215 10 197 119 b 114 376 194 300 176 342 b 18 604 29 422 0 510 b 450 990 56 792 246 963 b 911 732 640 1018 817 918 b 982 375 957 639 981 535 m 514 414 b 786 429 606 401 696 429 b 833 479 819 428 838 440 b 754 713 822 563 801 642 b 432 849 678 826 563 875 b 390 782 386 839 379 831 b 375 678 397 744 397 707 b 319 482 328 619 331 549 b 374 415 313 438 329 418 b 514 414 419 411 467 414 m 560 303 b 560 306 560 303 560 304 b 361 306 494 306 428 304 b 314 275 338 306 315 304 b 403 -53 307 156 322 42 b 575 -90 450 -107 510 -118 b 669 -25 613 -76 643 -53 b 810 235 742 49 782 139 b 758 301 824 286 814 300 b 560 303 693 304 626 303 m 260 747 b 138 576 182 699 154 642 b 154 497 131 547 138 521 b 193 472 163 483 174 469 b 215 504 210 475 213 490 b 260 747 229 578 243 654 "},"P":{"ha":1178,"x_min":0,"x_max":0,"o":"m 300 265 b 300 776 300 444 301 610 b 271 846 300 803 306 836 b 183 800 231 857 204 836 b 57 754 147 736 108 724 b 40 882 8 785 0 839 b 125 932 63 906 93 921 b 778 993 338 1001 556 1035 b 981 900 853 979 922 950 b 1063 632 1063 829 1094 739 b 900 396 1035 535 975 460 b 488 168 778 293 640 218 b 411 57 410 142 408 142 b 465 -125 413 -8 404 -75 b 454 -212 493 -149 483 -187 b 350 -204 422 -239 376 -236 b 321 -118 331 -179 324 -149 b 303 54 314 -61 306 -3 b 238 139 301 101 296 136 b 175 188 208 139 186 161 b 189 265 164 215 168 243 b 263 283 208 289 233 297 b 300 265 272 279 282 274 m 408 533 b 408 339 408 476 406 407 b 475 288 410 283 424 272 b 893 560 640 339 785 422 b 790 883 1007 706 967 828 b 476 899 686 915 581 903 b 424 836 438 897 429 869 b 408 533 407 740 413 643 "},"Q":{"ha":972,"x_min":0,"x_max":0,"o":"m 885 410 b 763 4 889 272 854 131 b 758 -82 742 -24 725 -49 b 760 -165 782 -106 779 -137 b 672 -193 738 -197 699 -211 b 504 -212 607 -150 560 -187 b 256 -253 426 -247 344 -272 b 4 43 100 -219 13 -118 b 64 317 0 139 31 228 b 99 392 74 342 83 369 b 129 625 149 465 164 538 b 124 797 108 678 115 740 b 440 1018 146 947 293 1046 b 822 692 631 981 742 854 b 868 558 843 650 857 604 b 885 410 879 515 878 471 m 736 406 b 735 481 736 431 739 456 b 511 850 715 636 649 765 b 368 885 467 878 419 889 b 249 786 307 879 263 844 b 246 671 240 749 243 708 b 283 638 247 647 257 635 b 358 588 322 644 347 624 b 329 492 369 551 364 514 b 315 429 299 474 304 454 b 556 61 376 293 458 172 b 626 65 586 26 597 28 b 736 406 706 165 742 278 m 213 388 b 129 35 151 263 115 154 b 310 -121 140 -61 213 -122 b 431 -90 353 -119 392 -107 b 456 1 497 -61 499 -56 b 399 82 436 28 418 56 b 213 388 332 174 274 271 "},"R":{"ha":1114,"x_min":0,"x_max":0,"o":"m 396 185 b 697 75 501 125 597 96 b 882 86 760 63 819 51 b 976 47 921 108 960 86 b 936 -57 994 7 978 -39 b 839 -69 906 -71 872 -71 b 376 60 675 -61 526 1 b 285 86 349 71 324 92 b 342 -111 297 18 276 -56 b 328 -196 369 -135 358 -174 b 238 -192 299 -218 263 -217 b 204 -117 217 -171 208 -144 b 171 97 193 -46 186 26 b 163 319 156 171 151 240 b 176 751 183 461 174 607 b 126 783 176 792 168 796 b 19 815 72 768 40 778 b 53 925 0 853 11 892 b 285 1007 121 978 203 999 b 704 976 425 1022 567 1021 b 894 878 774 954 839 925 b 935 508 1014 776 1031 633 b 619 271 851 401 742 328 b 396 185 553 239 483 213 m 275 551 b 276 371 275 475 274 424 b 343 315 278 319 294 304 b 825 574 526 358 696 431 b 797 811 904 660 893 742 b 776 825 792 817 785 821 b 351 900 644 906 500 908 b 311 856 325 897 315 882 b 275 551 292 747 268 639 "},"S":{"ha":943,"x_min":0,"x_max":0,"o":"m 858 853 b 792 771 857 807 831 775 b 717 839 753 765 724 788 b 653 903 711 882 688 892 b 175 718 497 951 251 836 b 193 533 128 647 132 592 b 375 417 247 483 311 450 b 654 269 468 368 565 325 b 774 168 700 242 742 210 b 764 -82 836 88 833 -8 b 454 -231 681 -171 568 -206 b 438 -231 449 -232 443 -231 b 360 -169 394 -228 365 -204 b 424 -96 356 -135 381 -100 b 621 -33 494 -87 560 -67 b 636 129 703 13 708 65 b 497 218 594 167 546 192 b 225 361 406 265 313 307 b 100 457 181 390 136 419 b 75 765 10 551 0 660 b 450 1010 168 896 297 971 b 751 997 551 1035 653 1036 b 858 853 819 969 860 915 "},"T":{"ha":1146,"x_min":0,"x_max":0,"o":"m 588 258 b 588 -22 588 143 586 60 b 614 -151 588 -67 586 -111 b 593 -228 633 -181 625 -210 b 513 -194 564 -246 528 -232 b 485 -22 492 -139 486 -81 b 494 567 481 174 478 369 b 496 832 501 654 499 743 b 417 899 494 890 475 910 b 140 803 321 879 218 881 b 24 821 106 769 49 782 b 53 926 0 856 11 900 b 121 957 74 940 97 951 b 893 1010 375 1022 632 1049 b 1003 972 932 1004 969 993 b 1044 858 1047 944 1063 900 b 928 840 1022 804 963 793 b 853 900 907 869 888 892 b 656 915 788 914 722 924 b 622 872 633 911 625 893 b 608 749 618 831 611 790 b 588 258 601 575 579 401 "},"U":{"ha":875,"x_min":0,"x_max":0,"o":"m 624 108 b 564 32 589 88 581 57 b 381 -158 514 -43 461 -112 b 58 -65 250 -232 129 -197 b 3 158 21 6 6 81 b 35 647 0 322 6 486 b 42 779 42 690 51 733 b 88 888 32 822 50 861 b 149 883 107 901 132 900 b 175 767 181 850 189 807 b 114 243 117 596 114 419 b 157 24 114 168 124 93 b 328 -15 201 -64 251 -78 b 501 244 411 53 463 146 b 601 613 550 363 579 488 b 638 867 617 697 626 782 b 639 875 638 869 639 872 b 711 971 647 939 675 974 b 775 867 749 968 772 931 b 753 603 779 778 765 690 b 739 89 728 432 719 261 b 743 -3 742 58 742 28 b 767 -89 744 -32 749 -61 b 756 -174 792 -128 785 -157 b 661 -133 719 -192 678 -176 b 636 14 644 -86 639 -36 b 624 108 635 43 643 75 "},"V":{"ha":1108,"x_min":0,"x_max":0,"o":"m 1018 928 b 842 104 1010 643 942 369 b 714 -118 813 24 776 -56 b 417 -118 615 -215 514 -215 b 254 169 336 -37 293 67 b 121 650 194 325 157 488 b 49 750 111 694 100 733 b 4 831 14 763 0 794 b 72 918 10 872 31 906 b 154 878 110 931 135 907 b 194 761 176 842 186 801 b 294 367 225 629 257 496 b 413 83 322 267 361 172 b 506 -32 436 39 467 0 b 608 -26 546 -64 572 -61 b 660 50 631 -4 646 22 b 869 763 771 275 844 511 b 885 936 876 821 885 878 b 961 1024 886 994 919 1029 b 1018 928 1001 1018 1025 981 "},"W":{"ha":1324,"x_min":0,"x_max":0,"o":"m 522 238 b 490 174 497 217 496 194 b 389 -81 464 85 431 0 b 304 -194 367 -124 340 -162 b 74 -158 222 -267 131 -253 b 19 32 39 -100 25 -35 b 106 846 0 308 38 579 b 122 885 110 860 115 872 b 188 924 136 911 156 929 b 236 872 217 919 229 897 b 215 754 246 831 247 788 b 172 649 188 724 178 688 b 126 163 144 488 121 326 b 164 -50 129 89 143 19 b 193 -87 169 -65 174 -85 b 229 -60 213 -92 221 -72 b 318 138 269 1 296 68 b 415 446 353 239 383 343 b 508 546 439 522 463 547 b 600 444 574 544 588 493 b 710 122 629 335 661 226 b 872 -75 747 43 799 -25 b 1017 -33 939 -121 982 -108 b 1060 235 1057 51 1061 144 b 976 690 1057 390 1031 544 b 881 819 957 743 935 790 b 857 947 828 847 822 908 b 981 940 890 985 936 982 b 1050 847 1010 914 1032 882 b 1190 19 1186 588 1240 311 b 1151 -99 1183 -22 1169 -61 b 786 -185 1076 -254 921 -292 b 594 61 703 -118 636 -37 b 522 238 571 118 549 175 "},"X":{"ha":968,"x_min":0,"x_max":0,"o":"m 382 224 b 346 186 358 217 353 200 b 201 -86 297 96 249 6 b 179 -181 186 -115 174 -144 b 121 -281 188 -228 157 -258 b 50 -282 97 -294 74 -297 b 24 -217 26 -265 21 -243 b 67 -100 29 -174 46 -136 b 272 271 133 25 199 150 b 276 424 304 325 310 368 b 103 736 215 525 160 632 b 31 838 83 774 56 804 b 32 942 0 876 3 917 b 140 922 63 969 107 963 b 171 872 153 907 161 889 b 314 590 218 779 267 685 b 343 532 324 571 333 551 b 419 525 375 474 385 472 b 422 532 421 528 421 531 b 588 803 478 622 532 713 b 631 901 607 833 622 865 b 688 978 638 935 657 961 b 765 974 715 993 742 993 b 785 900 789 954 797 928 b 753 842 776 879 765 860 b 482 424 657 706 572 563 b 486 279 449 371 451 329 b 682 33 546 193 603 106 b 786 19 714 3 743 -22 b 856 15 806 36 835 32 b 878 -60 882 -3 885 -31 b 726 -140 861 -124 794 -160 b 614 -72 683 -128 647 -101 b 449 125 547 -15 494 50 b 382 224 428 158 413 199 "},"Y":{"ha":938,"x_min":0,"x_max":0,"o":"m 403 161 b 415 306 407 207 413 256 b 363 386 417 344 410 376 b 140 560 260 406 194 478 b 26 733 101 617 72 681 b 3 844 0 764 0 806 b 50 906 6 875 19 899 b 125 868 85 914 110 897 b 156 792 138 843 147 817 b 272 590 182 717 222 650 b 524 604 361 482 450 486 b 697 1018 604 732 654 874 b 700 1033 699 1022 699 1028 b 782 1107 714 1089 742 1114 b 835 1003 825 1099 854 1054 b 571 454 765 813 721 608 b 532 306 531 414 532 356 b 544 -92 531 174 540 40 b 567 -154 546 -115 558 -133 b 544 -240 582 -196 574 -225 b 450 -211 513 -256 472 -244 b 422 -125 432 -185 425 -156 b 403 161 415 -31 410 63 "},"Z":{"ha":1081,"x_min":0,"x_max":0,"o":"m 717 569 b 825 546 761 560 793 553 b 896 485 861 539 888 522 b 863 404 901 451 889 425 b 771 408 832 381 803 390 b 538 368 686 460 599 443 b 390 176 488 306 439 240 b 304 35 357 133 329 85 b 400 -124 246 -83 267 -118 b 756 -103 519 -128 638 -117 b 864 -158 826 -93 863 -114 b 764 -232 867 -203 833 -225 b 383 -249 638 -246 510 -250 b 253 -226 338 -249 294 -243 b 144 -19 161 -190 122 -115 b 210 124 157 32 181 79 b 407 396 267 215 336 299 b 246 351 344 390 293 378 b 211 331 233 346 224 336 b 111 361 171 313 131 326 b 147 458 92 399 106 439 b 250 490 179 472 215 483 b 471 529 324 504 396 524 b 565 575 508 531 540 547 b 771 803 633 651 703 726 b 786 824 776 810 781 817 b 739 915 826 889 815 913 b 303 864 590 921 446 894 b 126 799 242 851 178 843 b 21 825 92 768 43 786 b 46 926 0 863 10 901 b 140 960 75 946 107 953 b 672 1040 315 999 494 1022 b 878 1015 743 1047 811 1035 b 954 836 974 986 997 925 b 875 744 936 797 919 761 b 844 718 864 740 853 728 b 717 569 804 672 765 625 "},"[":{"ha":589,"x_min":0,"x_max":0,"o":"m 147 231 b 161 -35 146 142 136 53 b 215 -125 171 -69 185 -103 b 339 -119 250 -150 304 -149 b 374 -85 351 -108 361 -94 b 458 -81 400 -62 429 -60 b 482 -162 485 -101 494 -129 b 361 -265 463 -219 419 -251 b 54 -67 208 -303 85 -222 b 43 314 28 60 38 188 b 71 694 49 442 61 568 b 82 810 74 733 76 772 b 53 917 89 850 82 883 b 90 1056 0 978 15 1031 b 385 1097 186 1086 286 1093 b 457 1076 410 1099 435 1092 b 482 960 494 1050 506 999 b 375 938 457 919 419 911 b 349 957 365 943 358 953 b 217 904 293 982 244 960 b 167 619 171 814 183 714 b 150 421 156 554 157 488 b 147 231 143 358 147 294 "},"\\":{"ha":496,"x_min":0,"x_max":0,"o":"m 154 946 b 169 819 142 899 160 860 b 400 -149 254 499 329 175 b 410 -222 406 -174 413 -197 b 360 -279 407 -254 390 -275 b 296 -239 328 -285 307 -267 b 289 -206 292 -228 289 -217 b 254 -19 288 -142 268 -81 b 182 297 231 86 207 192 b 11 938 131 511 90 729 b 4 1028 0 967 0 997 b 47 1083 8 1054 19 1075 b 121 1058 76 1092 103 1083 b 154 946 146 1024 160 985 "},"]":{"ha":590,"x_min":0,"x_max":0,"o":"m 358 593 b 346 857 360 681 369 769 b 290 947 335 893 321 925 b 168 943 256 974 203 971 b 132 907 154 932 144 918 b 49 904 106 886 76 883 b 24 985 21 925 13 953 b 144 1089 43 1043 88 1075 b 453 890 299 1125 421 1046 b 463 508 478 764 468 636 b 435 128 457 382 446 256 b 424 13 432 90 429 51 b 453 -93 418 -28 425 -61 b 415 -232 507 -154 492 -207 b 121 -274 319 -264 221 -269 b 50 -254 96 -275 71 -268 b 25 -136 11 -228 0 -176 b 131 -114 49 -97 86 -89 b 157 -133 140 -119 147 -129 b 289 -81 213 -160 261 -136 b 339 204 335 10 324 108 b 357 401 351 268 350 336 b 358 593 364 465 358 529 "},"^":{"ha":704,"x_min":0,"x_max":0,"o":"m 618 974 b 511 906 621 922 565 886 b 453 950 488 913 469 931 b 360 1067 421 988 392 1028 b 221 1071 301 1143 289 1143 b 138 958 189 1036 165 996 b 21 953 103 910 50 910 b 18 1031 3 978 0 1007 b 193 1217 69 1099 118 1171 b 401 1190 272 1265 336 1257 b 460 1121 422 1168 440 1143 b 575 1029 493 1082 524 1043 b 618 974 601 1022 617 1001 "},"_":{"ha":1193,"x_min":0,"x_max":0,"o":"m 786 -76 b 1018 -93 864 -72 940 -82 b 1065 -107 1033 -96 1051 -100 b 1099 -185 1094 -124 1110 -150 b 1029 -232 1089 -217 1064 -235 b 914 -217 990 -229 953 -222 b 442 -215 757 -194 600 -203 b 94 -243 326 -224 210 -232 b 7 -183 47 -247 14 -222 b 72 -101 0 -146 24 -114 b 129 -96 90 -97 110 -96 b 786 -76 349 -90 568 -99 "},"`":{"ha":465,"x_min":0,"x_max":0,"o":"m 315 875 b 251 921 286 878 269 899 b 46 1136 188 997 131 1079 b 31 1253 3 1164 0 1219 b 138 1236 60 1283 97 1279 b 333 1022 204 1167 268 1093 b 375 950 351 1001 369 979 b 315 875 382 913 353 875 "},"a":{"ha":822,"x_min":0,"x_max":0,"o":"m 553 369 b 306 542 526 517 443 572 b 144 461 244 528 190 504 b 29 456 101 419 60 421 b 44 574 0 489 6 535 b 506 647 144 674 382 711 b 661 431 593 601 636 522 b 694 201 682 356 690 279 b 731 -111 701 96 704 -8 b 704 -171 739 -137 733 -161 b 642 -146 676 -181 654 -169 b 622 -90 632 -129 628 -110 b 601 4 615 -58 608 -26 b 543 -21 571 15 558 -7 b 349 -149 485 -74 419 -115 b 246 -176 317 -164 282 -175 b 28 29 117 -183 29 -101 b 289 388 26 181 143 344 b 507 375 363 410 436 408 b 553 369 519 369 532 361 m 226 -35 b 297 -17 251 -36 275 -28 b 461 94 360 10 413 49 b 450 249 529 157 525 199 b 339 271 415 272 378 278 b 151 53 246 254 154 149 b 226 -35 149 -1 176 -35 "},"b":{"ha":1024,"x_min":0,"x_max":0,"o":"m 133 450 b 214 493 174 456 192 479 b 464 603 292 543 372 585 b 890 317 682 644 851 533 b 442 -214 940 49 707 -225 b 189 -87 338 -210 256 -162 b 57 169 122 -14 82 74 b 86 843 0 397 32 621 b 129 986 97 892 114 939 b 201 1043 140 1021 161 1047 b 263 975 240 1040 258 1010 b 219 835 269 922 278 868 b 185 790 201 825 189 810 b 133 450 154 681 126 571 m 761 240 b 576 486 763 378 694 469 b 406 458 517 494 461 478 b 158 239 293 419 221 333 b 156 199 150 226 151 213 b 308 -51 182 100 225 11 b 489 -94 361 -92 422 -108 b 761 240 625 -64 769 74 "},"c":{"ha":872,"x_min":0,"x_max":0,"o":"m 131 244 b 164 8 129 164 126 83 b 401 -104 214 -94 289 -131 b 650 22 494 -82 579 -44 b 760 29 689 58 732 60 b 749 -81 789 0 789 -47 b 308 -237 622 -187 478 -257 b 43 7 167 -221 85 -124 b 14 385 4 131 0 258 b 64 629 22 468 38 550 b 193 706 88 703 115 719 b 267 710 219 701 242 708 b 563 699 365 718 465 729 b 653 642 597 688 631 672 b 663 533 678 607 685 571 b 547 522 633 485 576 476 b 406 588 511 579 463 588 b 131 328 199 589 139 533 b 131 244 129 300 131 272 "},"d":{"ha":917,"x_min":0,"x_max":0,"o":"m 669 363 b 556 132 626 275 592 204 b 404 -74 517 56 467 -14 b 271 -157 365 -111 322 -140 b 33 -53 168 -193 78 -153 b 8 151 4 13 0 82 b 129 485 24 271 60 383 b 197 567 149 514 172 543 b 544 572 313 674 425 675 b 588 547 557 561 567 546 b 619 619 611 565 613 593 b 688 936 650 724 669 829 b 706 1008 692 960 697 985 b 778 1049 718 1040 743 1056 b 825 981 815 1042 828 1014 b 807 824 822 928 813 876 b 761 -29 775 540 756 256 b 804 -139 763 -72 763 -111 b 808 -211 833 -157 829 -186 b 719 -222 785 -239 747 -243 b 672 -128 688 -199 678 -164 b 667 303 654 15 647 160 b 669 363 668 317 668 331 m 126 142 b 132 71 129 115 128 93 b 281 14 147 -36 196 -56 b 463 247 358 78 408 164 b 472 433 506 310 501 368 b 265 475 426 538 344 556 b 126 142 175 381 136 265 "},"e":{"ha":832,"x_min":0,"x_max":0,"o":"m 504 -99 b 596 -100 535 -99 565 -99 b 668 -154 633 -100 660 -117 b 611 -235 675 -189 651 -222 b 471 -240 565 -249 517 -244 b 36 119 233 -217 113 -107 b 36 336 10 197 0 258 b 117 535 65 400 78 474 b 442 754 192 657 296 736 b 581 739 489 761 536 754 b 704 472 697 697 749 588 b 628 354 688 428 661 389 b 231 144 518 240 383 175 b 189 67 161 132 160 126 b 446 -100 242 -37 326 -96 b 504 -100 465 -101 485 -100 b 504 -99 504 -100 504 -100 m 208 293 b 539 488 336 314 453 375 b 561 579 560 515 578 546 b 469 624 544 617 507 619 b 164 326 339 638 190 492 b 208 293 160 303 171 289 "},"f":{"ha":636,"x_min":0,"x_max":0,"o":"m 290 801 b 281 642 278 744 279 693 b 331 599 282 611 303 599 b 446 585 369 600 408 593 b 507 558 468 579 489 572 b 532 457 543 531 553 492 b 431 438 510 422 472 415 b 381 467 413 446 397 460 b 265 386 301 493 267 469 b 264 -121 265 217 265 49 b 257 -203 264 -149 263 -176 b 199 -254 250 -232 229 -251 b 132 -214 168 -257 144 -240 b 108 -110 115 -181 108 -146 b 28 304 106 33 75 171 b 11 435 14 346 0 389 b 96 540 22 483 51 521 b 156 646 146 561 158 596 b 174 868 153 721 157 794 b 193 940 179 893 185 917 b 285 1026 208 985 235 1021 b 396 967 333 1033 368 1004 b 456 754 440 903 453 829 b 378 663 458 703 419 663 b 306 749 339 663 314 694 b 290 801 303 764 311 781 "},"g":{"ha":892,"x_min":0,"x_max":0,"o":"m 804 47 b 708 -400 808 -110 793 -262 b 363 -526 632 -524 500 -571 b 144 -210 221 -481 132 -351 b 179 -110 147 -174 156 -139 b 318 -93 217 -62 274 -56 b 313 -218 360 -129 361 -175 b 297 -292 286 -243 288 -262 b 593 -350 347 -419 526 -432 b 689 -87 657 -272 679 -182 b 635 313 703 49 675 182 b 544 325 617 376 590 379 b 354 106 481 251 424 174 b 229 11 317 68 276 33 b 8 126 119 -42 28 7 b 13 283 0 179 3 232 b 194 661 40 425 100 551 b 553 671 306 789 436 790 b 692 518 600 621 636 561 b 746 399 726 492 735 442 b 786 221 763 340 776 281 b 804 47 796 163 801 106 m 119 214 b 119 172 119 200 118 186 b 182 147 126 129 146 122 b 219 179 196 156 207 167 b 447 429 304 256 375 342 b 443 593 504 497 503 525 b 308 606 397 646 360 653 b 119 214 194 500 133 368 "},"h":{"ha":1029,"x_min":0,"x_max":0,"o":"m 118 107 b 188 264 143 164 165 214 b 365 543 232 365 293 458 b 500 651 403 588 447 626 b 725 579 593 697 676 669 b 778 396 756 522 764 458 b 832 161 796 318 813 240 b 889 100 839 132 850 104 b 944 29 928 94 946 68 b 888 -67 943 -12 924 -46 b 786 -56 853 -85 818 -81 b 738 21 763 -36 750 -7 b 653 349 690 125 674 238 b 619 486 644 396 635 442 b 547 510 606 525 583 531 b 481 449 521 494 500 472 b 229 -69 357 296 274 122 b 199 -199 219 -114 211 -157 b 108 -282 181 -258 149 -285 b 31 -189 68 -279 40 -251 b 7 35 19 -115 11 -40 b 7 550 0 206 0 378 b 53 911 13 671 26 792 b 74 974 57 933 60 956 b 168 986 97 1007 138 1011 b 179 840 213 949 219 883 b 142 760 156 817 147 790 b 118 107 111 606 99 289 "},"i":{"ha":256,"x_min":0,"x_max":0,"o":"m 0 289 b 0 563 0 379 0 471 b 76 669 1 633 29 672 b 143 549 126 667 154 615 b 125 -22 110 358 126 168 b 157 -97 125 -53 143 -74 b 150 -165 172 -121 169 -146 b 74 -178 128 -186 103 -192 b 19 -108 43 -164 28 -139 b 1 14 10 -68 0 -28 b 1 289 1 106 1 197 b 0 289 1 289 0 289 m 153 811 b 74 757 147 775 114 751 b 15 832 33 761 8 794 b 97 881 22 868 57 889 b 153 811 133 875 157 844 "},"j":{"ha":828,"x_min":0,"x_max":0,"o":"m 740 182 b 558 -417 736 -74 669 -253 b 467 -514 533 -454 503 -486 b 163 -421 342 -612 210 -572 b 147 -331 154 -392 150 -361 b 238 10 139 -207 181 -96 b 325 61 256 43 283 68 b 396 -12 365 54 385 25 b 364 -92 404 -46 390 -69 b 300 -379 293 -150 261 -297 b 379 -397 319 -418 343 -425 b 467 -299 415 -371 443 -336 b 607 122 553 -171 597 -28 b 543 411 614 224 592 322 b 326 539 497 496 426 542 b 113 515 254 536 183 524 b 33 528 83 511 57 508 b 4 592 13 544 0 565 b 53 643 10 619 28 643 b 425 654 176 643 299 682 b 646 492 524 632 596 578 b 740 182 711 379 744 258 m 300 878 b 379 808 339 879 378 846 b 308 742 379 775 347 743 b 231 808 265 739 231 769 b 300 878 231 844 263 876 "},"k":{"ha":971,"x_min":0,"x_max":0,"o":"m 735 -108 b 474 -68 660 -97 567 -83 b 335 -44 428 -61 382 -53 b 249 -92 294 -39 265 -50 b 194 -185 235 -124 219 -157 b 44 -168 146 -239 81 -232 b 13 -49 22 -132 18 -90 b 8 182 0 28 6 106 b 10 582 11 315 10 449 b 28 913 8 693 17 803 b 40 969 29 932 32 953 b 156 989 63 1019 117 1029 b 171 861 190 954 199 907 b 136 726 144 818 138 774 b 121 294 131 582 126 439 b 122 261 121 283 121 272 b 168 240 126 231 143 222 b 317 383 222 282 282 319 b 442 589 356 453 399 521 b 506 664 458 617 478 646 b 632 610 560 700 621 674 b 613 506 639 574 628 539 b 468 304 578 428 526 363 b 357 131 417 254 389 192 b 382 76 340 100 350 82 b 718 19 494 57 606 38 b 774 31 738 17 756 25 b 872 0 822 47 857 36 b 818 -97 888 -36 867 -75 b 735 -108 797 -107 775 -108 "},"l":{"ha":504,"x_min":0,"x_max":0,"o":"m 0 317 b 56 853 6 469 25 661 b 69 951 61 886 64 919 b 157 1029 81 1013 114 1040 b 213 907 201 1019 235 954 b 121 439 139 760 142 597 b 122 83 107 321 100 203 b 175 -72 133 29 143 -26 b 331 -168 213 -126 257 -168 b 415 -246 390 -169 421 -203 b 301 -317 408 -293 353 -331 b 44 -78 176 -281 86 -204 b 0 317 7 36 0 156 "},"m":{"ha":1386,"x_min":0,"x_max":0,"o":"m 135 85 b 429 649 203 301 293 488 b 571 763 469 696 514 736 b 760 697 649 799 719 775 b 813 472 797 628 807 550 b 829 265 818 407 824 342 b 917 351 863 299 890 325 b 1050 450 956 392 999 426 b 1279 346 1154 496 1244 454 b 1290 124 1303 272 1297 197 b 1258 -124 1283 40 1271 -42 b 1246 -172 1257 -140 1253 -157 b 1154 -218 1229 -215 1192 -233 b 1111 -124 1118 -204 1093 -161 b 1163 111 1146 -49 1149 32 b 1165 260 1172 160 1172 211 b 1076 297 1157 324 1128 336 b 942 151 1022 257 978 208 b 858 -1 910 103 879 54 b 842 -40 854 -14 849 -28 b 753 -100 822 -75 799 -106 b 689 -4 714 -94 690 -60 b 689 361 688 118 689 239 b 669 568 689 431 688 500 b 576 597 651 639 629 649 b 381 310 493 514 431 417 b 232 -139 314 167 275 14 b 211 -210 225 -162 219 -187 b 129 -271 196 -246 169 -272 b 54 -204 88 -269 67 -240 b 26 -24 36 -144 32 -83 b 7 358 13 103 0 231 b 26 556 11 424 18 490 b 47 618 29 578 36 600 b 119 639 64 646 90 653 b 167 511 161 619 193 547 b 118 207 94 417 115 311 b 135 85 119 172 128 136 "},"n":{"ha":988,"x_min":0,"x_max":0,"o":"m 136 143 b 185 265 153 185 168 225 b 403 628 239 397 310 519 b 843 546 568 819 758 783 b 885 44 901 382 904 214 b 853 -135 878 -17 868 -76 b 778 -186 844 -169 817 -192 b 718 -107 742 -182 717 -147 b 721 -92 718 -101 719 -96 b 758 146 743 -14 746 67 b 718 506 778 271 761 389 b 683 571 710 529 699 551 b 575 590 651 613 619 618 b 492 510 542 569 517 540 b 261 17 372 365 313 192 b 218 -136 246 -35 233 -85 b 193 -197 211 -157 203 -178 b 111 -242 176 -229 149 -246 b 46 -185 76 -237 56 -215 b 24 -79 35 -151 26 -115 b 6 535 4 125 0 329 b 51 625 6 572 13 608 b 118 608 76 638 100 629 b 135 500 147 576 150 540 b 136 143 89 382 114 264 "},"o":{"ha":901,"x_min":0,"x_max":0,"o":"m 818 232 b 588 -181 810 65 744 -85 b 175 44 393 -300 183 -185 b 175 93 175 60 174 78 b 122 214 182 146 163 179 b 92 569 7 311 0 450 b 756 493 244 767 601 790 b 818 232 796 415 815 332 m 200 328 b 258 442 239 360 238 407 b 357 471 281 481 322 493 b 375 368 390 450 399 404 b 342 333 367 356 353 346 b 325 288 331 321 319 306 b 374 267 333 264 354 267 b 531 274 426 265 479 261 b 676 251 579 285 628 292 b 544 551 682 382 639 479 b 207 522 454 621 285 604 b 200 328 149 458 144 400 m 678 194 b 565 144 636 158 601 149 b 335 129 489 135 413 114 b 288 100 311 133 288 132 b 353 -62 286 38 301 -24 b 510 -60 403 -100 458 -89 b 678 194 601 -7 654 74 "},"p":{"ha":964,"x_min":0,"x_max":0,"o":"m 114 206 b 240 536 151 315 186 429 b 360 693 271 596 308 650 b 588 710 433 757 506 763 b 615 690 597 704 607 697 b 497 -92 881 472 815 35 b 281 -143 428 -119 356 -139 b 213 -212 218 -147 218 -150 b 194 -403 207 -275 201 -339 b 172 -490 190 -432 183 -462 b 94 -540 160 -524 133 -543 b 28 -487 60 -539 39 -518 b 6 -365 15 -447 7 -407 b 7 475 0 -85 0 194 b 25 615 8 522 17 568 b 82 676 29 647 47 674 b 149 625 118 681 140 657 b 131 400 168 549 204 472 b 114 289 101 371 115 326 b 114 206 113 261 114 233 m 651 300 b 561 558 643 390 622 482 b 419 563 511 622 474 622 b 394 531 411 553 401 542 b 243 78 304 393 261 239 b 329 -3 238 24 275 -10 b 517 60 396 4 460 24 b 651 300 604 114 642 196 "},"q":{"ha":883,"x_min":0,"x_max":0,"o":"m 540 467 b 617 597 581 511 593 557 b 660 668 631 621 642 647 b 786 638 706 718 768 704 b 789 489 800 589 793 539 b 763 167 781 382 771 274 b 733 -272 751 21 742 -126 b 751 -476 729 -340 719 -410 b 725 -553 768 -508 757 -536 b 646 -511 694 -567 661 -549 b 636 -421 635 -482 638 -451 b 654 251 632 -196 642 28 b 647 336 656 278 663 306 b 599 269 621 318 611 292 b 417 1 543 176 489 83 b 276 -114 376 -44 331 -86 b 29 -21 171 -171 72 -133 b 8 185 4 46 0 115 b 113 524 22 304 54 418 b 182 617 132 558 154 589 b 450 610 271 704 365 701 b 540 467 485 569 504 521 m 129 158 b 147 44 129 119 132 81 b 222 19 167 0 182 -6 b 339 136 269 50 304 93 b 394 439 449 274 449 272 b 343 542 382 475 369 513 b 272 546 321 567 296 569 b 235 503 258 533 244 518 b 129 158 171 396 135 282 "},"r":{"ha":840,"x_min":0,"x_max":0,"o":"m 156 226 b 269 422 194 293 231 358 b 549 750 346 547 442 653 b 632 806 574 772 601 792 b 725 792 665 819 697 817 b 744 693 756 764 757 731 b 672 636 733 658 710 632 b 558 581 621 642 590 613 b 229 -33 388 408 285 200 b 211 -114 224 -60 218 -87 b 125 -200 194 -174 165 -203 b 53 -103 85 -196 58 -162 b 36 188 44 -6 35 90 b 10 501 36 293 28 397 b 31 639 0 549 10 594 b 82 674 39 660 58 675 b 138 631 110 674 128 657 b 146 515 151 593 147 554 b 156 226 142 419 143 324 "},"s":{"ha":779,"x_min":0,"x_max":0,"o":"m 379 749 b 147 557 278 703 199 646 b 168 429 119 506 126 471 b 285 350 201 396 243 372 b 497 238 356 313 426 275 b 619 153 542 214 583 188 b 628 -65 693 86 696 7 b 550 -126 606 -89 579 -110 b 315 -229 476 -169 399 -206 b 242 -243 292 -236 268 -243 b 147 -178 190 -242 157 -218 b 208 -60 139 -137 168 -78 b 278 -69 233 -49 260 -50 b 375 -79 308 -106 342 -93 b 521 -1 426 -60 478 -37 b 521 72 556 28 556 44 b 431 131 493 94 463 113 b 204 253 356 172 279 211 b 63 367 151 282 100 317 b 49 607 7 438 0 531 b 363 856 125 725 233 804 b 506 822 424 879 475 864 b 508 640 535 782 538 676 b 443 613 492 619 471 607 b 390 660 417 618 397 635 b 379 749 385 683 385 708 "},"t":{"ha":838,"x_min":0,"x_max":0,"o":"m 313 774 b 490 793 375 781 433 785 b 671 776 553 803 613 793 b 733 660 728 761 754 706 b 625 624 714 614 665 594 b 344 647 535 689 439 651 b 289 583 310 644 290 617 b 300 28 285 399 265 213 b 317 -28 303 8 308 -10 b 393 -51 338 -78 347 -81 b 497 -51 436 -24 474 -24 b 493 -151 525 -86 514 -118 b 249 -165 429 -246 322 -253 b 175 43 197 -104 181 -32 b 174 475 165 188 154 331 b 174 525 176 492 174 508 b 135 563 174 551 164 568 b 61 571 108 557 85 560 b 47 692 7 597 0 656 b 99 715 61 703 81 713 b 190 835 167 729 186 775 b 210 983 194 885 201 935 b 275 1047 215 1019 235 1046 b 344 989 315 1049 336 1024 b 335 868 356 949 363 907 b 313 774 317 843 307 815 "},"u":{"ha":824,"x_min":0,"x_max":0,"o":"m 561 147 b 468 4 531 100 500 51 b 325 -132 429 -51 385 -100 b 86 -72 231 -182 144 -160 b 40 43 63 -37 49 3 b 18 381 21 154 0 267 b 25 556 28 438 24 497 b 44 643 25 586 28 617 b 132 653 67 682 108 689 b 179 497 164 607 181 554 b 158 453 179 479 172 461 b 115 336 111 425 115 381 b 149 90 115 253 128 171 b 176 21 156 67 164 42 b 274 4 203 -22 232 -28 b 350 90 304 28 328 58 b 569 617 460 250 532 426 b 593 694 575 643 579 671 b 649 728 606 715 624 729 b 704 685 676 726 694 710 b 708 594 715 656 713 624 b 694 29 689 406 696 218 b 718 -58 694 -1 703 -29 b 689 -154 740 -103 726 -140 b 597 -106 651 -168 611 -150 b 574 67 579 -50 572 8 b 574 146 575 93 574 119 b 561 147 569 147 565 147 "},"v":{"ha":981,"x_min":0,"x_max":0,"o":"m 442 -226 b 282 -132 367 -228 318 -187 b 169 99 235 -60 197 17 b 90 343 140 179 115 261 b 32 479 75 390 65 440 b 28 486 29 482 28 485 b 29 594 8 524 0 560 b 89 610 46 614 67 619 b 154 519 129 593 149 561 b 346 -22 175 324 243 144 b 511 -21 408 -125 449 -122 b 686 418 593 117 643 265 b 738 619 704 485 719 551 b 757 682 743 640 749 663 b 844 728 776 721 811 738 b 894 643 879 719 897 689 b 892 619 894 635 893 626 b 660 -37 831 394 769 169 b 571 -167 636 -85 608 -129 b 442 -226 533 -201 493 -229 "},"w":{"ha":1008,"x_min":0,"x_max":0,"o":"m 354 235 b 231 -46 301 133 267 43 b 169 -183 211 -92 193 -139 b 78 -237 151 -218 124 -247 b 14 -158 36 -229 19 -194 b 6 -51 8 -124 7 -86 b 40 588 0 163 14 375 b 88 676 46 624 46 661 b 140 658 108 683 126 674 b 174 547 168 626 200 582 b 113 211 94 443 119 325 b 113 75 110 168 113 124 b 146 119 140 81 139 104 b 214 271 169 169 189 221 b 344 382 242 325 271 383 b 476 269 417 381 447 324 b 567 82 508 208 536 144 b 668 -90 597 22 625 -37 b 733 -78 700 -129 717 -128 b 782 299 774 44 782 171 b 772 399 782 332 776 365 b 725 581 767 461 761 524 b 761 692 699 622 719 674 b 863 646 800 708 843 692 b 904 468 888 590 896 529 b 879 -60 925 292 924 115 b 822 -197 867 -108 851 -156 b 610 -218 765 -278 681 -286 b 497 -54 561 -172 528 -114 b 354 235 451 36 407 128 "},"x":{"ha":911,"x_min":0,"x_max":0,"o":"m 351 338 b 636 649 454 449 544 549 b 699 703 656 668 675 689 b 785 651 740 728 783 700 b 674 492 788 593 731 508 b 617 463 651 486 632 481 b 464 288 565 404 515 344 b 460 200 438 257 435 232 b 685 -46 531 114 601 29 b 751 -71 703 -62 722 -72 b 822 -125 806 -71 828 -90 b 736 -187 817 -161 775 -193 b 628 -129 693 -182 660 -157 b 433 74 557 -67 493 1 b 294 71 364 157 358 157 b 215 -87 260 24 215 -19 b 128 -140 215 -128 168 -150 b 78 -58 90 -132 71 -99 b 113 17 82 -29 97 -6 b 256 211 160 82 206 147 b 258 299 279 242 282 268 b 188 401 232 332 210 367 b 104 461 167 432 144 453 b 47 643 31 476 0 585 b 150 643 74 674 118 675 b 203 568 171 621 186 594 b 351 338 250 494 299 421 "},"y":{"ha":926,"x_min":0,"x_max":0,"o":"m 703 283 b 639 206 658 258 651 229 b 490 -4 594 132 549 60 b 351 -108 451 -49 407 -85 b 121 -37 260 -147 175 -122 b 38 196 74 33 51 113 b 19 418 25 269 17 343 b 10 568 21 468 22 518 b 43 689 0 613 6 657 b 106 688 63 704 88 703 b 143 560 146 654 158 604 b 125 371 122 497 124 435 b 169 128 126 288 140 206 b 213 47 181 99 196 72 b 307 28 240 11 267 7 b 392 107 342 47 368 76 b 603 464 476 218 543 338 b 651 550 617 494 631 525 b 776 532 692 600 750 590 b 799 401 794 490 793 444 b 792 -176 825 208 843 15 b 746 -318 779 -224 765 -272 b 488 -535 696 -433 604 -500 b 365 -501 440 -549 399 -537 b 344 -394 336 -471 331 -433 b 467 -358 367 -333 421 -312 b 558 -357 506 -396 529 -381 b 643 -244 596 -326 624 -289 b 703 96 689 -136 706 -22 b 703 283 701 154 703 211 "},"z":{"ha":917,"x_min":0,"x_max":0,"o":"m 294 -47 b 596 -28 404 -29 500 -37 b 738 -35 644 -24 690 -32 b 776 -47 750 -36 764 -42 b 814 -153 819 -71 833 -112 b 710 -185 794 -194 753 -212 b 575 -157 667 -157 621 -156 b 342 -172 497 -160 419 -157 b 226 -167 304 -179 265 -178 b 156 0 142 -140 114 -78 b 264 136 183 53 224 96 b 543 410 357 228 450 319 b 638 526 579 446 613 482 b 590 639 669 586 656 617 b 353 635 510 667 432 644 b 249 608 317 631 283 617 b 160 539 208 597 181 578 b 46 508 133 485 88 475 b 33 632 6 539 0 592 b 94 676 50 653 71 667 b 596 749 256 740 421 781 b 668 729 621 744 644 738 b 763 518 758 690 794 613 b 651 346 740 451 699 396 b 374 58 560 249 465 154 b 294 -47 347 31 318 6 "},"{":{"ha":613,"x_min":0,"x_max":0,"o":"m 357 1111 b 475 1083 393 1113 436 1110 b 510 976 515 1056 529 1011 b 407 951 490 943 454 935 b 322 882 315 985 307 978 b 349 660 333 808 349 736 b 258 446 347 576 326 501 b 243 376 233 425 224 407 b 268 231 271 332 269 282 b 263 -1 265 154 264 76 b 276 -92 263 -32 264 -62 b 383 -132 300 -150 328 -162 b 476 -128 415 -114 444 -106 b 508 -207 503 -147 515 -175 b 433 -278 500 -247 471 -268 b 139 -85 278 -319 164 -246 b 136 96 131 -25 125 35 b 143 246 144 144 140 196 b 85 346 144 292 126 325 b 49 367 72 353 60 358 b 57 488 0 406 4 458 b 119 511 76 499 99 503 b 225 660 201 543 222 574 b 200 890 229 739 210 814 b 192 949 197 910 193 929 b 357 1111 186 1064 232 1111 "},"|":{"ha":271,"x_min":0,"x_max":0,"o":"m 43 701 b 39 1008 44 804 58 906 b 51 1072 35 1031 40 1053 b 165 1078 78 1121 133 1124 b 183 1007 181 1057 188 1033 b 133 -19 142 667 138 324 b 143 -193 132 -78 132 -135 b 86 -287 153 -243 126 -281 b 8 -217 49 -292 19 -267 b 1 -143 3 -193 0 -168 b 42 444 14 53 31 249 b 43 701 47 529 43 615 "},"}":{"ha":613,"x_min":0,"x_max":0,"o":"m 172 -289 b 54 -261 136 -290 93 -287 b 19 -153 14 -233 0 -187 b 121 -128 39 -121 75 -111 b 207 -60 214 -161 221 -156 b 181 163 196 14 179 88 b 271 378 182 246 203 322 b 286 447 294 399 306 415 b 261 592 258 492 260 542 b 267 825 264 669 265 747 b 253 914 267 854 264 885 b 146 956 229 974 201 986 b 53 950 114 938 85 928 b 21 1031 26 969 14 997 b 94 1100 29 1069 57 1090 b 389 908 251 1142 365 1068 b 393 726 399 849 404 789 b 386 578 385 678 389 628 b 444 476 385 532 403 497 b 481 456 457 471 469 464 b 472 335 529 418 525 365 b 410 311 453 325 431 319 b 304 163 328 279 307 249 b 329 -68 300 85 319 10 b 336 -125 331 -87 336 -106 b 172 -289 343 -240 297 -287 "},"~":{"ha":772,"x_min":0,"x_max":0,"o":"m 481 107 b 342 168 426 104 382 133 b 249 250 310 194 282 225 b 151 215 199 286 171 274 b 60 149 132 154 101 132 b 22 269 18 165 0 219 b 251 372 57 351 167 400 b 397 279 308 353 353 317 b 544 293 468 218 488 221 b 571 325 553 304 560 317 b 653 332 596 347 624 354 b 679 251 681 313 689 285 b 481 107 656 176 561 107 "},"¡":{"ha":243,"x_min":0,"x_max":0,"o":"m 158 -361 b 157 -601 156 -442 150 -521 b 147 -700 160 -635 160 -668 b 85 -744 136 -728 117 -746 b 29 -703 57 -744 39 -728 b 18 -587 14 -665 8 -626 b 33 -399 33 -525 31 -462 b 44 -217 35 -337 36 -278 b 31 -44 51 -158 49 -101 b 67 36 19 -10 28 22 b 149 -14 101 49 136 28 b 157 -87 156 -37 157 -62 b 158 -361 158 -179 158 -269 m 1 242 b 74 308 4 279 38 310 b 142 228 113 306 144 267 b 75 167 138 194 108 167 b 1 242 35 167 0 204 "},"¢":{"ha":807,"x_min":0,"x_max":0,"o":"m 396 464 b 397 31 396 319 396 175 b 475 -17 397 -42 407 -47 b 593 60 518 1 557 28 b 696 67 635 96 668 96 b 686 -44 724 38 721 -8 b 521 -140 640 -92 579 -115 b 443 -168 496 -151 469 -160 b 410 -210 424 -175 408 -186 b 360 -285 411 -247 399 -276 b 282 -236 319 -292 296 -271 b 213 -185 269 -204 243 -193 b 6 78 72 -147 10 -65 b 204 565 0 269 79 428 b 263 669 232 597 260 624 b 283 732 264 690 274 713 b 358 772 299 761 324 778 b 410 714 390 767 411 743 b 481 585 407 654 440 622 b 564 364 542 526 561 446 b 506 286 567 318 542 290 b 426 354 468 282 436 308 b 396 464 419 392 429 432 m 288 485 b 118 39 182 415 83 190 b 199 -60 129 -6 156 -40 b 275 -15 249 -83 271 -71 b 282 167 278 46 275 107 b 288 485 293 269 288 372 "},"£":{"ha":890,"x_min":0,"x_max":0,"o":"m 183 253 b 82 211 144 226 117 207 b 11 260 49 214 22 228 b 42 339 0 294 14 322 b 132 381 69 356 100 371 b 179 463 175 393 188 419 b 144 783 161 568 153 676 b 154 900 142 824 146 863 b 301 947 171 982 238 1004 b 349 890 319 932 338 913 b 310 783 374 844 361 803 b 261 710 269 768 257 747 b 283 478 268 632 275 556 b 344 432 288 444 303 424 b 476 447 388 442 433 442 b 582 433 514 454 549 450 b 618 343 619 414 633 376 b 536 308 601 308 572 290 b 349 306 472 339 411 307 b 294 243 314 304 296 281 b 285 61 293 183 296 122 b 339 24 276 17 311 21 b 618 64 432 36 525 50 b 733 58 657 69 696 74 b 789 -44 785 40 807 0 b 686 -75 774 -83 735 -99 b 581 -58 651 -58 617 -54 b 278 -110 479 -71 378 -81 b 181 -151 243 -119 211 -132 b 61 -140 135 -182 86 -175 b 89 -25 36 -107 42 -56 b 183 253 190 42 190 136 "},"¤":{"ha":760,"x_min":0,"x_max":0,"o":"m 599 -26 b 582 -25 593 -26 586 -28 b 403 -29 521 17 463 -4 b 265 -24 357 -49 308 -42 b 151 -42 222 -6 185 -6 b 138 -51 147 -46 143 -49 b 26 -50 92 -82 51 -81 b 49 58 0 -19 6 19 b 79 165 83 90 99 118 b 82 344 56 225 61 286 b 56 464 100 393 92 431 b 36 490 47 471 42 481 b 47 581 18 524 18 556 b 131 581 75 604 110 606 b 322 519 183 519 257 538 b 411 503 350 511 382 514 b 500 526 446 490 475 496 b 549 572 514 543 531 558 b 640 574 578 593 610 599 b 646 476 667 551 676 497 b 603 282 565 422 581 357 b 603 208 610 260 608 232 b 647 85 588 154 589 114 b 665 10 674 71 676 39 b 599 -26 654 -19 628 -28 m 188 258 b 331 100 186 169 250 100 b 464 249 410 100 463 160 b 318 376 465 333 418 375 b 188 258 224 376 188 344 "},"¥":{"ha":1046,"x_min":0,"x_max":0,"o":"m 453 300 b 340 349 417 332 374 329 b 189 513 275 390 231 449 b 56 663 151 568 132 635 b 24 821 13 678 0 779 b 124 836 44 858 88 865 b 169 768 144 818 157 792 b 269 586 203 707 236 646 b 357 475 293 544 321 507 b 519 456 407 433 461 426 b 626 546 561 478 597 508 b 796 876 704 646 763 754 b 818 949 803 901 807 925 b 903 996 835 989 871 1007 b 949 903 940 985 963 946 b 897 763 935 854 915 808 b 789 547 869 686 833 615 b 624 374 744 479 690 421 b 596 326 608 363 590 350 b 644 306 603 303 625 307 b 726 294 672 304 700 306 b 774 186 775 271 794 229 b 658 150 751 138 706 124 b 600 168 639 161 625 183 b 593 146 592 164 590 154 b 650 124 604 118 629 125 b 740 90 685 124 717 117 b 754 0 765 64 776 33 b 668 -25 733 -32 704 -42 b 631 -8 656 -19 643 -10 b 593 -46 601 -1 588 -18 b 611 -90 596 -61 606 -75 b 578 -181 626 -132 613 -167 b 489 -142 543 -193 506 -179 b 468 -69 478 -119 472 -94 b 407 -32 461 -32 447 -12 b 375 -40 397 -36 385 -39 b 303 4 340 -43 314 -29 b 333 83 292 38 306 64 b 419 108 360 100 389 104 b 454 144 439 111 463 118 b 411 149 447 165 426 154 b 358 125 393 142 376 132 b 263 168 318 113 276 132 b 304 256 250 201 267 236 b 368 272 325 267 346 271 b 425 282 388 275 407 278 b 453 300 433 285 439 290 "},"¦":{"ha":242,"x_min":0,"x_max":0,"o":"m 14 560 b 25 701 17 608 19 656 b 19 883 33 763 40 824 b 15 915 17 893 15 904 b 83 994 17 960 47 996 b 150 921 115 993 147 961 b 147 879 151 907 147 893 b 129 458 147 739 113 600 b 90 394 133 426 122 401 b 19 438 56 386 31 404 b 14 560 7 478 15 519 m 0 -56 b 18 214 14 26 14 121 b 94 300 21 276 49 306 b 149 200 140 294 158 260 b 122 -106 132 99 122 -3 b 65 -199 122 -169 103 -199 b 0 -108 28 -199 3 -167 b 0 -56 0 -94 0 -81 "},"§":{"ha":774,"x_min":0,"x_max":0,"o":"m 194 278 b 92 328 156 297 122 310 b 51 518 14 376 0 444 b 103 574 67 539 83 557 b 444 754 203 658 315 722 b 510 764 467 758 488 763 b 664 574 625 772 690 719 b 604 515 657 540 639 515 b 535 575 565 514 544 539 b 446 625 517 646 517 646 b 190 493 353 597 263 561 b 207 404 144 449 147 425 b 415 347 275 382 346 367 b 542 308 458 336 501 329 b 579 174 604 276 622 229 b 589 64 544 128 553 101 b 590 -87 632 19 631 -33 b 364 -267 531 -167 447 -218 b 278 -242 329 -287 294 -272 b 306 -158 261 -212 269 -176 b 454 -65 358 -131 408 -101 b 442 15 501 -29 497 -8 b 318 64 401 33 360 47 b 228 106 288 76 256 88 b 194 278 150 153 142 199 m 426 213 b 404 235 424 226 414 232 b 340 251 383 240 363 246 b 304 243 328 254 311 258 b 317 208 296 229 307 217 b 382 176 335 190 358 182 b 426 213 413 169 418 193 "},"¨":{"ha":503,"x_min":0,"x_max":0,"o":"m 1 1075 b 85 1168 0 1128 33 1165 b 175 1082 136 1171 175 1135 b 86 981 175 1031 132 981 b 1 1075 42 979 4 1022 m 246 1075 b 329 1168 244 1128 278 1165 b 419 1082 381 1171 419 1135 b 331 981 419 1031 376 981 b 246 1075 286 979 249 1022 "},"©":{"ha":1079,"x_min":0,"x_max":0,"o":"m 471 -276 b 3 181 219 -275 8 -74 b 210 690 0 378 74 546 b 529 794 299 785 413 803 b 917 521 708 781 840 683 b 976 165 969 408 996 292 b 471 -276 940 -82 721 -276 m 833 276 b 744 535 831 351 811 451 b 443 649 668 633 564 669 b 300 619 396 642 354 606 b 253 589 281 624 267 603 b 111 183 153 472 103 336 b 482 -147 121 -1 308 -165 b 833 276 690 -125 835 38 m 472 -8 b 261 228 325 -10 236 97 b 417 474 282 331 328 415 b 535 503 453 497 492 508 b 642 367 600 496 649 431 b 599 311 638 340 625 319 b 525 333 569 301 543 308 b 507 371 517 344 513 358 b 460 379 494 397 478 393 b 375 182 397 328 368 263 b 465 119 381 135 413 113 b 621 172 521 126 571 147 b 672 199 638 182 654 193 b 757 164 708 207 739 200 b 735 76 775 129 763 100 b 644 35 708 54 676 47 b 472 -8 585 13 522 1 "},"ª":{"ha":581,"x_min":0,"x_max":0,"o":"m 314 924 b 263 869 285 915 278 888 b 161 786 232 838 203 804 b 22 838 103 761 50 781 b 1 925 8 864 0 894 b 86 1242 10 1036 31 1144 b 146 1311 101 1268 121 1292 b 231 1332 171 1329 200 1343 b 342 1363 278 1314 308 1321 b 432 1335 368 1396 418 1376 b 431 1253 442 1307 433 1279 b 432 988 419 1164 419 1076 b 469 890 438 953 443 919 b 464 803 497 857 492 825 b 372 810 438 782 400 785 b 339 865 356 825 347 844 b 314 924 331 885 335 910 m 125 919 b 240 1124 190 985 214 1056 b 228 1186 250 1147 238 1167 b 182 1190 215 1208 196 1213 b 125 919 132 1113 115 1026 "},"«":{"ha":1347,"x_min":0,"x_max":0,"o":"m 554 376 b 497 381 536 388 517 383 b 207 283 396 363 301 325 b 176 250 193 276 174 271 b 207 224 179 233 196 231 b 347 174 249 196 300 186 b 618 106 436 150 522 108 b 685 44 658 106 685 78 b 619 -18 683 4 657 -12 b 571 -18 604 -21 586 -24 b 139 126 426 26 276 57 b 96 149 125 133 110 140 b 94 361 1 210 0 300 b 347 464 172 410 260 439 b 535 503 408 481 472 492 b 600 504 556 507 578 507 b 664 422 644 497 671 461 b 569 369 657 379 619 358 b 554 376 564 371 560 375 m 1133 376 b 1076 381 1115 388 1096 383 b 786 283 975 363 881 325 b 756 250 772 276 753 271 b 786 224 758 233 775 231 b 926 174 828 196 879 186 b 1197 106 1015 150 1101 108 b 1264 44 1238 106 1264 78 b 1199 -18 1263 4 1236 -12 b 1150 -18 1183 -21 1165 -24 b 718 126 1006 26 856 57 b 675 149 704 133 689 140 b 674 361 581 210 579 300 b 926 464 751 410 839 439 b 1114 503 988 481 1051 492 b 1179 504 1135 507 1157 507 b 1243 422 1224 497 1250 461 b 1149 369 1236 379 1199 358 b 1133 376 1143 371 1139 375 "},"¬":{"ha":835,"x_min":0,"x_max":0,"o":"m 376 360 b 114 331 289 361 200 360 b 43 342 90 322 65 326 b 50 449 0 372 3 425 b 171 474 88 468 131 467 b 493 501 278 493 385 506 b 575 490 521 500 549 497 b 740 258 693 461 751 379 b 721 44 733 188 713 118 b 665 -18 724 10 699 -12 b 592 36 635 -24 600 1 b 594 160 582 78 586 119 b 606 285 603 201 608 243 b 535 358 603 336 586 354 b 376 360 482 363 429 360 "},"®":{"ha":969,"x_min":0,"x_max":0,"o":"m 450 1521 b 881 1075 692 1518 886 1321 b 429 643 874 793 640 635 b 1 1083 190 653 0 843 b 450 1521 3 1325 208 1524 m 431 771 b 747 1086 567 758 744 879 b 435 1397 749 1256 606 1389 b 111 1083 222 1408 108 1219 b 431 771 114 903 268 763 m 499 1086 b 581 1067 526 1060 551 1061 b 672 1013 640 1075 669 1056 b 585 931 674 968 635 931 b 521 944 564 932 542 939 b 465 963 501 950 483 957 b 408 913 396 983 393 981 b 350 814 419 858 397 818 b 279 896 308 811 279 840 b 288 1103 279 965 282 1035 b 281 1258 292 1156 301 1206 b 339 1353 265 1300 292 1335 b 529 1301 400 1375 488 1351 b 529 1132 567 1256 567 1197 b 499 1086 521 1118 510 1104 "},"¯":{"ha":528,"x_min":0,"x_max":0,"o":"m 214 1147 b 339 1147 256 1147 297 1149 b 414 1117 368 1147 393 1138 b 426 1033 438 1093 444 1064 b 357 1004 411 1006 385 994 b 86 1015 267 1035 176 1022 b 6 1065 38 1011 10 1029 b 65 1142 0 1101 22 1136 b 214 1143 114 1147 165 1143 b 214 1147 214 1144 214 1146 "},"°":{"ha":481,"x_min":0,"x_max":0,"o":"m 188 1265 b 396 1083 307 1261 397 1183 b 182 883 394 975 293 879 b 6 1083 78 886 0 975 b 188 1265 10 1194 85 1268 m 196 1093 b 135 1069 176 1083 136 1118 b 188 1018 133 1039 156 1019 b 251 1081 218 1017 258 1054 b 196 1093 242 1114 215 1092 "},"±":{"ha":764,"x_min":0,"x_max":0,"o":"m 388 217 b 406 140 386 192 393 167 b 386 61 421 110 417 81 b 299 85 358 43 325 51 b 265 201 272 119 264 160 b 158 269 269 292 256 294 b 106 246 140 264 124 250 b 8 300 61 235 17 260 b 71 382 0 339 24 374 b 218 400 119 392 168 397 b 278 461 260 403 279 421 b 279 561 278 494 278 528 b 288 618 281 581 281 600 b 400 635 308 669 365 679 b 422 526 424 603 438 567 b 407 488 418 513 411 500 b 457 415 396 439 408 421 b 572 401 496 410 533 406 b 635 381 594 400 615 394 b 663 278 668 357 681 313 b 569 253 644 246 608 232 b 460 289 533 271 499 285 b 388 217 400 296 388 282 m 460 -132 b 158 -151 400 -125 256 -126 b 106 -175 140 -157 124 -171 b 8 -121 61 -186 17 -161 b 71 -39 0 -82 24 -47 b 218 -21 119 -29 168 -24 b 457 -6 260 -18 408 0 b 572 -19 496 -11 533 -15 b 635 -40 594 -21 615 -26 b 663 -143 668 -64 681 -108 b 569 -168 644 -175 608 -189 b 460 -132 533 -150 499 -136 "},"²":{"ha":446,"x_min":0,"x_max":0,"o":"m 233 918 b 318 917 269 918 294 921 b 360 863 346 913 360 890 b 325 811 361 838 349 818 b 97 763 250 793 174 774 b 29 867 36 754 0 811 b 106 976 50 906 79 940 b 235 1207 160 1047 207 1122 b 232 1261 240 1225 251 1246 b 171 1256 211 1279 190 1265 b 126 1208 150 1246 140 1225 b 39 1190 103 1179 74 1167 b 18 1279 10 1210 3 1244 b 297 1364 56 1358 224 1408 b 356 1218 353 1329 363 1276 b 281 1017 346 1146 318 1079 b 233 918 264 989 242 963 "},"³":{"ha":435,"x_min":0,"x_max":0,"o":"m 164 1253 b 99 1224 129 1257 119 1232 b 14 1253 65 1211 28 1222 b 38 1332 0 1285 7 1317 b 253 1375 106 1368 178 1390 b 314 1238 329 1360 351 1304 b 214 1115 288 1192 249 1154 b 233 1051 183 1079 188 1068 b 336 956 281 1033 331 1017 b 253 832 342 893 297 861 b 126 768 213 807 171 783 b 29 806 81 754 43 769 b 81 894 15 843 35 878 b 157 926 107 904 136 903 b 113 956 153 951 128 947 b 71 1132 31 1000 17 1054 b 118 1190 85 1153 101 1171 b 164 1253 132 1210 157 1221 "},"´":{"ha":465,"x_min":0,"x_max":0,"o":"m 67 875 b 7 950 29 875 0 913 b 49 1022 13 979 29 1001 b 244 1236 114 1093 178 1167 b 350 1253 285 1279 321 1283 b 336 1136 382 1219 379 1164 b 131 921 251 1079 194 997 b 67 875 113 899 96 878 "},"µ":{"ha":824,"x_min":0,"x_max":0,"o":"m 119 401 b 149 90 113 285 122 182 b 176 21 156 67 164 43 b 274 4 201 -22 233 -28 b 350 90 303 29 329 58 b 569 617 460 250 533 426 b 572 626 571 619 571 622 b 593 694 575 650 582 674 b 649 728 606 717 624 728 b 704 685 675 725 694 711 b 708 594 713 656 714 625 b 694 179 696 457 692 318 l 694 29 b 718 -58 694 -1 703 -31 b 689 -154 739 -106 729 -137 b 635 -151 669 -161 651 -160 b 597 -106 617 -143 604 -128 b 574 67 579 -50 572 7 b 575 121 575 85 575 103 b 574 146 574 129 574 138 b 565 147 571 147 568 147 l 561 147 b 533 104 551 133 543 119 b 468 4 513 69 490 36 b 325 -132 431 -53 383 -99 b 133 -124 250 -169 186 -167 l 133 -133 b 135 -279 135 -182 135 -231 b 161 -344 136 -304 146 -326 b 167 -354 163 -347 165 -350 b 160 -422 182 -379 181 -401 b 83 -435 138 -443 113 -447 b 29 -365 54 -419 36 -397 b 11 -243 18 -325 13 -285 l 11 32 l 10 32 l 10 306 b 14 342 10 319 11 331 b 18 381 15 354 17 368 b 25 507 24 422 26 464 l 25 556 b 44 643 24 588 31 617 b 88 676 57 663 71 674 b 132 653 104 678 119 671 b 179 497 164 607 179 554 b 158 453 179 478 172 463 b 121 406 138 440 125 424 b 119 401 121 404 121 403 "},"¶":{"ha":919,"x_min":0,"x_max":0,"o":"m 400 36 b 407 140 403 68 404 104 b 342 217 413 203 408 210 b 164 254 281 222 222 235 b 82 292 135 263 107 276 b 36 474 17 335 0 404 b 125 571 57 514 89 546 b 515 693 243 650 372 694 b 774 446 668 690 763 600 b 813 315 778 400 772 354 b 803 235 836 293 831 254 b 754 126 764 206 760 168 b 740 -104 744 50 729 -26 b 704 -183 744 -137 731 -164 b 596 -139 660 -215 604 -192 b 607 -40 592 -106 600 -74 b 646 146 619 22 635 83 b 619 214 651 172 658 204 b 526 165 581 222 531 199 b 511 -42 519 96 503 28 b 517 -74 513 -53 515 -62 b 481 -140 522 -106 513 -131 b 410 -100 444 -151 422 -131 b 400 36 392 -57 404 -12 m 433 440 b 433 465 433 449 433 457 b 353 525 432 532 415 544 b 206 451 300 508 250 486 b 213 372 156 414 157 396 b 306 343 242 360 274 351 b 433 440 417 314 431 325 m 539 397 b 622 318 539 319 560 299 b 663 379 653 328 668 347 b 642 483 657 414 651 450 b 603 535 636 506 622 524 b 558 519 582 546 564 546 b 539 397 550 479 546 438 "},"·":{"ha":229,"x_min":0,"x_max":0,"o":"m 76 478 b 146 411 115 476 144 447 b 71 339 146 372 108 338 b 3 417 32 340 0 378 b 76 478 7 454 38 479 "},"∙":{"ha":229,"x_min":0,"x_max":0,"o":"m 76 478 b 3 417 38 479 7 454 b 71 339 0 378 32 340 b 146 411 108 338 146 372 b 76 478 144 447 115 476 "},"¸":{"ha":467,"x_min":0,"x_max":0,"o":"m 382 -350 b 344 -440 383 -386 367 -414 b 154 -571 292 -499 225 -539 b 106 -581 139 -578 121 -579 b 33 -525 65 -581 39 -558 b 86 -453 28 -492 49 -460 b 239 -392 142 -443 193 -424 b 246 -318 275 -365 278 -349 b 88 -212 199 -275 147 -239 b 49 -199 75 -207 61 -206 b 13 -115 14 -179 0 -147 b 103 -85 26 -82 65 -64 b 353 -275 197 -133 283 -193 b 382 -350 371 -296 382 -322 "},"¹":{"ha":314,"x_min":0,"x_max":0,"o":"m 211 1099 b 221 851 214 1017 196 933 b 181 781 231 818 214 792 b 103 825 149 769 117 786 b 92 1029 81 892 88 961 b 99 1088 93 1049 97 1068 b 67 1147 101 1114 93 1131 b 40 1274 3 1185 0 1213 b 86 1332 54 1294 69 1314 b 167 1363 107 1357 133 1374 b 211 1289 200 1350 211 1322 b 211 1099 211 1226 211 1163 "},"º":{"ha":499,"x_min":0,"x_max":0,"o":"m 415 1103 b 329 864 415 1006 386 929 b 160 797 285 814 228 783 b 24 929 88 811 44 861 b 22 1142 0 1000 7 1071 b 31 1240 31 1175 36 1206 b 110 1361 18 1308 43 1344 b 407 1175 236 1394 383 1303 b 415 1103 413 1147 414 1119 m 111 1067 b 136 950 110 1022 114 983 b 213 936 157 918 183 914 b 269 1179 275 981 304 1111 b 215 1228 257 1201 240 1218 b 172 1219 199 1235 182 1236 b 111 1067 142 1171 100 1126 "},"»":{"ha":1347,"x_min":0,"x_max":0,"o":"m 710 108 b 767 104 728 97 747 101 b 1057 201 868 122 963 160 b 1088 235 1071 208 1090 214 b 1057 261 1085 251 1068 253 b 917 311 1014 289 964 299 b 646 379 828 335 740 375 b 579 439 606 379 579 407 b 643 503 581 479 607 497 b 693 503 660 506 678 508 b 1125 358 838 458 988 426 b 1168 336 1139 351 1154 344 b 1169 124 1263 275 1264 185 b 917 21 1092 75 1004 46 b 729 -18 856 4 792 -7 b 664 -19 708 -22 685 -22 b 600 63 619 -12 593 24 b 694 114 606 106 644 126 b 710 108 700 114 704 110 m 131 108 b 188 104 149 97 168 101 b 478 201 289 122 383 160 b 508 235 492 208 511 214 b 478 261 506 251 489 253 b 338 311 435 289 385 299 b 67 379 249 335 161 375 b 0 439 26 379 0 407 b 64 503 1 479 28 497 b 114 503 81 506 99 508 b 546 358 258 458 408 426 b 589 336 560 351 575 344 b 590 124 683 275 685 185 b 338 21 513 75 425 46 b 150 -18 276 4 213 -7 b 85 -19 129 -22 106 -22 b 21 63 40 -12 14 24 b 115 114 26 106 65 126 b 131 108 121 114 125 110 "},"¼":{"ha":946,"x_min":0,"x_max":0,"o":"m 803 926 b 781 872 801 904 793 888 b 151 -76 553 568 347 250 b 121 -135 140 -96 131 -115 b 32 -183 94 -186 64 -203 b 28 -89 3 -165 0 -136 b 214 217 89 14 151 115 b 613 860 346 432 481 644 b 672 969 635 894 650 933 b 758 997 692 1000 722 1013 b 803 926 790 983 801 957 m 711 -67 b 642 -71 683 -54 664 -65 b 453 -28 572 -86 510 -65 b 429 108 399 8 389 58 b 589 276 478 168 533 224 b 690 265 622 308 661 301 b 713 222 700 253 706 236 b 739 242 726 222 732 233 b 824 257 764 265 793 272 b 857 179 856 242 863 211 b 850 -168 839 64 833 -51 b 794 -240 854 -206 829 -235 b 722 -186 763 -244 729 -224 b 711 -67 714 -146 714 -104 m 269 779 b 272 493 286 675 250 585 b 231 432 281 464 260 440 b 161 464 199 422 175 439 b 139 553 146 490 142 522 b 138 651 138 585 136 618 b 96 735 138 688 129 713 b 63 860 39 772 33 801 b 124 960 81 894 101 928 b 210 996 143 990 174 1003 b 269 924 249 988 267 958 b 269 779 274 872 269 819 "},"½":{"ha":942,"x_min":0,"x_max":0,"o":"m 771 908 b 743 844 765 883 760 861 b 503 479 639 739 578 604 b 179 -119 385 286 281 83 b 83 -186 147 -183 114 -201 b 82 -71 47 -169 47 -135 b 619 921 261 260 440 590 b 646 963 628 935 636 950 b 726 988 668 986 693 1003 b 771 908 763 971 772 942 m 607 96 b 501 190 522 118 499 142 b 611 297 504 243 551 289 b 765 119 728 314 800 232 b 700 -31 749 68 722 18 b 764 -36 722 -57 744 -36 b 857 -108 821 -37 857 -64 b 774 -178 858 -151 832 -176 b 601 -203 714 -178 658 -190 b 489 -175 558 -212 518 -215 b 510 -54 457 -129 482 -92 b 607 96 544 -8 579 36 m 226 818 b 222 556 235 731 199 643 b 176 488 231 522 211 496 b 97 531 139 478 111 496 b 90 686 78 581 83 635 b 46 793 97 733 99 772 b 35 806 40 796 38 801 b 53 933 0 854 26 894 b 174 1017 82 976 107 1029 b 225 950 208 1010 224 985 b 226 818 226 907 226 863 "},"¾":{"ha":950,"x_min":0,"x_max":0,"o":"m 807 931 b 789 885 806 913 800 897 b 528 490 681 767 610 625 b 206 -62 417 308 313 122 b 176 -140 192 -87 186 -114 b 92 -183 160 -182 124 -199 b 65 -92 58 -169 43 -133 b 174 94 97 -28 135 33 b 651 922 346 364 493 646 b 685 979 661 942 669 964 b 758 1001 703 1001 728 1014 b 807 931 789 988 806 964 m 701 -49 b 622 -65 671 -37 647 -58 b 499 -76 581 -78 540 -81 b 422 58 421 -69 388 -11 b 494 171 442 99 471 133 b 550 254 513 199 531 226 b 654 286 582 299 621 310 b 651 178 686 263 692 211 b 576 69 621 151 599 117 b 668 147 628 82 649 115 b 719 242 686 178 701 211 b 804 275 739 272 768 289 b 843 193 842 261 851 229 b 831 -6 829 128 831 61 b 847 -119 831 -44 833 -82 b 800 -224 867 -169 843 -214 b 714 -154 758 -233 726 -207 b 701 -49 706 -119 718 -82 m 158 644 b 192 896 67 751 69 774 b 118 868 158 901 140 881 b 18 889 75 844 36 854 b 57 986 0 924 14 965 b 258 1026 121 1014 188 1033 b 333 856 360 1017 393 939 b 313 829 328 846 319 839 b 261 767 296 808 264 794 b 307 711 258 739 292 729 b 282 544 350 654 342 588 b 128 489 236 511 183 493 b 36 553 75 485 40 511 b 114 631 33 593 60 621 b 158 644 128 633 142 631 "},"¿":{"ha":928,"x_min":0,"x_max":0,"o":"m 421 -810 b 642 -740 483 -806 567 -787 b 664 -644 692 -710 693 -700 b 671 -560 647 -614 646 -585 b 763 -553 697 -533 731 -535 b 807 -744 824 -587 844 -676 b 721 -832 788 -782 756 -808 b 265 -912 581 -922 425 -937 b 106 -829 204 -903 150 -874 b 31 -557 26 -753 0 -664 b 189 -306 60 -458 125 -382 b 351 -128 242 -244 297 -187 b 415 43 393 -79 429 -29 b 479 124 406 89 436 119 b 568 65 521 129 556 107 b 564 -15 576 39 572 11 b 440 -229 542 -99 494 -165 b 226 -474 369 -311 292 -386 b 163 -579 201 -507 176 -540 b 215 -761 133 -653 151 -714 b 421 -810 261 -796 319 -811 m 419 239 b 494 311 419 278 456 313 b 571 238 532 311 569 274 b 494 167 572 203 533 167 b 419 239 457 165 421 201 "},"À":{"ha":1032,"x_min":0,"x_max":0,"o":"m 949 275 b 919 218 947 251 939 229 b 883 119 875 196 876 161 b 936 -121 899 39 886 -47 b 918 -179 949 -140 939 -165 b 850 -178 896 -197 872 -196 b 814 -106 826 -160 819 -133 b 782 167 796 -15 785 75 b 706 257 781 243 778 247 b 275 233 561 274 418 250 b 226 175 242 229 232 204 b 175 -18 214 110 197 44 b 124 -101 164 -49 151 -81 b 39 -107 97 -121 67 -126 b 24 -26 8 -86 7 -54 b 67 82 44 8 60 43 b 39 207 75 128 88 169 b 58 308 0 238 11 289 b 129 410 107 329 121 365 b 251 815 160 549 192 686 b 364 989 281 879 313 940 b 661 996 457 1079 563 1081 b 776 826 714 950 751 893 b 857 428 825 697 844 564 b 910 335 861 388 865 353 b 949 275 933 325 946 301 m 763 411 b 654 819 743 551 722 692 b 583 910 636 854 615 886 b 464 906 539 943 506 942 b 393 813 435 879 413 847 b 265 403 322 685 293 543 b 314 350 257 358 269 343 b 679 363 436 368 558 358 b 721 364 693 363 707 363 b 763 411 753 364 767 381 m 651 1122 b 588 1168 622 1125 606 1146 b 382 1383 524 1244 467 1326 b 367 1500 339 1411 336 1467 b 474 1483 396 1531 433 1526 b 669 1269 540 1414 604 1340 b 711 1197 688 1249 706 1226 b 651 1122 718 1160 689 1122 "},"Á":{"ha":1032,"x_min":0,"x_max":0,"o":"m 949 275 b 919 218 947 251 939 229 b 883 119 875 196 876 161 b 936 -121 899 39 886 -47 b 918 -179 949 -140 939 -165 b 850 -178 896 -197 872 -196 b 814 -106 826 -160 819 -133 b 782 167 796 -15 785 75 b 706 257 781 243 778 247 b 275 233 561 274 418 250 b 226 175 242 229 232 204 b 175 -18 214 110 197 44 b 124 -101 164 -49 151 -81 b 39 -107 97 -121 67 -126 b 24 -26 8 -86 7 -54 b 67 82 44 8 60 43 b 39 207 75 128 88 169 b 58 308 0 238 11 289 b 129 410 107 329 121 365 b 251 815 160 549 192 686 b 364 989 281 879 313 940 b 661 996 457 1079 563 1081 b 776 826 714 950 751 893 b 857 428 825 697 844 564 b 910 335 861 388 865 353 b 949 275 933 325 946 301 m 763 411 b 654 819 743 551 722 692 b 583 910 636 854 615 886 b 464 906 539 943 506 942 b 393 813 435 879 413 847 b 265 403 322 685 293 543 b 314 350 257 358 269 343 b 679 363 436 368 558 358 b 721 364 693 363 707 363 b 763 411 753 364 767 381 m 365 1124 b 306 1199 328 1124 299 1161 b 347 1271 311 1228 328 1250 b 543 1485 413 1342 476 1415 b 649 1501 583 1528 619 1532 b 635 1385 681 1468 678 1413 b 429 1169 550 1328 493 1246 b 365 1124 411 1147 394 1126 "},"Â":{"ha":1032,"x_min":0,"x_max":0,"o":"m 949 275 b 919 218 947 251 939 229 b 883 119 875 196 876 161 b 936 -121 899 39 886 -47 b 918 -179 949 -140 939 -165 b 850 -178 896 -197 872 -196 b 814 -106 826 -160 819 -133 b 782 167 796 -15 785 75 b 706 257 781 243 778 247 b 275 233 561 274 418 250 b 226 175 242 229 232 204 b 175 -18 214 110 197 44 b 124 -101 164 -49 151 -81 b 39 -107 97 -121 67 -126 b 24 -26 8 -86 7 -54 b 67 82 44 8 60 43 b 39 207 75 128 88 169 b 58 308 0 238 11 289 b 129 410 107 329 121 365 b 251 815 160 549 192 686 b 364 989 281 879 313 940 b 661 996 457 1079 563 1081 b 776 826 714 950 751 893 b 857 428 825 697 844 564 b 910 335 861 388 865 353 b 949 275 933 325 946 301 m 763 411 b 654 819 743 551 722 692 b 583 910 636 854 615 886 b 464 906 539 943 506 942 b 393 813 435 879 413 847 b 265 403 322 685 293 543 b 314 350 257 358 269 343 b 679 363 436 368 558 358 b 721 364 693 363 707 363 b 763 411 753 364 767 381 m 803 1190 b 696 1122 806 1139 750 1103 b 638 1167 672 1129 654 1147 b 544 1283 606 1204 576 1244 b 406 1288 486 1360 474 1360 b 322 1175 374 1253 350 1213 b 206 1169 288 1126 235 1126 b 203 1247 188 1194 185 1224 b 378 1433 254 1315 303 1388 b 586 1407 457 1482 521 1474 b 644 1338 607 1385 625 1360 b 760 1246 678 1299 708 1260 b 803 1190 786 1239 801 1218 "},"Ã":{"ha":1032,"x_min":0,"x_max":0,"o":"m 949 275 b 919 218 947 251 939 229 b 883 119 875 196 876 161 b 936 -121 899 39 886 -47 b 918 -179 949 -140 939 -165 b 850 -178 896 -197 872 -196 b 814 -106 826 -160 819 -133 b 782 167 796 -15 785 75 b 706 257 781 243 778 247 b 275 233 561 274 418 250 b 226 175 242 229 232 204 b 175 -18 214 110 197 44 b 124 -101 164 -49 151 -81 b 39 -107 97 -121 67 -126 b 24 -26 8 -86 7 -54 b 67 82 44 8 60 43 b 39 207 75 128 88 169 b 58 308 0 238 11 289 b 129 410 107 329 121 365 b 251 815 160 549 192 686 b 364 989 281 879 313 940 b 661 996 457 1079 563 1081 b 776 826 714 950 751 893 b 857 428 825 697 844 564 b 910 335 861 388 865 353 b 949 275 933 325 946 301 m 763 411 b 654 819 743 551 722 692 b 583 910 636 854 615 886 b 464 906 539 943 506 942 b 393 813 435 879 413 847 b 265 403 322 685 293 543 b 314 350 257 358 269 343 b 679 363 436 368 558 358 b 721 364 693 363 707 363 b 763 411 753 364 767 381 m 625 1121 b 486 1182 571 1118 526 1147 b 393 1264 454 1208 426 1239 b 296 1229 343 1300 315 1288 b 204 1163 276 1168 246 1146 b 167 1283 163 1179 144 1233 b 396 1386 201 1365 311 1414 b 542 1293 453 1367 497 1331 b 689 1307 613 1232 632 1235 b 715 1339 697 1318 704 1331 b 797 1346 740 1361 768 1368 b 824 1265 825 1326 833 1299 b 625 1121 800 1190 706 1121 "},"Ä":{"ha":1032,"x_min":0,"x_max":0,"o":"m 949 275 b 919 218 947 251 939 229 b 883 119 875 196 876 161 b 936 -121 899 39 886 -47 b 918 -179 949 -140 939 -165 b 850 -178 896 -197 872 -196 b 814 -106 826 -160 819 -133 b 782 167 796 -15 785 75 b 706 257 781 243 778 247 b 275 233 561 274 418 250 b 226 175 242 229 232 204 b 175 -18 214 110 197 44 b 124 -101 164 -49 151 -81 b 39 -107 97 -121 67 -126 b 24 -26 8 -86 7 -54 b 67 82 44 8 60 43 b 39 207 75 128 88 169 b 58 308 0 238 11 289 b 129 410 107 329 121 365 b 251 815 160 549 192 686 b 364 989 281 879 313 940 b 661 996 457 1079 563 1081 b 776 826 714 950 751 893 b 857 428 825 697 844 564 b 910 335 861 388 865 353 b 949 275 933 325 946 301 m 763 411 b 654 819 743 551 722 692 b 583 910 636 854 615 886 b 464 906 539 943 506 942 b 393 813 435 879 413 847 b 265 403 322 685 293 543 b 314 350 257 358 269 343 b 679 363 436 368 558 358 b 721 364 693 363 707 363 b 763 411 753 364 767 381 m 296 1236 b 379 1329 294 1289 328 1326 b 469 1243 431 1332 469 1296 b 381 1142 469 1192 426 1142 b 296 1236 336 1140 299 1183 m 540 1236 b 624 1329 539 1289 572 1326 b 714 1243 675 1332 714 1296 b 625 1142 714 1192 671 1142 b 540 1236 581 1140 543 1183 "},"Å":{"ha":1032,"x_min":0,"x_max":0,"o":"m 949 275 b 919 218 947 251 939 229 b 883 119 875 196 876 161 b 936 -121 899 39 886 -47 b 918 -179 949 -140 939 -165 b 850 -178 896 -197 872 -196 b 814 -106 826 -160 819 -133 b 782 167 796 -15 785 75 b 706 257 781 243 778 247 b 275 233 561 274 418 250 b 226 175 242 229 232 204 b 175 -18 214 110 197 44 b 124 -101 164 -49 151 -81 b 39 -107 97 -121 67 -126 b 24 -26 8 -86 7 -54 b 67 82 44 8 60 43 b 39 207 75 128 88 169 b 58 308 0 238 11 289 b 129 410 107 329 121 365 b 251 815 160 549 192 686 b 364 989 281 879 313 940 b 661 996 457 1079 563 1081 b 776 826 714 950 751 893 b 857 428 825 697 844 564 b 910 335 861 388 865 353 b 949 275 933 325 946 301 m 763 411 b 654 819 743 551 722 692 b 583 910 636 854 615 886 b 464 906 539 943 506 942 b 393 813 435 879 413 847 b 265 403 322 685 293 543 b 314 350 257 358 269 343 b 679 363 436 368 558 358 b 721 364 693 363 707 363 b 763 411 753 364 767 381 m 504 1544 b 713 1363 624 1540 714 1463 b 499 1163 711 1254 610 1158 b 322 1363 394 1165 317 1254 b 504 1544 326 1474 401 1547 m 513 1372 b 451 1349 493 1363 453 1397 b 504 1297 450 1318 472 1299 b 568 1360 535 1296 575 1333 b 513 1372 558 1393 532 1371 "},"Æ":{"ha":1735,"x_min":0,"x_max":0,"o":"m 763 411 b 726 621 753 482 742 551 b 654 819 711 689 688 756 b 583 910 638 854 614 885 b 464 906 543 943 503 942 b 393 813 435 879 411 847 b 314 613 358 749 332 682 b 265 403 294 543 278 474 b 314 350 256 360 271 343 b 557 361 394 360 475 364 b 679 363 597 361 639 361 l 701 363 b 721 364 708 363 714 363 b 763 411 753 365 767 381 m 942 -140 b 940 -151 942 -144 942 -149 b 918 -179 936 -162 928 -172 b 850 -178 894 -196 872 -196 b 825 -144 838 -168 829 -157 b 814 -106 821 -132 817 -119 b 782 167 796 -15 785 75 b 771 238 783 204 779 228 b 706 257 761 247 740 254 b 518 260 643 264 581 264 b 331 240 456 256 393 249 b 275 233 313 238 293 235 b 240 214 258 231 247 224 b 226 175 233 203 228 190 b 175 -18 214 110 197 44 b 124 -101 165 -51 149 -79 b 39 -107 96 -124 68 -125 b 24 -26 10 -83 6 -57 b 67 82 44 8 60 44 b 68 93 68 86 68 89 b 74 153 74 114 75 133 b 39 207 72 171 60 189 b 17 263 19 224 13 242 b 58 308 21 282 35 297 b 110 351 82 319 100 333 b 129 410 119 368 125 388 b 251 815 156 550 196 685 b 364 989 278 881 315 938 b 661 996 460 1079 560 1081 b 765 853 707 956 742 908 b 831 935 769 894 790 921 b 957 972 871 951 914 964 b 1325 1010 1072 996 1194 1008 b 1511 993 1382 1013 1443 1007 b 1518 992 1514 992 1517 992 b 1624 947 1558 988 1593 974 b 1651 888 1642 929 1650 908 b 1628 828 1651 865 1643 846 b 1521 835 1594 793 1558 796 b 1450 872 1501 856 1478 868 b 1260 885 1386 885 1322 889 b 1071 861 1197 881 1133 872 b 986 771 1022 851 994 821 b 969 585 976 708 971 647 b 965 522 968 564 967 543 b 1010 481 964 488 978 474 b 1126 492 1047 488 1086 492 b 1224 500 1158 493 1192 496 b 1425 511 1290 510 1357 514 l 1489 511 b 1567 486 1518 513 1544 504 b 1589 404 1594 465 1601 438 b 1521 369 1574 376 1551 365 b 1483 376 1508 371 1496 374 b 1422 386 1464 382 1443 385 b 1010 351 1283 385 1146 372 b 954 292 974 347 956 328 b 1003 0 950 190 965 93 b 1182 -94 1036 -81 1096 -112 b 1354 -36 1243 -85 1300 -65 b 1410 -18 1371 -26 1389 -19 b 1471 -47 1436 -18 1457 -28 b 1476 -115 1483 -67 1486 -89 b 1438 -157 1469 -135 1456 -149 b 1267 -218 1382 -183 1325 -204 b 1085 -224 1208 -233 1147 -235 b 942 -140 1025 -212 978 -185 m 850 513 b 856 551 853 525 854 538 l 856 554 b 865 676 860 594 864 636 b 869 744 867 700 868 722 b 838 782 871 768 861 781 b 785 801 814 783 797 789 b 850 513 817 707 838 611 "},"Ç":{"ha":915,"x_min":0,"x_max":0,"o":"m 383 -168 b 314 -160 360 -167 338 -164 b 97 -36 224 -142 151 -101 b 3 201 42 29 10 108 b 1 253 1 219 1 236 l 1 276 b 236 865 8 501 86 697 b 424 983 288 922 350 963 b 656 885 525 1006 601 972 b 639 774 679 836 674 799 b 536 801 604 756 571 764 b 526 815 532 806 529 811 b 518 828 524 819 521 824 b 474 864 503 849 488 860 b 418 851 460 867 442 863 b 343 800 389 839 364 821 b 113 240 186 646 108 458 b 200 28 117 147 146 76 b 404 -40 254 -21 322 -43 b 564 -22 458 -39 513 -32 b 710 43 615 -12 664 10 b 801 39 742 67 772 65 b 810 -60 829 10 832 -22 b 729 -117 789 -87 763 -107 b 592 -156 683 -133 639 -147 b 679 -240 624 -182 651 -210 b 708 -315 697 -261 707 -286 b 671 -406 708 -350 696 -381 b 481 -536 617 -462 553 -506 b 432 -546 465 -543 449 -546 b 360 -490 390 -544 367 -526 b 369 -444 357 -474 360 -458 b 413 -418 379 -431 393 -422 b 565 -357 468 -408 519 -389 b 572 -283 603 -335 604 -310 b 414 -178 526 -239 474 -204 l 397 -172 b 383 -168 393 -171 388 -169 "},"È":{"ha":981,"x_min":0,"x_max":0,"o":"m 563 1010 b 756 992 619 1017 688 1004 b 861 947 793 985 832 975 b 865 828 896 911 897 861 b 758 835 833 794 794 794 b 688 872 738 857 715 867 b 308 861 561 897 435 882 b 224 771 260 854 233 819 b 203 522 208 689 208 606 b 247 481 201 489 217 474 b 463 500 318 497 392 488 b 726 511 550 517 639 510 b 804 486 756 511 782 504 b 826 404 829 464 842 438 b 758 369 813 375 788 365 b 660 386 725 374 694 385 b 247 351 521 388 383 369 b 192 292 210 347 193 329 b 240 0 189 192 200 93 b 419 -94 275 -82 332 -110 b 593 -36 481 -83 539 -65 b 647 -18 610 -28 626 -18 b 714 -115 699 -17 733 -67 b 676 -157 707 -133 693 -150 b 322 -224 564 -210 447 -247 b 146 -86 243 -210 182 -162 b 83 221 100 11 89 115 b 40 338 82 264 86 306 b 40 439 4 364 4 413 b 93 554 85 469 89 511 b 107 744 101 617 103 681 b 75 782 110 769 99 781 b 3 847 33 785 6 806 b 68 935 0 893 31 919 b 194 972 110 951 151 964 b 563 1010 313 994 429 1013 m 558 1107 b 494 1153 529 1110 513 1131 b 289 1368 431 1229 374 1311 b 274 1485 246 1396 243 1451 b 381 1468 303 1515 340 1511 b 576 1254 447 1399 511 1325 b 618 1182 594 1233 613 1211 b 558 1107 625 1144 596 1107 "},"É":{"ha":981,"x_min":0,"x_max":0,"o":"m 563 1010 b 756 992 619 1017 688 1004 b 861 947 793 985 832 975 b 865 828 896 911 897 861 b 758 835 833 794 794 794 b 688 872 738 857 715 867 b 308 861 561 897 435 882 b 224 771 260 854 233 819 b 203 522 208 689 208 606 b 247 481 201 489 217 474 b 463 500 318 497 392 488 b 726 511 550 517 639 510 b 804 486 756 511 782 504 b 826 404 829 464 842 438 b 758 369 813 375 788 365 b 660 386 725 374 694 385 b 247 351 521 388 383 369 b 192 292 210 347 193 329 b 240 0 189 192 200 93 b 419 -94 275 -82 332 -110 b 593 -36 481 -83 539 -65 b 647 -18 610 -28 626 -18 b 714 -115 699 -17 733 -67 b 676 -157 707 -133 693 -150 b 322 -224 564 -210 447 -247 b 146 -86 243 -210 182 -162 b 83 221 100 11 89 115 b 40 338 82 264 86 306 b 40 439 4 364 4 413 b 93 554 85 469 89 511 b 107 744 101 617 103 681 b 75 782 110 769 99 781 b 3 847 33 785 6 806 b 68 935 0 893 31 919 b 194 972 110 951 151 964 b 563 1010 313 994 429 1013 m 349 1092 b 289 1167 311 1092 282 1129 b 331 1239 294 1196 311 1218 b 526 1453 396 1310 460 1383 b 632 1469 567 1496 603 1500 b 618 1353 664 1436 661 1381 b 413 1138 533 1296 476 1214 b 349 1092 394 1115 378 1094 "},"Ê":{"ha":981,"x_min":0,"x_max":0,"o":"m 563 1010 b 756 992 619 1017 688 1004 b 861 947 793 985 832 975 b 865 828 896 911 897 861 b 758 835 833 794 794 794 b 688 872 738 857 715 867 b 308 861 561 897 435 882 b 224 771 260 854 233 819 b 203 522 208 689 208 606 b 247 481 201 489 217 474 b 463 500 318 497 392 488 b 726 511 550 517 639 510 b 804 486 756 511 782 504 b 826 404 829 464 842 438 b 758 369 813 375 788 365 b 660 386 725 374 694 385 b 247 351 521 388 383 369 b 192 292 210 347 193 329 b 240 0 189 192 200 93 b 419 -94 275 -82 332 -110 b 593 -36 481 -83 539 -65 b 647 -18 610 -28 626 -18 b 714 -115 699 -17 733 -67 b 676 -157 707 -133 693 -150 b 322 -224 564 -210 447 -247 b 146 -86 243 -210 182 -162 b 83 221 100 11 89 115 b 40 338 82 264 86 306 b 40 439 4 364 4 413 b 93 554 85 469 89 511 b 107 744 101 617 103 681 b 75 782 110 769 99 781 b 3 847 33 785 6 806 b 68 935 0 893 31 919 b 194 972 110 951 151 964 b 563 1010 313 994 429 1013 m 769 1149 b 663 1081 772 1097 717 1061 b 604 1125 639 1088 621 1106 b 511 1242 572 1163 543 1203 b 372 1246 453 1318 440 1318 b 289 1133 340 1211 317 1171 b 172 1128 254 1085 201 1085 b 169 1206 154 1153 151 1182 b 344 1392 221 1274 269 1346 b 553 1365 424 1440 488 1432 b 611 1296 574 1343 592 1318 b 726 1204 644 1257 675 1218 b 769 1149 753 1197 768 1176 "},"Ë":{"ha":981,"x_min":0,"x_max":0,"o":"m 563 1010 b 756 992 619 1017 688 1004 b 861 947 793 985 832 975 b 865 828 896 911 897 861 b 758 835 833 794 794 794 b 688 872 738 857 715 867 b 308 861 561 897 435 882 b 224 771 260 854 233 819 b 203 522 208 689 208 606 b 247 481 201 489 217 474 b 463 500 318 497 392 488 b 726 511 550 517 639 510 b 804 486 756 511 782 504 b 826 404 829 464 842 438 b 758 369 813 375 788 365 b 660 386 725 374 694 385 b 247 351 521 388 383 369 b 192 292 210 347 193 329 b 240 0 189 192 200 93 b 419 -94 275 -82 332 -110 b 593 -36 481 -83 539 -65 b 647 -18 610 -28 626 -18 b 714 -115 699 -17 733 -67 b 676 -157 707 -133 693 -150 b 322 -224 564 -210 447 -247 b 146 -86 243 -210 182 -162 b 83 221 100 11 89 115 b 40 338 82 264 86 306 b 40 439 4 364 4 413 b 93 554 85 469 89 511 b 107 744 101 617 103 681 b 75 782 110 769 99 781 b 3 847 33 785 6 806 b 68 935 0 893 31 919 b 194 972 110 951 151 964 b 563 1010 313 994 429 1013 m 264 1157 b 347 1250 263 1210 296 1247 b 438 1164 399 1253 438 1217 b 349 1063 438 1113 394 1063 b 264 1157 304 1061 267 1104 m 508 1157 b 592 1250 507 1210 540 1247 b 682 1164 643 1253 682 1217 b 593 1063 682 1113 639 1063 b 508 1157 549 1061 511 1104 "},"Ì":{"ha":507,"x_min":0,"x_max":0,"o":"m 292 828 b 283 781 281 814 283 797 b 282 65 283 543 282 304 b 290 -15 282 39 275 8 b 360 -36 306 -39 336 -29 b 421 -106 394 -47 418 -69 b 386 -168 424 -133 410 -154 b 331 -172 368 -178 350 -178 b 154 -199 268 -156 210 -168 b 99 -212 136 -208 119 -214 b 36 -165 68 -210 47 -194 b 58 -92 24 -136 35 -111 b 94 -72 68 -83 82 -78 b 169 54 179 -35 179 -35 b 161 519 151 210 164 364 b 160 736 160 592 161 664 b 97 793 158 790 157 792 b 18 842 61 794 33 808 b 67 940 0 882 18 921 b 285 989 136 968 211 982 b 389 947 324 992 363 979 b 401 856 413 919 422 889 b 324 825 385 826 358 815 b 292 828 314 828 304 835 m 317 1053 b 253 1099 288 1056 271 1076 b 47 1314 189 1175 132 1257 b 32 1431 4 1342 1 1397 b 139 1414 61 1461 99 1457 b 335 1200 206 1344 269 1271 b 376 1128 353 1179 371 1157 b 317 1053 383 1090 354 1053 "},"Í":{"ha":507,"x_min":0,"x_max":0,"o":"m 292 828 b 283 781 281 814 283 797 b 282 65 283 543 282 304 b 290 -15 282 39 275 8 b 360 -36 306 -39 336 -29 b 421 -106 394 -47 418 -69 b 386 -168 424 -133 410 -154 b 331 -172 368 -178 350 -178 b 154 -199 268 -156 210 -168 b 99 -212 136 -208 119 -214 b 36 -165 68 -210 47 -194 b 58 -92 24 -136 35 -111 b 94 -72 68 -83 82 -78 b 169 54 179 -35 179 -35 b 161 519 151 210 164 364 b 160 736 160 592 161 664 b 97 793 158 790 157 792 b 18 842 61 794 33 808 b 67 940 0 882 18 921 b 285 989 136 968 211 982 b 389 947 324 992 363 979 b 401 856 413 919 422 889 b 324 825 385 826 358 815 b 292 828 314 828 304 835 m 94 1019 b 35 1094 57 1019 28 1057 b 76 1167 40 1124 57 1146 b 272 1381 142 1238 206 1311 b 378 1397 313 1424 349 1428 b 364 1281 410 1364 407 1308 b 158 1065 279 1224 222 1142 b 94 1019 140 1043 124 1022 "},"Î":{"ha":507,"x_min":0,"x_max":0,"o":"m 292 828 b 283 781 281 814 283 797 b 282 65 283 543 282 304 b 290 -15 282 39 275 8 b 360 -36 306 -39 336 -29 b 421 -106 394 -47 418 -69 b 386 -168 424 -133 410 -154 b 331 -172 368 -178 350 -178 b 154 -199 268 -156 210 -168 b 99 -212 136 -208 119 -214 b 36 -165 68 -210 47 -194 b 58 -92 24 -136 35 -111 b 94 -72 68 -83 82 -78 b 169 54 179 -35 179 -35 b 161 519 151 210 164 364 b 160 736 160 592 161 664 b 97 793 158 790 157 792 b 18 842 61 794 33 808 b 67 940 0 882 18 921 b 285 989 136 968 211 982 b 389 947 324 992 363 979 b 401 856 413 919 422 889 b 324 825 385 826 358 815 b 292 828 314 828 304 835 m 535 1115 b 428 1047 538 1064 482 1028 b 369 1092 404 1054 386 1072 b 276 1208 338 1129 308 1169 b 138 1213 218 1285 206 1285 b 54 1100 106 1178 82 1138 b -62 1094 19 1051 -33 1051 b -65 1172 -81 1119 -83 1149 b 110 1358 -14 1240 35 1313 b 318 1332 189 1407 253 1399 b 376 1263 339 1310 357 1285 b 492 1171 410 1224 440 1185 b 535 1115 518 1164 533 1143 "},"Ï":{"ha":507,"x_min":0,"x_max":0,"o":"m 292 828 b 283 781 281 814 283 797 b 282 65 283 543 282 304 b 290 -15 282 39 275 8 b 360 -36 306 -39 336 -29 b 421 -106 394 -47 418 -69 b 386 -168 424 -133 410 -154 b 331 -172 368 -178 350 -178 b 154 -199 268 -156 210 -168 b 99 -212 136 -208 119 -214 b 36 -165 68 -210 47 -194 b 58 -92 24 -136 35 -111 b 94 -72 68 -83 82 -78 b 169 54 179 -35 179 -35 b 161 519 151 210 164 364 b 160 736 160 592 161 664 b 97 793 158 790 157 792 b 18 842 61 794 33 808 b 67 940 0 882 18 921 b 285 989 136 968 211 982 b 389 947 324 992 363 979 b 401 856 413 919 422 889 b 324 825 385 826 358 815 b 292 828 314 828 304 835 m 7 1150 b 90 1243 6 1203 39 1240 b 181 1157 142 1246 181 1210 b 92 1056 181 1106 138 1056 b 7 1150 47 1054 10 1097 m 251 1150 b 335 1243 250 1203 283 1240 b 425 1157 386 1246 425 1210 b 336 1056 425 1106 382 1056 b 251 1150 292 1054 254 1097 "},"Ð":{"ha":1124,"x_min":0,"x_max":0,"o":"m 297 335 b 396 335 331 336 364 336 b 481 304 428 335 457 325 b 507 256 496 292 504 275 b 496 199 510 235 506 217 b 396 179 469 161 436 154 b 279 211 358 204 319 215 l 274 211 b 239 -68 265 118 254 25 b 307 -136 226 -125 249 -147 b 536 -76 386 -124 463 -104 b 738 46 608 -49 675 -8 b 882 358 828 126 876 231 b 607 856 861 560 769 726 b 403 810 519 929 451 914 b 385 771 396 797 390 783 b 382 764 383 768 383 765 b 308 483 347 674 324 579 b 288 335 300 433 293 385 m 136 333 b 167 532 146 399 156 465 b 250 826 182 633 210 731 b 251 829 250 828 250 828 b 274 879 258 847 265 864 b 671 967 375 1058 508 1088 b 1000 435 849 831 958 653 b 965 129 1019 321 1008 219 b 763 -104 922 39 856 -39 b 532 -222 690 -156 614 -196 b 276 -279 450 -250 364 -269 b 192 -278 247 -283 219 -282 b 125 -233 163 -274 140 -260 b 100 -190 117 -219 108 -206 b 33 -40 69 -144 47 -94 b 3 197 15 38 6 117 l -11 194 b -17 193 -12 194 -15 194 b -87 167 -43 190 -67 182 b -186 167 -121 142 -154 142 b -214 240 -211 185 -221 210 b -140 300 -201 275 -176 296 b 1 322 -93 308 -46 317 b 1 706 0 450 0 578 b 17 867 3 760 8 813 b 18 879 17 871 17 875 b 96 957 28 936 53 961 b 143 921 114 953 131 940 b 151 858 156 901 158 881 b 110 618 126 779 113 699 b 114 372 107 536 108 454 b 115 332 115 358 115 346 b 136 333 122 332 129 332 "},"Ñ":{"ha":1040,"x_min":0,"x_max":0,"o":"m 146 207 b 261 614 174 347 207 483 b 485 953 315 740 385 857 b 622 1043 525 992 569 1024 b 868 947 725 1079 818 1044 b 917 756 899 888 917 824 b 904 224 918 578 922 401 b 901 24 899 158 903 90 b 926 -44 901 -1 908 -25 b 925 -150 957 -79 950 -115 b 846 -186 906 -176 879 -193 b 779 -100 801 -176 785 -140 b 782 199 769 -1 775 99 b 793 771 794 389 821 579 b 771 858 789 801 783 831 b 646 900 746 922 704 936 b 576 840 621 883 597 863 b 382 524 488 750 425 643 b 285 53 326 372 303 213 b 256 -110 278 -1 271 -57 b 163 -200 238 -175 208 -201 b 78 -112 121 -200 94 -175 b 31 174 50 -19 40 78 b 26 788 8 378 0 583 b 44 868 29 815 32 843 b 160 881 71 918 124 924 b 163 758 190 843 194 797 b 119 621 128 717 119 671 b 146 207 119 482 114 343 m 622 1140 b 483 1201 568 1138 524 1167 b 390 1283 451 1228 424 1258 b 293 1249 340 1319 313 1307 b 201 1182 274 1188 243 1165 b 164 1303 160 1199 142 1253 b 393 1406 199 1385 308 1433 b 539 1313 450 1386 494 1350 b 686 1326 610 1251 629 1254 b 713 1358 694 1338 701 1350 b 794 1365 738 1381 765 1388 b 821 1285 822 1346 831 1318 b 622 1140 797 1210 703 1140 "},"Ò":{"ha":1065,"x_min":0,"x_max":0,"o":"m 982 375 b 810 -82 978 233 925 65 b 671 -199 771 -131 725 -169 b 275 -87 522 -278 361 -232 b 196 231 215 10 197 119 b 114 376 194 300 176 342 b 18 604 29 422 0 510 b 450 990 56 792 246 963 b 911 732 640 1018 817 918 b 982 375 957 639 981 535 m 514 414 b 786 429 606 401 696 429 b 833 479 819 428 838 440 b 754 713 822 563 801 642 b 432 849 678 826 563 875 b 390 782 386 839 379 831 b 375 678 397 744 397 707 b 319 482 328 619 331 549 b 374 415 313 438 329 418 b 514 414 419 411 467 414 m 560 303 b 560 306 560 303 560 304 b 361 306 494 306 428 304 b 314 275 338 306 315 304 b 403 -53 307 156 322 42 b 575 -90 450 -107 510 -118 b 669 -25 613 -76 643 -53 b 810 235 742 49 782 139 b 758 301 824 286 814 300 b 560 303 693 304 626 303 m 260 747 b 138 576 182 699 154 642 b 154 497 131 547 138 521 b 193 472 163 483 174 469 b 215 504 210 475 213 490 b 260 747 229 578 243 654 m 618 1061 b 554 1107 589 1064 572 1085 b 349 1322 490 1183 433 1265 b 333 1439 306 1350 303 1406 b 440 1422 363 1469 400 1465 b 636 1208 507 1353 571 1279 b 678 1136 654 1188 672 1165 b 618 1061 685 1099 656 1061 "},"Ó":{"ha":1065,"x_min":0,"x_max":0,"o":"m 982 375 b 810 -82 978 233 925 65 b 671 -199 771 -131 725 -169 b 275 -87 522 -278 361 -232 b 196 231 215 10 197 119 b 114 376 194 300 176 342 b 18 604 29 422 0 510 b 450 990 56 792 246 963 b 911 732 640 1018 817 918 b 982 375 957 639 981 535 m 514 414 b 786 429 606 401 696 429 b 833 479 819 428 838 440 b 754 713 822 563 801 642 b 432 849 678 826 563 875 b 390 782 386 839 379 831 b 375 678 397 744 397 707 b 319 482 328 619 331 549 b 374 415 313 438 329 418 b 514 414 419 411 467 414 m 560 303 b 560 306 560 303 560 304 b 361 306 494 306 428 304 b 314 275 338 306 315 304 b 403 -53 307 156 322 42 b 575 -90 450 -107 510 -118 b 669 -25 613 -76 643 -53 b 810 235 742 49 782 139 b 758 301 824 286 814 300 b 560 303 693 304 626 303 m 260 747 b 138 576 182 699 154 642 b 154 497 131 547 138 521 b 193 472 163 483 174 469 b 215 504 210 475 213 490 b 260 747 229 578 243 654 m 408 1058 b 349 1133 371 1058 342 1096 b 390 1206 354 1163 371 1185 b 586 1419 456 1276 519 1350 b 692 1436 626 1463 663 1467 b 678 1319 724 1403 721 1347 b 472 1104 593 1263 536 1181 b 408 1058 454 1082 438 1061 "},"Ô":{"ha":1065,"x_min":0,"x_max":0,"o":"m 982 375 b 810 -82 978 233 925 65 b 671 -199 771 -131 725 -169 b 275 -87 522 -278 361 -232 b 196 231 215 10 197 119 b 114 376 194 300 176 342 b 18 604 29 422 0 510 b 450 990 56 792 246 963 b 911 732 640 1018 817 918 b 982 375 957 639 981 535 m 514 414 b 786 429 606 401 696 429 b 833 479 819 428 838 440 b 754 713 822 563 801 642 b 432 849 678 826 563 875 b 390 782 386 839 379 831 b 375 678 397 744 397 707 b 319 482 328 619 331 549 b 374 415 313 438 329 418 b 514 414 419 411 467 414 m 560 303 b 560 306 560 303 560 304 b 361 306 494 306 428 304 b 314 275 338 306 315 304 b 403 -53 307 156 322 42 b 575 -90 450 -107 510 -118 b 669 -25 613 -76 643 -53 b 810 235 742 49 782 139 b 758 301 824 286 814 300 b 560 303 693 304 626 303 m 260 747 b 138 576 182 699 154 642 b 154 497 131 547 138 521 b 193 472 163 483 174 469 b 215 504 210 475 213 490 b 260 747 229 578 243 654 m 856 1131 b 749 1063 858 1079 803 1043 b 690 1107 725 1069 707 1088 b 597 1224 658 1144 629 1185 b 458 1228 539 1300 526 1300 b 375 1115 426 1193 403 1153 b 258 1110 340 1067 288 1067 b 256 1188 240 1135 238 1164 b 431 1374 307 1256 356 1328 b 639 1347 510 1422 574 1414 b 697 1278 660 1325 678 1300 b 813 1186 731 1239 761 1200 b 856 1131 839 1179 854 1158 "},"Õ":{"ha":1065,"x_min":0,"x_max":0,"o":"m 982 375 b 810 -82 978 233 925 65 b 671 -199 771 -131 725 -169 b 275 -87 522 -278 361 -232 b 196 231 215 10 197 119 b 114 376 194 300 176 342 b 18 604 29 422 0 510 b 450 990 56 792 246 963 b 911 732 640 1018 817 918 b 982 375 957 639 981 535 m 514 414 b 786 429 606 401 696 429 b 833 479 819 428 838 440 b 754 713 822 563 801 642 b 432 849 678 826 563 875 b 390 782 386 839 379 831 b 375 678 397 744 397 707 b 319 482 328 619 331 549 b 374 415 313 438 329 418 b 514 414 419 411 467 414 m 560 303 b 560 306 560 303 560 304 b 361 306 494 306 428 304 b 314 275 338 306 315 304 b 403 -53 307 156 322 42 b 575 -90 450 -107 510 -118 b 669 -25 613 -76 643 -53 b 810 235 742 49 782 139 b 758 301 824 286 814 300 b 560 303 693 304 626 303 m 260 747 b 138 576 182 699 154 642 b 154 497 131 547 138 521 b 193 472 163 483 174 469 b 215 504 210 475 213 490 b 260 747 229 578 243 654 m 686 1088 b 547 1149 632 1085 588 1114 b 454 1231 515 1175 488 1206 b 357 1196 404 1267 376 1254 b 265 1129 338 1135 307 1113 b 228 1250 224 1146 206 1200 b 457 1353 263 1332 372 1381 b 603 1260 514 1333 558 1297 b 750 1274 674 1199 693 1201 b 776 1306 758 1285 765 1297 b 858 1313 801 1328 829 1335 b 885 1232 886 1293 894 1265 b 686 1088 861 1157 767 1088 "},"Ö":{"ha":1065,"x_min":0,"x_max":0,"o":"m 982 375 b 810 -82 978 233 925 65 b 671 -199 771 -131 725 -169 b 275 -87 522 -278 361 -232 b 196 231 215 10 197 119 b 114 376 194 300 176 342 b 18 604 29 422 0 510 b 450 990 56 792 246 963 b 911 732 640 1018 817 918 b 982 375 957 639 981 535 m 514 414 b 786 429 606 401 696 429 b 833 479 819 428 838 440 b 754 713 822 563 801 642 b 432 849 678 826 563 875 b 390 782 386 839 379 831 b 375 678 397 744 397 707 b 319 482 328 619 331 549 b 374 415 313 438 329 418 b 514 414 419 411 467 414 m 560 303 b 560 306 560 303 560 304 b 361 306 494 306 428 304 b 314 275 338 306 315 304 b 403 -53 307 156 322 42 b 575 -90 450 -107 510 -118 b 669 -25 613 -76 643 -53 b 810 235 742 49 782 139 b 758 301 824 286 814 300 b 560 303 693 304 626 303 m 260 747 b 138 576 182 699 154 642 b 154 497 131 547 138 521 b 193 472 163 483 174 469 b 215 504 210 475 213 490 b 260 747 229 578 243 654 m 319 1175 b 403 1268 318 1228 351 1265 b 493 1182 454 1271 493 1235 b 404 1081 493 1131 450 1081 b 319 1175 360 1079 322 1122 m 564 1175 b 647 1268 563 1228 596 1265 b 738 1182 699 1271 738 1235 b 649 1081 738 1131 694 1081 b 564 1175 604 1079 567 1122 "},"×":{"ha":726,"x_min":0,"x_max":0,"o":"m 547 157 b 631 121 586 167 617 157 b 594 35 643 83 625 56 b 461 28 553 6 507 6 b 315 135 407 56 357 92 b 233 135 285 165 261 169 b 146 26 203 100 165 72 b 44 -15 125 -21 81 -35 b 29 94 7 6 0 49 b 135 210 57 139 99 172 b 124 329 183 263 182 286 b 64 372 104 344 81 353 b 57 478 35 410 32 451 b 161 472 83 507 124 507 b 225 397 186 451 204 422 b 325 389 269 347 278 347 b 408 469 354 415 382 443 b 504 501 436 496 464 518 b 543 443 529 490 543 469 b 488 349 544 401 526 364 b 390 286 450 335 418 314 b 382 243 378 275 372 261 b 547 157 407 196 493 151 "},"Ø":{"ha":1065,"x_min":0,"x_max":0,"o":"m 260 747 b 138 576 182 699 154 642 b 154 497 131 547 138 521 b 193 472 163 483 174 469 b 215 504 210 475 213 490 b 260 747 229 578 243 654 m 719 757 b 625 414 690 657 660 542 b 672 419 642 415 657 417 b 786 429 710 425 749 428 b 833 479 821 426 838 443 b 754 713 825 564 799 642 b 719 757 743 729 731 743 m 596 303 b 571 206 588 271 579 239 b 539 71 561 160 550 115 b 499 -104 525 13 511 -46 b 575 -90 522 -106 549 -101 b 669 -25 611 -75 643 -54 b 810 235 739 50 786 136 b 810 288 817 260 817 278 b 758 301 803 297 785 301 b 619 303 713 303 665 304 l 596 303 m 397 -46 b 485 306 424 61 453 178 b 361 306 443 304 403 304 b 329 301 349 307 339 306 b 314 275 319 297 315 289 b 326 103 310 215 314 157 b 397 -46 338 50 361 0 m 514 414 b 624 829 547 543 585 681 b 432 849 568 856 504 863 b 390 831 410 844 396 839 b 390 782 383 821 383 806 b 375 678 400 743 396 708 b 340 607 357 656 346 632 b 326 528 333 581 329 554 b 319 482 325 513 322 497 b 374 415 311 439 329 417 b 471 414 406 413 438 413 l 514 414 m 467 -246 b 457 -287 464 -260 461 -274 b 433 -432 443 -335 435 -383 b 426 -465 432 -443 431 -454 b 361 -506 414 -494 393 -508 b 311 -449 331 -500 314 -481 b 319 -382 310 -426 313 -404 b 321 -375 321 -379 321 -376 b 364 -186 333 -317 349 -254 b 275 -87 329 -162 300 -129 b 196 231 219 13 193 118 b 114 376 200 296 172 344 b 18 604 31 428 -1 504 b 172 857 40 700 92 785 b 450 990 253 929 346 974 b 661 967 525 1000 596 993 b 682 1040 668 992 675 1015 b 689 1063 683 1047 686 1056 b 697 1167 701 1094 704 1129 b 731 1279 693 1207 704 1244 b 804 1304 750 1304 775 1313 b 847 1249 831 1294 846 1276 b 840 1158 853 1218 850 1188 b 764 911 819 1097 793 1014 b 911 732 822 867 872 807 b 982 375 957 647 981 528 b 938 150 981 304 965 229 b 810 -82 910 71 867 -7 b 671 -199 772 -131 725 -169 b 469 -232 603 -233 535 -244 "},"Ù":{"ha":875,"x_min":0,"x_max":0,"o":"m 624 108 b 564 32 589 88 581 57 b 381 -158 514 -43 461 -112 b 58 -65 250 -232 129 -197 b 3 158 21 6 6 81 b 35 647 0 322 6 486 b 42 779 42 690 51 733 b 88 888 32 822 50 861 b 149 883 107 901 132 900 b 175 767 181 850 189 807 b 114 243 117 596 114 419 b 157 24 114 168 124 93 b 328 -15 201 -64 251 -78 b 501 244 411 53 463 146 b 601 613 550 363 579 488 b 638 867 617 697 626 782 b 639 875 638 869 639 872 b 711 971 647 939 675 974 b 775 867 749 968 772 931 b 753 603 779 778 765 690 b 739 89 728 432 719 261 b 743 -3 742 58 742 28 b 767 -89 744 -32 749 -61 b 756 -174 792 -128 785 -157 b 661 -133 719 -192 678 -176 b 636 14 644 -86 639 -36 b 624 108 635 43 643 75 m 501 968 b 438 1014 472 971 456 992 b 232 1229 374 1090 317 1172 b 217 1346 189 1257 186 1313 b 324 1329 246 1376 283 1372 b 519 1115 390 1260 454 1186 b 561 1043 538 1094 556 1072 b 501 968 568 1006 539 968 "},"Ú":{"ha":875,"x_min":0,"x_max":0,"o":"m 624 108 b 564 32 589 88 581 57 b 381 -158 514 -43 461 -112 b 58 -65 250 -232 129 -197 b 3 158 21 6 6 81 b 35 647 0 322 6 486 b 42 779 42 690 51 733 b 88 888 32 822 50 861 b 149 883 107 901 132 900 b 175 767 181 850 189 807 b 114 243 117 596 114 419 b 157 24 114 168 124 93 b 328 -15 201 -64 251 -78 b 501 244 411 53 463 146 b 601 613 550 363 579 488 b 638 867 617 697 626 782 b 639 875 638 869 639 872 b 711 971 647 939 675 974 b 775 867 749 968 772 931 b 753 603 779 778 765 690 b 739 89 728 432 719 261 b 743 -3 742 58 742 28 b 767 -89 744 -32 749 -61 b 756 -174 792 -128 785 -157 b 661 -133 719 -192 678 -176 b 636 14 644 -86 639 -36 b 624 108 635 43 643 75 m 304 968 b 244 1043 267 968 238 1006 b 286 1115 250 1072 267 1094 b 482 1329 351 1186 415 1260 b 588 1346 522 1372 558 1376 b 574 1229 619 1313 617 1257 b 368 1014 489 1172 432 1090 b 304 968 350 992 333 971 "},"Û":{"ha":875,"x_min":0,"x_max":0,"o":"m 624 108 b 564 32 589 88 581 57 b 381 -158 514 -43 461 -112 b 58 -65 250 -232 129 -197 b 3 158 21 6 6 81 b 35 647 0 322 6 486 b 42 779 42 690 51 733 b 88 888 32 822 50 861 b 149 883 107 901 132 900 b 175 767 181 850 189 807 b 114 243 117 596 114 419 b 157 24 114 168 124 93 b 328 -15 201 -64 251 -78 b 501 244 411 53 463 146 b 601 613 550 363 579 488 b 638 867 617 697 626 782 b 639 875 638 869 639 872 b 711 971 647 939 675 974 b 775 867 749 968 772 931 b 753 603 779 778 765 690 b 739 89 728 432 719 261 b 743 -3 742 58 742 28 b 767 -89 744 -32 749 -61 b 756 -174 792 -128 785 -157 b 661 -133 719 -192 678 -176 b 636 14 644 -86 639 -36 b 624 108 635 43 643 75 m 678 1106 b 571 1038 681 1054 625 1018 b 513 1082 547 1044 529 1063 b 419 1199 481 1119 451 1160 b 281 1203 361 1275 349 1275 b 197 1090 249 1168 225 1128 b 81 1085 163 1042 110 1042 b 78 1163 63 1110 60 1139 b 253 1349 129 1231 178 1303 b 461 1322 332 1397 396 1389 b 519 1253 482 1300 500 1275 b 635 1161 553 1214 583 1175 b 678 1106 661 1154 676 1133 "},"Ü":{"ha":875,"x_min":0,"x_max":0,"o":"m 624 108 b 564 32 589 88 581 57 b 381 -158 514 -43 461 -112 b 58 -65 250 -232 129 -197 b 3 158 21 6 6 81 b 35 647 0 322 6 486 b 42 779 42 690 51 733 b 88 888 32 822 50 861 b 149 883 107 901 132 900 b 175 767 181 850 189 807 b 114 243 117 596 114 419 b 157 24 114 168 124 93 b 328 -15 201 -64 251 -78 b 501 244 411 53 463 146 b 601 613 550 363 579 488 b 638 867 617 697 626 782 b 639 875 638 869 639 872 b 711 971 647 939 675 974 b 775 867 749 968 772 931 b 753 603 779 778 765 690 b 739 89 728 432 719 261 b 743 -3 742 58 742 28 b 767 -89 744 -32 749 -61 b 756 -174 792 -128 785 -157 b 661 -133 719 -192 678 -176 b 636 14 644 -86 639 -36 b 624 108 635 43 643 75 m 182 1079 b 265 1172 181 1132 214 1169 b 356 1086 317 1175 356 1139 b 267 985 356 1035 313 985 b 182 1079 222 983 185 1026 m 426 1079 b 510 1172 425 1132 458 1169 b 600 1086 561 1175 600 1139 b 511 985 600 1035 557 985 b 426 1079 467 983 429 1026 "},"Ý":{"ha":938,"x_min":0,"x_max":0,"o":"m 403 161 b 415 306 407 207 413 256 b 363 386 417 344 410 376 b 140 560 260 406 194 478 b 26 733 101 617 72 681 b 3 844 0 764 0 806 b 50 906 6 875 19 899 b 125 868 85 914 110 897 b 156 792 138 843 147 817 b 272 590 182 717 222 650 b 524 604 361 482 450 486 b 697 1018 604 732 654 874 b 700 1033 699 1022 699 1028 b 782 1107 714 1089 742 1114 b 835 1003 825 1099 854 1054 b 571 454 765 813 721 608 b 532 306 531 414 532 356 b 544 -92 531 174 540 40 b 567 -154 546 -115 558 -133 b 544 -240 582 -196 574 -225 b 450 -211 513 -256 472 -244 b 422 -125 432 -185 425 -156 b 403 161 415 -31 410 63 m 269 1019 b 210 1094 232 1019 203 1057 b 251 1167 215 1124 232 1146 b 447 1381 317 1238 381 1311 b 553 1397 488 1424 524 1428 b 539 1281 585 1364 582 1308 b 333 1065 454 1224 397 1142 b 269 1019 315 1043 299 1022 "},"Þ":{"ha":1178,"x_min":0,"x_max":0,"o":"m 408 482 b 408 339 407 436 407 389 b 424 286 410 311 414 293 b 475 288 433 279 450 279 b 893 560 643 335 783 425 b 950 756 950 633 968 699 b 790 883 932 813 878 854 b 661 904 747 896 704 903 b 532 901 618 906 575 904 l 476 899 b 438 881 457 897 444 892 b 424 836 431 868 425 854 b 411 635 414 771 410 704 b 408 533 410 603 410 568 m 421 1001 b 449 1006 429 1003 439 1004 b 778 993 557 1018 667 1014 b 981 900 854 981 921 949 b 1063 632 1065 829 1092 739 b 900 396 1032 536 978 458 b 488 168 778 293 640 217 b 433 147 463 160 444 153 b 413 118 421 140 414 131 b 411 57 410 106 410 85 l 411 32 b 418 -51 410 3 413 -25 b 465 -125 424 -78 439 -103 b 482 -168 479 -137 485 -151 b 454 -212 478 -185 469 -200 b 400 -229 438 -225 419 -231 b 350 -204 381 -228 364 -219 b 321 -118 332 -178 322 -150 b 318 -97 319 -111 319 -104 b 303 54 311 -47 307 3 b 292 114 303 78 299 99 b 238 139 283 129 265 138 b 175 188 208 142 188 158 b 189 265 164 217 168 242 b 263 283 208 290 233 296 b 283 274 268 281 275 278 b 300 265 288 271 293 268 l 300 399 b 300 776 301 528 301 653 l 300 786 b 297 981 301 799 300 864 b 297 1086 299 1015 299 1050 b 289 1135 299 1113 296 1128 b 235 1143 282 1142 264 1144 b 156 1192 197 1143 171 1160 b 204 1290 138 1235 154 1268 b 422 1339 275 1317 347 1333 b 526 1297 463 1343 497 1329 b 539 1206 553 1269 557 1239 b 461 1175 521 1176 496 1165 b 454 1176 460 1175 457 1175 b 443 1181 450 1178 447 1179 b 429 1178 439 1182 433 1181 b 422 1160 425 1172 422 1167 b 421 1140 421 1153 421 1147 "},"ß":{"ha":938,"x_min":0,"x_max":0,"o":"m 647 -8 b 501 51 604 26 551 33 b 354 379 324 117 285 200 b 463 631 388 464 428 546 b 518 835 489 697 514 764 b 469 810 489 846 481 824 b 350 547 408 732 371 643 b 233 3 310 367 272 185 b 196 -115 224 -37 214 -78 b 110 -169 178 -150 153 -175 b 42 -96 68 -164 50 -133 b 26 44 32 -50 26 -3 b 26 610 28 233 26 421 b 13 758 26 660 28 710 b 26 871 0 796 8 835 b 83 913 38 894 54 913 b 138 869 113 913 129 894 b 153 765 150 836 167 799 b 133 543 125 692 136 617 b 140 317 132 468 133 393 b 192 539 157 392 174 465 b 318 844 219 647 253 753 b 404 946 343 882 371 917 b 581 982 457 990 514 1013 b 643 815 635 957 657 896 b 547 524 625 714 590 618 b 471 349 521 465 494 408 b 554 169 429 236 442 208 b 704 122 604 153 656 139 b 806 67 742 110 778 94 b 806 -78 854 21 854 -32 b 710 -126 778 -103 746 -118 b 333 -182 588 -160 461 -181 b 308 -181 325 -182 317 -182 b 233 -101 257 -175 226 -143 b 326 -42 242 -58 278 -31 b 647 -8 438 -68 540 -28 "},"à":{"ha":822,"x_min":0,"x_max":0,"o":"m 553 369 b 306 542 526 517 443 572 b 144 461 244 528 190 504 b 29 456 101 419 60 421 b 44 574 0 489 6 535 b 506 647 144 674 382 711 b 661 431 593 601 636 522 b 694 201 682 356 690 279 b 731 -111 701 96 704 -8 b 704 -171 739 -137 733 -161 b 642 -146 676 -181 654 -169 b 622 -90 632 -129 628 -110 b 601 4 615 -58 608 -26 b 543 -21 571 15 558 -7 b 349 -149 485 -74 419 -115 b 246 -176 317 -164 282 -175 b 28 29 117 -183 29 -101 b 289 388 26 181 143 344 b 507 375 363 410 436 408 b 553 369 519 369 532 361 m 226 -35 b 297 -17 251 -36 275 -28 b 461 94 360 10 413 49 b 450 249 529 157 525 199 b 339 271 415 272 378 278 b 151 53 246 254 154 149 b 226 -35 149 -1 176 -35 m 468 769 b 404 815 439 772 422 793 b 199 1031 340 892 283 974 b 183 1147 156 1058 153 1114 b 290 1131 213 1178 250 1174 b 486 917 357 1061 421 988 b 528 844 504 896 522 874 b 468 769 535 807 506 769 "},"á":{"ha":822,"x_min":0,"x_max":0,"o":"m 553 369 b 306 542 526 517 443 572 b 144 461 244 528 190 504 b 29 456 101 419 60 421 b 44 574 0 489 6 535 b 506 647 144 674 382 711 b 661 431 593 601 636 522 b 694 201 682 356 690 279 b 731 -111 701 96 704 -8 b 704 -171 739 -137 733 -161 b 642 -146 676 -181 654 -169 b 622 -90 632 -129 628 -110 b 601 4 615 -58 608 -26 b 543 -21 571 15 558 -7 b 349 -149 485 -74 419 -115 b 246 -176 317 -164 282 -175 b 28 29 117 -183 29 -101 b 289 388 26 181 143 344 b 507 375 363 410 436 408 b 553 369 519 369 532 361 m 226 -35 b 297 -17 251 -36 275 -28 b 461 94 360 10 413 49 b 450 249 529 157 525 199 b 339 271 415 272 378 278 b 151 53 246 254 154 149 b 226 -35 149 -1 176 -35 m 188 769 b 128 844 150 769 121 807 b 169 917 133 874 150 896 b 365 1131 235 988 299 1061 b 471 1147 406 1174 442 1178 b 457 1031 503 1114 500 1058 b 251 815 372 974 315 892 b 188 769 233 793 217 772 "},"â":{"ha":822,"x_min":0,"x_max":0,"o":"m 553 369 b 306 542 526 517 443 572 b 144 461 244 528 190 504 b 29 456 101 419 60 421 b 44 574 0 489 6 535 b 506 647 144 674 382 711 b 661 431 593 601 636 522 b 694 201 682 356 690 279 b 731 -111 701 96 704 -8 b 704 -171 739 -137 733 -161 b 642 -146 676 -181 654 -169 b 622 -90 632 -129 628 -110 b 601 4 615 -58 608 -26 b 543 -21 571 15 558 -7 b 349 -149 485 -74 419 -115 b 246 -176 317 -164 282 -175 b 28 29 117 -183 29 -101 b 289 388 26 181 143 344 b 507 375 363 410 436 408 b 553 369 519 369 532 361 m 226 -35 b 297 -17 251 -36 275 -28 b 461 94 360 10 413 49 b 450 249 529 157 525 199 b 339 271 415 272 378 278 b 151 53 246 254 154 149 b 226 -35 149 -1 176 -35 m 706 831 b 599 763 708 779 653 743 b 540 807 575 769 557 788 b 447 924 508 844 479 885 b 308 928 389 1000 376 1000 b 225 815 276 893 253 853 b 108 810 190 767 138 767 b 106 888 90 835 88 864 b 281 1074 157 956 206 1028 b 489 1047 360 1122 424 1114 b 547 978 510 1025 528 1000 b 663 886 581 939 611 900 b 706 831 689 879 704 858 "},"ã":{"ha":822,"x_min":0,"x_max":0,"o":"m 553 369 b 306 542 526 517 443 572 b 144 461 244 528 190 504 b 29 456 101 419 60 421 b 44 574 0 489 6 535 b 506 647 144 674 382 711 b 661 431 593 601 636 522 b 694 201 682 356 690 279 b 731 -111 701 96 704 -8 b 704 -171 739 -137 733 -161 b 642 -146 676 -181 654 -169 b 622 -90 632 -129 628 -110 b 601 4 615 -58 608 -26 b 543 -21 571 15 558 -7 b 349 -149 485 -74 419 -115 b 246 -176 317 -164 282 -175 b 28 29 117 -183 29 -101 b 289 388 26 181 143 344 b 507 375 363 410 436 408 b 553 369 519 369 532 361 m 226 -35 b 297 -17 251 -36 275 -28 b 461 94 360 10 413 49 b 450 249 529 157 525 199 b 339 271 415 272 378 278 b 151 53 246 254 154 149 b 226 -35 149 -1 176 -35 m 486 765 b 347 826 432 763 388 792 b 254 908 315 853 288 883 b 157 874 204 944 176 932 b 65 807 138 813 107 790 b 28 928 24 824 6 878 b 257 1031 63 1010 172 1058 b 403 938 314 1011 358 975 b 550 951 474 876 493 879 b 576 983 558 963 565 975 b 658 990 601 1006 629 1013 b 685 910 686 971 694 943 b 486 765 661 835 567 765 "},"ä":{"ha":822,"x_min":0,"x_max":0,"o":"m 553 369 b 306 542 526 517 443 572 b 144 461 244 528 190 504 b 29 456 101 419 60 421 b 44 574 0 489 6 535 b 506 647 144 674 382 711 b 661 431 593 601 636 522 b 694 201 682 356 690 279 b 731 -111 701 96 704 -8 b 704 -171 739 -137 733 -161 b 642 -146 676 -181 654 -169 b 622 -90 632 -129 628 -110 b 601 4 615 -58 608 -26 b 543 -21 571 15 558 -7 b 349 -149 485 -74 419 -115 b 246 -176 317 -164 282 -175 b 28 29 117 -183 29 -101 b 289 388 26 181 143 344 b 507 375 363 410 436 408 b 553 369 519 369 532 361 m 226 -35 b 297 -17 251 -36 275 -28 b 461 94 360 10 413 49 b 450 249 529 157 525 199 b 339 271 415 272 378 278 b 151 53 246 254 154 149 b 226 -35 149 -1 176 -35 m 138 854 b 221 947 136 907 169 944 b 311 861 272 950 311 914 b 222 760 311 810 268 760 b 138 854 178 758 140 801 m 382 854 b 465 947 381 907 414 944 b 556 861 517 950 556 914 b 467 760 556 810 513 760 b 382 854 422 758 385 801 "},"å":{"ha":822,"x_min":0,"x_max":0,"o":"m 553 369 b 306 542 526 517 443 572 b 144 461 244 528 190 504 b 29 456 101 419 60 421 b 44 574 0 489 6 535 b 506 647 144 674 382 711 b 661 431 593 601 636 522 b 694 201 682 356 690 279 b 731 -111 701 96 704 -8 b 704 -171 739 -137 733 -161 b 642 -146 676 -181 654 -169 b 622 -90 632 -129 628 -110 b 601 4 615 -58 608 -26 b 543 -21 571 15 558 -7 b 349 -149 485 -74 419 -115 b 246 -176 317 -164 282 -175 b 28 29 117 -183 29 -101 b 289 388 26 181 143 344 b 507 375 363 410 436 408 b 553 369 519 369 532 361 m 226 -35 b 297 -17 251 -36 275 -28 b 461 94 360 10 413 49 b 450 249 529 157 525 199 b 339 271 415 272 378 278 b 151 53 246 254 154 149 b 226 -35 149 -1 176 -35 m 346 1138 b 554 956 465 1133 556 1056 b 340 756 553 847 451 751 b 164 956 236 758 158 847 b 346 1138 168 1067 243 1140 m 354 965 b 293 942 335 956 294 990 b 346 890 292 911 314 892 b 410 953 376 889 417 926 b 354 965 400 986 374 964 "},"æ":{"ha":1306,"x_min":0,"x_max":0,"o":"m 226 -35 b 297 -17 251 -33 275 -28 b 461 94 358 11 413 49 b 450 249 529 151 525 203 b 339 271 415 271 379 278 b 211 192 290 260 249 233 b 151 53 174 149 154 103 b 226 -35 150 -4 175 -33 m 757 293 b 1089 488 889 311 999 376 b 1114 532 1099 501 1107 517 b 1111 579 1119 547 1118 563 b 1074 614 1101 597 1089 608 b 1022 624 1058 618 1040 622 l 1019 624 b 828 542 951 628 888 600 b 713 326 768 483 729 411 b 757 293 707 301 722 290 m 735 -129 b 732 -147 735 -136 733 -142 b 704 -171 728 -158 719 -167 b 642 -146 676 -179 656 -171 b 622 -90 632 -128 626 -110 b 607 -22 617 -68 611 -46 b 601 4 606 -12 603 -4 b 572 4 589 8 579 8 b 551 -14 564 0 557 -7 b 543 -21 549 -17 546 -19 b 349 -149 483 -72 419 -115 b 246 -176 317 -165 282 -175 b 89 -125 181 -179 128 -162 b 28 29 50 -87 29 -36 b 103 250 29 108 54 182 b 289 388 151 318 214 364 b 507 375 363 411 436 407 b 511 374 508 374 510 374 b 529 367 517 369 522 368 b 553 369 536 365 543 365 b 306 542 526 515 443 574 b 144 461 244 529 190 503 b 29 456 100 421 61 419 b 44 574 0 493 4 532 b 267 672 100 625 174 657 b 506 647 360 688 439 679 b 607 557 549 624 583 594 b 642 489 621 535 632 513 b 665 535 649 504 657 519 b 990 754 739 660 847 733 b 1129 739 1039 760 1085 754 b 1253 633 1189 717 1229 682 b 1254 472 1275 585 1275 532 b 1176 354 1236 428 1211 389 b 779 144 1067 243 933 174 b 722 124 746 140 726 133 b 738 67 718 114 722 96 b 994 -100 790 -39 876 -94 b 1035 -100 1008 -101 1022 -101 l 1053 -100 l 1053 -99 l 1082 -99 b 1144 -100 1103 -99 1124 -99 b 1217 -154 1183 -99 1207 -117 b 1207 -203 1221 -172 1217 -187 b 1160 -235 1196 -218 1181 -228 b 1019 -240 1114 -246 1067 -247 b 743 -136 903 -229 811 -194 b 735 -129 740 -135 738 -132 "},"ç":{"ha":872,"x_min":0,"x_max":0,"o":"m 363 -240 b 308 -237 344 -240 326 -239 b 139 -158 238 -228 182 -201 b 43 7 96 -115 64 -60 b 14 385 7 131 -3 257 b 64 629 22 468 39 550 b 108 700 75 665 90 689 b 193 706 126 711 156 713 b 244 707 211 704 228 704 l 267 710 b 285 711 274 711 279 711 b 425 718 331 715 378 718 b 563 699 471 718 517 711 b 653 642 599 689 629 671 b 663 533 681 607 683 571 b 606 493 647 510 628 496 b 547 522 582 490 563 500 b 485 576 529 550 508 568 b 406 588 461 585 435 589 b 193 536 304 590 233 574 b 131 328 153 499 132 429 b 129 271 129 308 129 289 b 131 244 131 261 131 253 l 131 239 b 133 122 129 199 129 160 b 164 8 136 83 146 46 b 401 -104 213 -93 292 -131 b 650 22 494 -85 578 -43 b 760 29 692 57 728 60 b 781 -24 775 14 782 -3 b 749 -81 779 -44 768 -64 b 546 -206 686 -135 618 -176 b 664 -315 589 -237 628 -275 b 693 -390 682 -336 692 -361 b 656 -481 693 -425 681 -456 b 465 -611 601 -537 538 -581 b 417 -621 450 -618 433 -621 b 344 -565 375 -619 351 -601 b 354 -519 342 -549 344 -533 b 397 -493 364 -506 378 -497 b 550 -432 453 -483 504 -464 b 557 -358 588 -410 589 -385 b 399 -253 511 -314 458 -279 l 382 -247 b 363 -240 375 -246 369 -243 "},"è":{"ha":832,"x_min":0,"x_max":0,"o":"m 504 -99 b 596 -100 535 -99 565 -99 b 668 -154 633 -100 660 -117 b 611 -235 675 -189 651 -222 b 471 -240 565 -249 517 -244 b 36 119 233 -217 113 -107 b 36 336 10 197 0 258 b 117 535 65 400 78 474 b 442 754 192 657 296 736 b 581 739 489 761 536 754 b 704 472 697 697 749 588 b 628 354 688 428 661 389 b 231 144 518 240 383 175 b 189 67 161 132 160 126 b 446 -100 242 -37 326 -96 b 504 -100 465 -101 485 -100 b 504 -99 504 -100 504 -100 m 208 293 b 539 488 336 314 453 375 b 561 579 560 515 578 546 b 469 624 544 617 507 619 b 164 326 339 638 190 492 b 208 293 160 303 171 289 m 536 868 b 472 914 507 871 490 892 b 267 1129 408 990 351 1072 b 251 1246 224 1157 221 1213 b 358 1229 281 1276 318 1272 b 554 1015 425 1160 489 1086 b 596 943 572 994 590 972 b 536 868 603 906 574 868 "},"é":{"ha":832,"x_min":0,"x_max":0,"o":"m 504 -99 b 596 -100 535 -99 565 -99 b 668 -154 633 -100 660 -117 b 611 -235 675 -189 651 -222 b 471 -240 565 -249 517 -244 b 36 119 233 -217 113 -107 b 36 336 10 197 0 258 b 117 535 65 400 78 474 b 442 754 192 657 296 736 b 581 739 489 761 536 754 b 704 472 697 697 749 588 b 628 354 688 428 661 389 b 231 144 518 240 383 175 b 189 67 161 132 160 126 b 446 -100 242 -37 326 -96 b 504 -100 465 -101 485 -100 b 504 -99 504 -100 504 -100 m 208 293 b 539 488 336 314 453 375 b 561 579 560 515 578 546 b 469 624 544 617 507 619 b 164 326 339 638 190 492 b 208 293 160 303 171 289 m 315 857 b 256 932 278 857 249 894 b 297 1004 261 961 278 983 b 493 1218 363 1075 426 1149 b 599 1235 533 1261 569 1265 b 585 1118 631 1201 628 1146 b 379 903 500 1061 443 979 b 315 857 361 881 344 860 "},"ê":{"ha":832,"x_min":0,"x_max":0,"o":"m 504 -99 b 596 -100 535 -99 565 -99 b 668 -154 633 -100 660 -117 b 611 -235 675 -189 651 -222 b 471 -240 565 -249 517 -244 b 36 119 233 -217 113 -107 b 36 336 10 197 0 258 b 117 535 65 400 78 474 b 442 754 192 657 296 736 b 581 739 489 761 536 754 b 704 472 697 697 749 588 b 628 354 688 428 661 389 b 231 144 518 240 383 175 b 189 67 161 132 160 126 b 446 -100 242 -37 326 -96 b 504 -100 465 -101 485 -100 b 504 -99 504 -100 504 -100 m 208 293 b 539 488 336 314 453 375 b 561 579 560 515 578 546 b 469 624 544 617 507 619 b 164 326 339 638 190 492 b 208 293 160 303 171 289 m 735 938 b 628 869 738 886 682 850 b 569 914 604 876 586 894 b 476 1031 538 951 508 992 b 338 1035 418 1107 406 1107 b 254 922 306 1000 282 960 b 138 917 219 874 167 874 b 135 994 119 942 117 971 b 310 1181 186 1063 235 1135 b 518 1154 389 1229 453 1221 b 576 1085 539 1132 557 1107 b 692 993 610 1046 640 1007 b 735 938 718 986 733 965 "},"ë":{"ha":832,"x_min":0,"x_max":0,"o":"m 504 -99 b 596 -100 535 -99 565 -99 b 668 -154 633 -100 660 -117 b 611 -235 675 -189 651 -222 b 471 -240 565 -249 517 -244 b 36 119 233 -217 113 -107 b 36 336 10 197 0 258 b 117 535 65 400 78 474 b 442 754 192 657 296 736 b 581 739 489 761 536 754 b 704 472 697 697 749 588 b 628 354 688 428 661 389 b 231 144 518 240 383 175 b 189 67 161 132 160 126 b 446 -100 242 -37 326 -96 b 504 -100 465 -101 485 -100 b 504 -99 504 -100 504 -100 m 208 293 b 539 488 336 314 453 375 b 561 579 560 515 578 546 b 469 624 544 617 507 619 b 164 326 339 638 190 492 b 208 293 160 303 171 289 m 236 946 b 319 1039 235 999 268 1036 b 410 953 371 1042 410 1006 b 321 851 410 901 367 851 b 236 946 276 850 239 893 m 481 946 b 564 1039 479 999 513 1036 b 654 953 615 1042 654 1006 b 565 851 654 901 611 851 b 481 946 521 850 483 893 "},"ì":{"ha":256,"x_min":0,"x_max":0,"o":"m 0 289 b 0 563 0 379 0 471 b 76 669 1 633 29 672 b 143 549 126 667 154 615 b 125 -22 110 358 126 168 b 157 -97 125 -53 143 -74 b 150 -165 172 -121 169 -146 b 74 -178 128 -186 103 -192 b 19 -108 43 -164 28 -139 b 1 14 10 -68 0 -28 b 1 289 1 106 1 197 b 0 289 1 289 0 289 m 222 718 b 158 764 193 721 176 742 b -47 979 94 840 38 922 b -62 1096 -90 1007 -93 1063 b 44 1079 -33 1126 4 1122 b 240 865 111 1010 175 936 b 282 793 258 844 276 822 b 222 718 289 756 260 718 "},"í":{"ha":256,"x_min":0,"x_max":0,"o":"m 0 289 b 0 563 0 379 0 471 b 76 669 1 633 29 672 b 143 549 126 667 154 615 b 125 -22 110 358 126 168 b 157 -97 125 -53 143 -74 b 150 -165 172 -121 169 -146 b 74 -178 128 -186 103 -192 b 19 -108 43 -164 28 -139 b 1 14 10 -68 0 -28 b 1 289 1 106 1 197 b 0 289 1 289 0 289 m -62 754 b -122 829 -100 754 -129 792 b -81 901 -117 858 -100 881 b 115 1115 -15 972 49 1046 b 221 1132 156 1158 192 1163 b 207 1015 253 1099 250 1043 b 1 800 122 958 65 876 b -62 754 -17 778 -33 757 "},"î":{"ha":256,"x_min":0,"x_max":0,"o":"m 0 289 b 0 563 0 379 0 471 b 76 669 1 633 29 672 b 143 549 126 667 154 615 b 125 -22 110 358 126 168 b 157 -97 125 -53 143 -74 b 150 -165 172 -121 169 -146 b 74 -178 128 -186 103 -192 b 19 -108 43 -164 28 -139 b 1 14 10 -68 0 -28 b 1 289 1 106 1 197 b 0 289 1 289 0 289 m 414 811 b 307 743 417 760 361 724 b 249 788 283 750 265 768 b 156 904 217 825 188 865 b 17 908 97 981 85 981 b -67 796 -15 874 -39 833 b -183 790 -101 747 -154 747 b -186 868 -201 815 -204 844 b -11 1054 -135 936 -86 1008 b 197 1028 68 1103 132 1094 b 256 958 218 1006 236 981 b 371 867 289 919 319 881 b 414 811 397 860 413 839 "},"ï":{"ha":256,"x_min":0,"x_max":0,"o":"m 0 289 b 0 563 0 379 0 471 b 76 669 1 633 29 672 b 143 549 126 667 154 615 b 125 -22 110 358 126 168 b 157 -97 125 -53 143 -74 b 150 -165 172 -121 169 -146 b 74 -178 128 -186 103 -192 b 19 -108 43 -164 28 -139 b 1 14 10 -68 0 -28 b 1 289 1 106 1 197 b 0 289 1 289 0 289 m -118 872 b -35 965 -119 925 -86 963 b 56 879 17 968 56 932 b -33 778 56 828 13 778 b -118 872 -78 776 -115 819 m 126 872 b 210 965 125 925 158 963 b 300 879 261 968 300 932 b 211 778 300 828 257 778 b 126 872 167 776 129 819 "},"ð":{"ha":917,"x_min":0,"x_max":0,"o":"m 126 142 b 132 71 129 115 128 93 b 281 14 147 -36 196 -56 b 463 247 358 78 408 164 b 472 433 506 310 501 368 b 265 475 426 538 344 556 b 126 142 175 381 136 265 m 801 775 b 761 -29 772 507 758 239 b 768 -89 761 -50 764 -71 b 804 -139 772 -108 785 -125 b 825 -172 818 -149 825 -160 b 808 -211 824 -185 818 -199 b 765 -235 796 -225 782 -233 b 719 -222 749 -236 733 -232 b 672 -128 690 -197 675 -165 b 667 303 651 15 649 160 b 668 333 668 311 668 321 b 669 363 669 340 669 350 b 631 283 656 335 643 308 b 556 132 604 231 579 181 b 404 -74 517 56 467 -14 b 271 -157 365 -111 321 -139 b 33 -53 163 -190 83 -156 b 8 151 7 14 -1 82 b 129 485 22 272 63 383 b 197 567 149 514 171 542 b 544 572 311 674 426 675 l 553 564 b 567 551 557 560 561 556 b 588 547 572 547 579 546 b 607 572 597 554 603 563 b 615 603 611 582 614 593 b 619 619 617 608 618 614 b 656 768 632 668 644 718 b 581 757 631 765 606 761 b 575 756 579 757 576 757 b 504 729 549 753 525 744 b 406 729 471 704 438 704 b 378 803 381 747 371 772 b 451 863 390 838 415 858 b 681 893 528 876 603 888 b 688 936 682 907 685 922 b 706 1008 692 961 697 985 b 778 1049 718 1042 743 1056 b 825 981 813 1039 829 1015 b 817 897 824 953 821 925 l 889 897 b 988 897 922 899 956 899 b 1072 867 1019 897 1049 888 b 1099 818 1088 854 1096 838 b 1088 761 1101 797 1097 779 b 988 742 1061 724 1028 717 b 871 774 950 767 911 778 l 835 774 b 801 775 824 774 813 775 "},"ñ":{"ha":988,"x_min":0,"x_max":0,"o":"m 136 143 b 185 265 153 185 168 225 b 403 628 239 397 310 519 b 843 546 568 819 758 783 b 885 44 901 382 904 214 b 853 -135 878 -17 868 -76 b 778 -186 844 -169 817 -192 b 718 -107 742 -182 717 -147 b 721 -92 718 -101 719 -96 b 758 146 743 -14 746 67 b 718 506 778 271 761 389 b 683 571 710 529 699 551 b 575 590 651 613 619 618 b 492 510 542 569 517 540 b 261 17 372 365 313 192 b 218 -136 246 -35 233 -85 b 193 -197 211 -157 203 -178 b 111 -242 176 -229 149 -246 b 46 -185 76 -237 56 -215 b 24 -79 35 -151 26 -115 b 6 535 4 125 0 329 b 51 625 6 572 13 608 b 118 608 76 638 100 629 b 135 500 147 576 150 540 b 136 143 89 382 114 264 m 604 856 b 465 917 550 853 506 882 b 372 999 433 943 406 974 b 275 964 322 1035 294 1022 b 183 897 256 903 225 881 b 146 1018 142 914 124 968 b 375 1121 181 1100 290 1149 b 521 1028 432 1101 476 1065 b 668 1042 592 967 611 969 b 694 1074 676 1053 683 1065 b 776 1081 719 1096 747 1103 b 803 1000 804 1061 813 1033 b 604 856 779 925 685 856 "},"ò":{"ha":901,"x_min":0,"x_max":0,"o":"m 818 232 b 588 -181 810 65 744 -85 b 175 44 393 -300 183 -185 b 175 93 175 60 174 78 b 122 214 182 146 163 179 b 92 569 7 311 0 450 b 756 493 244 767 601 790 b 818 232 796 415 815 332 m 200 328 b 258 442 239 360 238 407 b 357 471 281 481 322 493 b 375 368 390 450 399 404 b 342 333 367 356 353 346 b 325 288 331 321 319 306 b 374 267 333 264 354 267 b 531 274 426 265 479 261 b 676 251 579 285 628 292 b 544 551 682 382 639 479 b 207 522 454 621 285 604 b 200 328 149 458 144 400 m 678 194 b 565 144 636 158 601 149 b 335 129 489 135 413 114 b 288 100 311 133 288 132 b 353 -62 286 38 301 -24 b 510 -60 403 -100 458 -89 b 678 194 601 -7 654 74 m 538 810 b 474 856 508 813 492 833 b 268 1071 410 932 353 1014 b 253 1188 225 1099 222 1154 b 360 1171 282 1218 319 1214 b 556 957 426 1101 490 1028 b 597 885 574 936 592 914 b 538 810 604 847 575 810 "},"ó":{"ha":901,"x_min":0,"x_max":0,"o":"m 818 232 b 588 -181 810 65 744 -85 b 175 44 393 -300 183 -185 b 175 93 175 60 174 78 b 122 214 182 146 163 179 b 92 569 7 311 0 450 b 756 493 244 767 601 790 b 818 232 796 415 815 332 m 200 328 b 258 442 239 360 238 407 b 357 471 281 481 322 493 b 375 368 390 450 399 404 b 342 333 367 356 353 346 b 325 288 331 321 319 306 b 374 267 333 264 354 267 b 531 274 426 265 479 261 b 676 251 579 285 628 292 b 544 551 682 382 639 479 b 207 522 454 621 285 604 b 200 328 149 458 144 400 m 678 194 b 565 144 636 158 601 149 b 335 129 489 135 413 114 b 288 100 311 133 288 132 b 353 -62 286 38 301 -24 b 510 -60 403 -100 458 -89 b 678 194 601 -7 654 74 m 288 828 b 228 903 250 828 221 865 b 269 975 233 932 250 954 b 465 1189 335 1046 399 1119 b 571 1206 506 1232 542 1236 b 557 1089 603 1172 600 1117 b 351 874 472 1032 415 950 b 288 828 333 851 317 831 "},"ô":{"ha":901,"x_min":0,"x_max":0,"o":"m 818 232 b 588 -181 810 65 744 -85 b 175 44 393 -300 183 -185 b 175 93 175 60 174 78 b 122 214 182 146 163 179 b 92 569 7 311 0 450 b 756 493 244 767 601 790 b 818 232 796 415 815 332 m 200 328 b 258 442 239 360 238 407 b 357 471 281 481 322 493 b 375 368 390 450 399 404 b 342 333 367 356 353 346 b 325 288 331 321 319 306 b 374 267 333 264 354 267 b 531 274 426 265 479 261 b 676 251 579 285 628 292 b 544 551 682 382 639 479 b 207 522 454 621 285 604 b 200 328 149 458 144 400 m 678 194 b 565 144 636 158 601 149 b 335 129 489 135 413 114 b 288 100 311 133 288 132 b 353 -62 286 38 301 -24 b 510 -60 403 -100 458 -89 b 678 194 601 -7 654 74 m 753 868 b 646 800 756 817 700 781 b 588 844 622 807 604 825 b 494 961 556 882 526 922 b 356 965 436 1038 424 1038 b 272 853 324 931 300 890 b 156 847 238 804 185 804 b 153 925 138 872 135 901 b 328 1111 204 993 253 1065 b 536 1085 407 1160 471 1151 b 594 1015 557 1063 575 1038 b 710 924 628 976 658 938 b 753 868 736 917 751 896 "},"õ":{"ha":901,"x_min":0,"x_max":0,"o":"m 818 232 b 588 -181 810 65 744 -85 b 175 44 393 -300 183 -185 b 175 93 175 60 174 78 b 122 214 182 146 163 179 b 92 569 7 311 0 450 b 756 493 244 767 601 790 b 818 232 796 415 815 332 m 200 328 b 258 442 239 360 238 407 b 357 471 281 481 322 493 b 375 368 390 450 399 404 b 342 333 367 356 353 346 b 325 288 331 321 319 306 b 374 267 333 264 354 267 b 531 274 426 265 479 261 b 676 251 579 285 628 292 b 544 551 682 382 639 479 b 207 522 454 621 285 604 b 200 328 149 458 144 400 m 678 194 b 565 144 636 158 601 149 b 335 129 489 135 413 114 b 288 100 311 133 288 132 b 353 -62 286 38 301 -24 b 510 -60 403 -100 458 -89 b 678 194 601 -7 654 74 m 544 792 b 406 853 490 789 446 818 b 313 935 374 879 346 910 b 215 900 263 971 235 958 b 124 833 196 839 165 817 b 86 954 82 850 64 904 b 315 1057 121 1036 231 1085 b 461 964 372 1038 417 1001 b 608 978 532 903 551 906 b 635 1010 617 989 624 1001 b 717 1017 660 1032 688 1039 b 743 936 744 997 753 969 b 544 792 719 861 625 792 "},"ö":{"ha":901,"x_min":0,"x_max":0,"o":"m 818 232 b 588 -181 810 65 744 -85 b 175 44 393 -300 183 -185 b 175 93 175 60 174 78 b 122 214 182 146 163 179 b 92 569 7 311 0 450 b 756 493 244 767 601 790 b 818 232 796 415 815 332 m 200 328 b 258 442 239 360 238 407 b 357 471 281 481 322 493 b 375 368 390 450 399 404 b 342 333 367 356 353 346 b 325 288 331 321 319 306 b 374 267 333 264 354 267 b 531 274 426 265 479 261 b 676 251 579 285 628 292 b 544 551 682 382 639 479 b 207 522 454 621 285 604 b 200 328 149 458 144 400 m 678 194 b 565 144 636 158 601 149 b 335 129 489 135 413 114 b 288 100 311 133 288 132 b 353 -62 286 38 301 -24 b 510 -60 403 -100 458 -89 b 678 194 601 -7 654 74 m 214 865 b 297 958 213 918 246 956 b 388 872 349 961 388 925 b 299 771 388 821 344 771 b 214 865 254 769 217 813 m 458 865 b 542 958 457 918 490 956 b 632 872 593 961 632 925 b 543 771 632 821 589 771 b 458 865 499 769 461 813 "},"÷":{"ha":822,"x_min":0,"x_max":0,"o":"m 478 335 b 618 335 525 335 571 336 b 703 304 650 335 679 325 b 718 199 733 279 739 232 b 618 179 694 163 656 151 b 501 211 581 207 543 211 b 211 194 404 211 307 215 b 135 167 185 189 158 185 b 36 167 103 142 68 142 b 8 240 13 186 0 210 b 82 300 18 276 47 293 b 478 335 213 322 344 339 m 371 67 b 439 0 408 65 439 36 b 364 -72 439 -39 403 -74 b 297 6 325 -71 293 -33 b 371 67 300 43 331 69 m 371 556 b 439 489 408 554 439 525 b 364 417 439 450 403 415 b 297 494 325 418 293 456 b 371 556 300 532 331 558 "},"ø":{"ha":901,"x_min":0,"x_max":0,"o":"m 425 265 b 504 574 450 363 476 467 b 371 594 464 592 419 599 b 207 522 304 588 250 564 b 200 328 147 463 146 397 b 228 363 213 338 221 350 b 242 400 233 375 238 388 b 258 442 246 415 251 429 b 304 479 271 461 286 474 b 357 471 322 485 339 482 b 388 425 374 460 383 444 b 375 368 392 406 388 386 b 356 347 369 361 363 354 b 342 333 350 343 346 338 b 326 313 335 326 331 319 b 325 288 322 306 322 297 b 344 269 329 278 335 271 b 371 267 353 267 361 265 l 374 267 l 407 265 l 425 265 m 346 -57 b 390 125 360 1 375 63 b 335 129 372 125 353 126 b 303 129 322 132 313 132 b 288 100 293 125 289 115 b 346 -57 283 38 303 -15 m 507 136 b 492 72 501 115 497 94 b 460 -62 481 26 469 -18 b 456 -82 458 -69 457 -75 b 510 -60 474 -78 492 -69 b 678 194 600 -8 656 76 b 565 144 638 163 600 146 b 508 136 547 142 528 139 l 507 136 m 599 501 b 542 276 581 432 561 357 b 604 282 563 281 583 283 b 676 251 628 281 653 271 b 599 501 681 353 654 436 m 421 -229 b 414 -261 418 -239 417 -250 b 388 -379 406 -301 397 -340 b 378 -421 385 -393 382 -407 b 353 -567 364 -468 356 -517 b 347 -599 353 -578 351 -589 b 282 -639 335 -628 314 -642 b 232 -582 251 -633 235 -614 b 240 -515 231 -560 233 -537 b 242 -508 240 -512 240 -510 b 313 -199 263 -415 286 -312 l 311 -199 b 175 44 229 -153 183 -72 l 175 54 b 175 93 174 67 174 81 b 122 214 181 142 163 182 b 31 383 65 264 35 321 b 92 569 26 446 46 508 b 299 704 146 636 214 681 b 535 694 376 725 456 722 b 571 832 547 739 558 785 b 578 854 572 839 575 847 b 586 958 590 886 593 921 b 619 1071 582 999 593 1036 b 693 1096 638 1096 663 1104 b 736 1040 719 1086 735 1068 b 729 950 742 1010 739 979 b 635 640 701 874 671 771 b 756 493 682 604 721 556 b 818 232 796 417 817 331 b 760 0 815 147 796 71 b 588 -181 722 -71 665 -132 b 421 -229 529 -214 474 -229 "},"ù":{"ha":824,"x_min":0,"x_max":0,"o":"m 561 147 b 468 4 531 100 500 51 b 325 -132 429 -51 385 -100 b 86 -72 231 -182 144 -160 b 40 43 63 -37 49 3 b 18 381 21 154 0 267 b 25 556 28 438 24 497 b 44 643 25 586 28 617 b 132 653 67 682 108 689 b 179 497 164 607 181 554 b 158 453 179 479 172 461 b 115 336 111 425 115 381 b 149 90 115 253 128 171 b 176 21 156 67 164 42 b 274 4 203 -22 232 -28 b 350 90 304 28 328 58 b 569 617 460 250 532 426 b 593 694 575 643 579 671 b 649 728 606 715 624 729 b 704 685 676 726 694 710 b 708 594 715 656 713 624 b 694 29 689 406 696 218 b 718 -58 694 -1 703 -29 b 689 -154 740 -103 726 -140 b 597 -106 651 -168 611 -150 b 574 67 579 -50 572 8 b 574 146 575 93 574 119 b 561 147 569 147 565 147 m 464 803 b 400 849 435 806 418 826 b 194 1064 336 925 279 1007 b 179 1181 151 1092 149 1147 b 286 1164 208 1211 246 1207 b 482 950 353 1094 417 1021 b 524 878 500 929 518 907 b 464 803 531 840 501 803 "},"ú":{"ha":824,"x_min":0,"x_max":0,"o":"m 561 147 b 468 4 531 100 500 51 b 325 -132 429 -51 385 -100 b 86 -72 231 -182 144 -160 b 40 43 63 -37 49 3 b 18 381 21 154 0 267 b 25 556 28 438 24 497 b 44 643 25 586 28 617 b 132 653 67 682 108 689 b 179 497 164 607 181 554 b 158 453 179 479 172 461 b 115 336 111 425 115 381 b 149 90 115 253 128 171 b 176 21 156 67 164 42 b 274 4 203 -22 232 -28 b 350 90 304 28 328 58 b 569 617 460 250 532 426 b 593 694 575 643 579 671 b 649 728 606 715 624 729 b 704 685 676 726 694 710 b 708 594 715 656 713 624 b 694 29 689 406 696 218 b 718 -58 694 -1 703 -29 b 689 -154 740 -103 726 -140 b 597 -106 651 -168 611 -150 b 574 67 579 -50 572 8 b 574 146 575 93 574 119 b 561 147 569 147 565 147 m 272 768 b 213 843 235 768 206 806 b 254 915 218 872 235 894 b 450 1129 319 986 383 1060 b 556 1146 490 1172 526 1176 b 542 1029 588 1113 585 1057 b 336 814 457 972 400 890 b 272 768 318 792 301 771 "},"û":{"ha":824,"x_min":0,"x_max":0,"o":"m 561 147 b 468 4 531 100 500 51 b 325 -132 429 -51 385 -100 b 86 -72 231 -182 144 -160 b 40 43 63 -37 49 3 b 18 381 21 154 0 267 b 25 556 28 438 24 497 b 44 643 25 586 28 617 b 132 653 67 682 108 689 b 179 497 164 607 181 554 b 158 453 179 479 172 461 b 115 336 111 425 115 381 b 149 90 115 253 128 171 b 176 21 156 67 164 42 b 274 4 203 -22 232 -28 b 350 90 304 28 328 58 b 569 617 460 250 532 426 b 593 694 575 643 579 671 b 649 728 606 715 624 729 b 704 685 676 726 694 710 b 708 594 715 656 713 624 b 694 29 689 406 696 218 b 718 -58 694 -1 703 -29 b 689 -154 740 -103 726 -140 b 597 -106 651 -168 611 -150 b 574 67 579 -50 572 8 b 574 146 575 93 574 119 b 561 147 569 147 565 147 m 669 867 b 563 799 672 815 617 779 b 504 843 539 806 521 824 b 411 960 472 881 443 921 b 272 964 353 1036 340 1036 b 189 851 240 929 217 889 b 72 846 154 803 101 803 b 69 924 54 871 51 900 b 244 1110 121 992 169 1064 b 453 1083 324 1158 388 1150 b 511 1014 474 1061 492 1036 b 626 922 544 975 575 936 b 669 867 653 915 668 894 "},"ü":{"ha":824,"x_min":0,"x_max":0,"o":"m 561 147 b 468 4 531 100 500 51 b 325 -132 429 -51 385 -100 b 86 -72 231 -182 144 -160 b 40 43 63 -37 49 3 b 18 381 21 154 0 267 b 25 556 28 438 24 497 b 44 643 25 586 28 617 b 132 653 67 682 108 689 b 179 497 164 607 181 554 b 158 453 179 479 172 461 b 115 336 111 425 115 381 b 149 90 115 253 128 171 b 176 21 156 67 164 42 b 274 4 203 -22 232 -28 b 350 90 304 28 328 58 b 569 617 460 250 532 426 b 593 694 575 643 579 671 b 649 728 606 715 624 729 b 704 685 676 726 694 710 b 708 594 715 656 713 624 b 694 29 689 406 696 218 b 718 -58 694 -1 703 -29 b 689 -154 740 -103 726 -140 b 597 -106 651 -168 611 -150 b 574 67 579 -50 572 8 b 574 146 575 93 574 119 b 561 147 569 147 565 147 m 160 871 b 243 964 158 924 192 961 b 333 878 294 967 333 931 b 244 776 333 826 290 776 b 160 871 200 775 163 818 m 404 871 b 488 964 403 924 436 961 b 578 878 539 967 578 931 b 489 776 578 826 535 776 b 404 871 444 775 407 818 "},"ý":{"ha":926,"x_min":0,"x_max":0,"o":"m 703 283 b 639 206 658 258 651 229 b 490 -4 594 132 549 60 b 351 -108 451 -49 407 -85 b 121 -37 260 -147 175 -122 b 38 196 74 33 51 113 b 19 418 25 269 17 343 b 10 568 21 468 22 518 b 43 689 0 613 6 657 b 106 688 63 704 88 703 b 143 560 146 654 158 604 b 125 371 122 497 124 435 b 169 128 126 288 140 206 b 213 47 181 99 196 72 b 307 28 240 11 267 7 b 392 107 342 47 368 76 b 603 464 476 218 543 338 b 651 550 617 494 631 525 b 776 532 692 600 750 590 b 799 401 794 490 793 444 b 792 -176 825 208 843 15 b 746 -318 779 -224 765 -272 b 488 -535 696 -433 604 -500 b 365 -501 440 -549 399 -537 b 344 -394 336 -471 331 -433 b 467 -358 367 -333 421 -312 b 558 -357 506 -396 529 -381 b 643 -244 596 -326 624 -289 b 703 96 689 -136 706 -22 b 703 283 701 154 703 211 m 268 686 b 208 761 231 686 201 724 b 250 833 214 790 231 813 b 446 1047 315 904 379 978 b 551 1064 486 1090 522 1094 b 538 947 583 1031 581 975 b 332 732 453 890 396 808 b 268 686 314 710 297 689 "},"þ":{"ha":964,"x_min":0,"x_max":0,"o":"m 114 206 b 240 536 151 315 186 429 b 360 693 271 596 308 650 b 588 710 433 757 506 763 b 615 690 597 704 607 697 b 497 -92 881 472 815 35 b 281 -143 428 -119 356 -139 b 213 -212 218 -147 218 -150 b 194 -403 207 -275 201 -339 b 172 -490 190 -432 183 -462 b 94 -540 160 -524 133 -543 b 28 -487 60 -539 39 -518 b 6 -365 15 -447 7 -407 b 13 908 0 -85 0 194 b 31 1049 14 956 22 1001 b 88 1110 35 1081 53 1107 b 154 1058 124 1114 146 1090 b 136 833 174 982 210 906 b 119 722 107 804 121 760 b 114 206 113 261 114 233 m 651 300 b 561 558 643 390 622 482 b 419 563 511 622 474 622 b 394 531 411 553 401 542 b 243 78 304 393 261 239 b 329 -3 238 24 275 -10 b 517 60 396 4 460 24 b 651 300 604 114 642 196 "},"ÿ":{"ha":926,"x_min":0,"x_max":0,"o":"m 703 283 b 639 206 658 258 651 229 b 490 -4 594 132 549 60 b 351 -108 451 -49 407 -85 b 121 -37 260 -147 175 -122 b 38 196 74 33 51 113 b 19 418 25 269 17 343 b 10 568 21 468 22 518 b 43 689 0 613 6 657 b 106 688 63 704 88 703 b 143 560 146 654 158 604 b 125 371 122 497 124 435 b 169 128 126 288 140 206 b 213 47 181 99 196 72 b 307 28 240 11 267 7 b 392 107 342 47 368 76 b 603 464 476 218 543 338 b 651 550 617 494 631 525 b 776 532 692 600 750 590 b 799 401 794 490 793 444 b 792 -176 825 208 843 15 b 746 -318 779 -224 765 -272 b 488 -535 696 -433 604 -500 b 365 -501 440 -549 399 -537 b 344 -394 336 -471 331 -433 b 467 -358 367 -333 421 -312 b 558 -357 506 -396 529 -381 b 643 -244 596 -326 624 -289 b 703 96 689 -136 706 -22 b 703 283 701 154 703 211 m 226 804 b 310 897 225 857 258 894 b 400 811 361 900 400 864 b 311 710 400 760 357 710 b 226 804 267 708 229 751 m 471 804 b 554 897 469 857 503 894 b 644 811 606 900 644 864 b 556 710 644 760 601 710 b 471 804 511 708 474 751 "},"ı":{"ha":256,"x_min":0,"x_max":0,"o":"m 0 289 b 0 563 0 379 0 471 b 76 669 1 633 29 672 b 143 549 126 667 154 615 b 125 -22 110 358 126 168 b 157 -97 125 -53 143 -74 b 150 -165 172 -121 169 -146 b 74 -178 128 -186 103 -192 b 19 -108 43 -164 28 -139 b 1 14 10 -68 0 -28 b 1 289 1 106 1 197 b 0 289 1 289 0 289 "},"̀":{"ha":465,"x_min":0,"x_max":0,"o":"m 315 736 b 251 782 286 739 269 760 b 46 997 188 858 131 940 b 31 1114 3 1025 0 1081 b 138 1097 60 1144 97 1140 b 333 883 204 1028 268 954 b 375 811 351 863 369 840 b 315 736 382 774 353 736 "},"́":{"ha":465,"x_min":0,"x_max":0,"o":"m 67 736 b 7 811 29 736 0 774 b 49 883 13 840 29 863 b 244 1097 114 954 178 1028 b 350 1114 285 1140 321 1144 b 336 997 382 1081 379 1025 b 131 782 251 940 194 858 b 67 736 113 760 96 739 "},"̂":{"ha":704,"x_min":0,"x_max":0,"o":"m 618 835 b 511 767 621 783 565 747 b 453 811 488 774 469 792 b 360 928 421 849 392 889 b 221 932 301 1004 289 1004 b 138 819 189 897 165 857 b 21 814 103 771 50 771 b 18 892 3 839 0 868 b 193 1078 69 960 118 1032 b 401 1051 272 1126 336 1118 b 460 982 422 1029 440 1004 b 575 890 493 943 524 904 b 618 835 601 883 617 863 "},"̃":{"ha":772,"x_min":0,"x_max":0,"o":"m 481 799 b 342 860 426 796 382 825 b 249 942 310 886 282 917 b 151 907 199 978 171 965 b 60 840 132 846 101 824 b 22 961 18 857 0 911 b 251 1064 57 1043 167 1092 b 397 971 308 1044 353 1008 b 544 985 468 910 488 913 b 571 1017 553 996 560 1008 b 653 1024 596 1039 624 1046 b 679 943 681 1004 689 976 b 481 799 656 868 561 799 "},"̄":{"ha":528,"x_min":0,"x_max":0,"o":"m 214 1008 b 339 1008 256 1008 297 1010 b 414 978 368 1008 393 999 b 426 894 438 954 444 925 b 357 865 411 867 385 856 b 86 876 267 896 176 883 b 6 926 38 872 10 890 b 65 1003 0 963 22 997 b 214 1004 114 1008 165 1004 b 214 1008 214 1006 214 1007 "},"̇":{"ha":258,"x_min":0,"x_max":0,"o":"m 1 936 b 85 1029 0 989 33 1026 b 175 943 136 1032 175 996 b 86 842 175 892 132 842 b 1 936 42 840 4 883 "},"̈":{"ha":503,"x_min":0,"x_max":0,"o":"m 1 936 b 85 1029 0 989 33 1026 b 175 943 136 1032 175 996 b 86 842 175 892 132 842 b 1 936 42 840 4 883 m 246 936 b 329 1029 244 989 278 1026 b 419 943 381 1032 419 996 b 331 842 419 892 376 842 b 246 936 286 840 249 883 "},"̊":{"ha":481,"x_min":0,"x_max":0,"o":"m 188 1126 b 396 944 307 1122 397 1044 b 182 744 394 836 293 740 b 6 944 78 747 0 836 b 188 1126 10 1056 85 1129 m 196 954 b 135 931 176 944 136 979 b 188 879 133 900 156 881 b 251 942 218 878 258 915 b 196 954 242 975 215 953 "},"̌":{"ha":703,"x_min":0,"x_max":0,"o":"m 1 1035 b 108 1104 0 1086 54 1122 b 167 1060 132 1096 151 1079 b 260 943 199 1021 229 982 b 399 939 319 867 332 867 b 482 1051 431 972 456 1013 b 600 1057 517 1100 569 1100 b 601 979 617 1032 619 1003 b 426 793 550 910 501 839 b 219 819 347 743 283 751 b 160 889 197 842 179 865 b 44 981 128 928 97 967 b 1 1035 18 988 4 1007 "},"̧":{"ha":467,"x_min":0,"x_max":0,"o":"m 382 -350 b 344 -440 383 -386 367 -414 b 154 -571 292 -499 225 -539 b 106 -581 139 -578 121 -579 b 33 -525 65 -581 39 -558 b 86 -453 28 -492 49 -460 b 239 -392 142 -443 193 -424 b 246 -318 275 -365 278 -349 b 88 -212 199 -275 147 -239 b 49 -199 75 -207 61 -206 b 13 -115 14 -179 0 -147 b 103 -85 26 -82 65 -64 b 353 -275 197 -133 283 -193 b 382 -350 371 -296 382 -322 "},"–":{"ha":822,"x_min":0,"x_max":0,"o":"m 478 335 b 618 335 525 335 571 336 b 703 304 650 335 679 325 b 718 199 733 279 739 232 b 618 179 694 163 656 151 b 501 211 581 207 543 211 b 211 194 404 211 307 215 b 135 167 185 189 158 185 b 36 167 103 142 68 142 b 8 240 13 186 0 210 b 82 300 18 276 47 293 b 478 335 213 322 344 339 "},"—":{"ha":906,"x_min":0,"x_max":0,"o":"m 561 335 b 701 335 608 335 654 336 b 786 304 733 335 763 325 b 801 199 817 279 822 232 b 701 179 778 163 739 151 b 585 211 664 207 626 211 b 294 194 488 211 390 215 b 135 167 268 189 242 185 b 36 167 29 149 68 142 b 8 240 13 186 0 210 b 82 300 18 276 47 296 b 561 335 296 322 428 339 "},"‘":{"ha":301,"x_min":0,"x_max":0,"o":"m 1 982 b 54 1174 14 1050 21 1115 b 94 1226 65 1193 76 1213 b 186 1231 124 1247 156 1253 b 193 1143 218 1206 217 1172 b 135 968 154 1090 133 1035 b 67 904 136 924 104 900 b 1 982 26 908 0 943 "},"’":{"ha":303,"x_min":0,"x_max":0,"o":"m 217 1165 b 164 974 206 1099 197 1032 b 124 922 153 954 142 935 b 32 918 94 900 63 896 b 25 1006 0 943 3 976 b 83 1181 64 1058 85 1114 b 151 1244 82 1225 114 1249 b 217 1165 192 1240 219 1206 "},"‚":{"ha":303,"x_min":0,"x_max":0,"o":"m 217 -156 b 164 -347 206 -222 197 -289 b 124 -399 153 -367 142 -386 b 32 -403 94 -421 63 -425 b 25 -315 0 -378 3 -344 b 83 -140 64 -262 85 -207 b 151 -76 82 -96 114 -72 b 217 -156 192 -81 219 -115 "},"“":{"ha":508,"x_min":0,"x_max":0,"o":"m 208 982 b 261 1174 221 1050 228 1115 b 301 1226 272 1193 283 1213 b 393 1231 331 1247 363 1253 b 400 1143 425 1206 424 1172 b 342 968 361 1090 340 1035 b 274 904 343 924 311 900 b 208 982 233 908 207 943 m 1 982 b 54 1174 14 1050 21 1115 b 94 1226 65 1193 76 1213 b 186 1231 124 1247 156 1253 b 193 1143 218 1206 217 1172 b 135 968 154 1090 133 1035 b 67 904 136 924 104 900 b 1 982 26 908 0 943 "},"”":{"ha":510,"x_min":0,"x_max":0,"o":"m 217 1165 b 164 974 206 1099 197 1032 b 124 922 153 954 142 935 b 32 918 94 900 63 896 b 25 1006 0 943 3 976 b 83 1181 64 1058 85 1114 b 151 1244 82 1225 114 1249 b 217 1165 192 1240 219 1206 m 424 1165 b 371 974 413 1099 404 1032 b 331 922 360 954 349 935 b 239 918 301 900 269 896 b 232 1006 207 943 210 976 b 290 1181 271 1058 292 1114 b 358 1244 289 1225 321 1249 b 424 1165 399 1240 426 1206 "},"„":{"ha":510,"x_min":0,"x_max":0,"o":"m 217 -156 b 164 -347 206 -222 197 -289 b 124 -399 153 -367 142 -386 b 32 -403 94 -421 63 -425 b 25 -315 0 -378 3 -344 b 83 -140 64 -262 85 -207 b 151 -76 82 -96 114 -72 b 217 -156 192 -81 219 -115 m 424 -156 b 371 -347 413 -222 404 -289 b 331 -399 360 -367 349 -386 b 239 -403 301 -421 269 -425 b 232 -315 207 -378 210 -344 b 290 -140 271 -262 292 -207 b 358 -76 289 -96 321 -72 b 424 -156 399 -81 426 -115 "},"†":{"ha":849,"x_min":0,"x_max":0,"o":"m 356 215 b 365 474 356 301 354 388 b 313 526 374 525 365 531 b 129 479 249 521 188 514 b 18 511 83 451 38 468 b 76 613 0 553 22 596 b 297 649 149 635 222 644 b 369 722 363 653 367 657 b 363 854 372 767 374 811 b 368 936 354 882 357 910 b 431 982 379 964 400 981 b 492 944 458 982 479 968 b 506 839 508 911 514 876 b 488 742 497 807 492 775 b 556 667 478 671 482 667 b 654 665 589 665 622 667 b 711 656 674 664 694 663 b 758 578 746 642 765 617 b 682 533 753 544 724 526 b 532 540 632 542 582 540 b 476 483 494 539 475 521 b 463 43 479 336 456 190 b 486 -53 464 10 468 -24 b 486 -136 506 -81 510 -108 b 418 -156 467 -157 443 -164 b 369 -83 385 -143 375 -114 b 356 215 356 17 353 115 "},"‡":{"ha":876,"x_min":0,"x_max":0,"o":"m 336 67 b 336 192 336 108 336 150 b 288 236 335 221 318 236 b 197 225 257 236 228 235 b 135 206 176 218 156 210 b 43 253 86 196 51 214 b 101 339 33 290 57 329 b 265 363 154 351 208 361 b 338 435 331 364 335 369 b 338 468 338 446 338 457 b 218 564 336 568 317 585 b 125 529 185 557 156 544 b 15 563 76 503 31 519 b 72 657 0 601 22 638 b 243 688 128 678 186 676 b 321 799 325 704 333 717 b 308 856 317 818 310 836 b 361 947 304 904 325 938 b 453 882 401 957 436 932 b 457 817 461 861 463 839 b 447 760 453 799 447 779 b 503 707 444 711 453 701 b 701 694 569 714 635 707 b 769 651 729 689 754 676 b 767 560 789 621 793 589 b 685 554 742 533 711 532 b 575 585 651 581 615 585 b 447 413 447 589 410 539 b 497 378 456 386 474 378 b 589 376 528 378 558 378 b 683 350 622 375 656 368 b 711 263 715 329 725 299 b 629 231 700 232 665 217 b 517 253 592 246 556 253 b 446 186 456 251 447 244 b 449 -29 444 115 447 43 b 454 -62 449 -40 454 -51 b 403 -126 454 -97 438 -121 b 340 -74 365 -131 343 -108 b 339 67 336 -28 339 19 b 336 67 339 67 338 67 "},"•":{"ha":694,"x_min":0,"x_max":0,"o":"m 153 611 b 289 476 229 608 289 549 b 140 333 289 401 215 331 b 7 489 63 336 0 410 b 153 611 13 564 74 614 "},"…":{"ha":1389,"x_min":0,"x_max":0,"o":"m 76 -76 b 146 -143 115 -78 144 -107 b 71 -215 146 -182 108 -217 b 3 -137 32 -214 0 -176 b 76 -76 7 -100 38 -75 m 539 -76 b 608 -143 578 -78 607 -107 b 533 -215 608 -182 571 -217 b 465 -137 494 -214 463 -176 b 539 -76 469 -100 500 -75 m 1001 -76 b 1071 -143 1040 -78 1069 -107 b 996 -215 1071 -182 1033 -217 b 928 -137 957 -214 925 -176 b 1001 -76 932 -100 963 -75 "},"‹":{"ha":811,"x_min":0,"x_max":0,"o":"m 529 368 b 472 360 508 375 490 367 b 207 207 376 322 290 267 b 183 168 193 199 176 189 b 218 149 189 153 206 154 b 365 128 265 131 317 131 b 644 115 457 122 550 99 b 721 68 683 121 715 100 b 671 -7 728 28 706 6 b 622 -17 656 -12 638 -18 b 171 40 471 -1 318 0 b 124 54 154 44 139 47 b 81 261 19 94 0 183 b 308 413 147 325 228 369 b 483 486 365 440 425 464 b 549 501 504 494 526 500 b 628 433 593 503 626 474 b 544 364 629 390 596 363 b 529 368 539 364 533 367 "},"›":{"ha":811,"x_min":0,"x_max":0,"o":"m 199 117 b 256 124 219 110 238 117 b 521 276 351 163 438 217 b 544 315 533 285 551 294 b 510 335 539 331 522 329 b 363 356 463 353 411 353 b 83 369 269 363 178 385 b 7 417 43 363 13 385 b 57 490 0 456 22 479 b 106 500 72 496 90 503 b 557 444 256 485 408 483 b 604 431 572 439 589 436 b 647 222 708 389 728 300 b 419 72 581 158 500 114 b 243 -3 363 43 303 21 b 179 -17 224 -11 201 -17 b 100 50 135 -19 101 11 b 183 119 99 93 132 122 b 199 117 189 119 193 118 "},"⁄":{"ha":496,"x_min":0,"x_max":0,"o":"m 257 946 b 292 1058 253 985 267 1024 b 365 1083 310 1083 335 1092 b 408 1028 393 1075 404 1054 b 400 938 413 997 411 967 b 229 297 322 729 281 511 b 158 -19 206 192 182 86 b 124 -206 144 -81 124 -142 b 117 -239 124 -217 121 -228 b 53 -279 106 -267 83 -285 b 3 -222 21 -275 4 -254 b 11 -149 0 -197 7 -174 b 243 819 83 175 158 499 b 257 946 253 860 271 899 "},"∕":{"ha":496,"x_min":0,"x_max":0,"o":"m 257 946 b 243 819 271 899 253 860 b 11 -149 158 499 83 175 b 3 -222 7 -174 0 -197 b 53 -279 4 -254 21 -275 b 117 -239 83 -285 106 -267 b 124 -206 121 -228 124 -217 b 158 -19 124 -142 144 -81 b 229 297 182 86 206 192 b 400 938 281 511 322 729 b 408 1028 411 967 413 997 b 365 1083 404 1054 393 1075 b 292 1058 335 1092 310 1083 b 257 946 267 1024 253 985 "},"₣":{"ha":614,"x_min":0,"x_max":0,"o":"m 206 -61 b 206 226 206 43 208 135 b 138 261 204 281 188 286 b 108 246 128 257 118 249 b 17 282 71 233 32 249 b 38 372 0 317 10 347 b 138 407 67 396 101 404 b 192 468 176 410 192 432 b 192 600 192 511 192 556 b 196 675 192 625 192 651 b 322 719 211 750 265 769 b 449 535 379 668 415 601 b 383 449 472 490 435 446 b 318 474 360 450 344 469 b 361 424 310 436 329 424 b 468 407 397 422 433 422 b 518 325 510 389 531 358 b 438 283 504 288 474 278 b 429 285 435 283 432 283 b 314 185 313 300 313 300 b 315 -107 315 88 315 -10 b 311 -172 315 -128 315 -151 b 179 -237 296 -240 240 -268 b 57 -117 125 -211 83 -169 b 79 -6 35 -72 44 -29 b 183 -37 114 17 144 7 b 206 -61 188 -42 192 -46 "},"₤":{"ha":940,"x_min":0,"x_max":0,"o":"m 168 338 b 128 335 150 353 140 339 b 15 369 72 315 31 328 b 76 471 0 410 22 446 b 108 483 88 475 97 479 b 160 568 163 504 169 510 b 150 800 146 644 150 722 b 156 874 150 825 151 850 b 244 976 168 944 196 976 b 383 864 301 978 374 918 b 307 779 390 817 363 779 b 256 725 264 778 254 763 b 257 583 258 678 256 631 b 324 521 260 532 272 521 b 397 531 349 522 372 526 b 511 517 436 539 475 533 b 550 418 550 497 565 457 b 463 378 536 383 501 361 b 307 393 410 400 360 399 b 281 360 289 390 275 381 b 313 340 283 343 299 339 b 411 353 346 344 378 350 b 494 350 439 354 467 354 b 553 279 529 342 553 319 b 482 226 551 246 526 226 b 335 215 432 225 382 232 b 300 68 293 201 269 96 b 339 63 313 57 325 60 b 658 113 446 79 553 94 b 782 118 700 119 742 124 b 851 40 829 111 857 78 b 765 -15 846 1 813 -18 b 203 -118 569 -3 379 -29 b 165 -136 190 -125 178 -132 b 64 -103 119 -150 79 -136 b 97 -12 44 -61 64 -32 b 161 81 133 10 154 40 b 111 163 171 132 165 143 b 57 226 79 174 57 192 b 108 296 57 261 79 282 b 168 338 129 307 164 303 "},"€":{"ha":958,"x_min":0,"x_max":0,"o":"m 432 143 b 322 131 400 140 361 138 b 290 71 289 125 278 106 b 469 -53 319 -3 389 -51 b 707 17 557 -54 632 -18 b 774 49 729 28 751 42 b 858 15 810 60 840 50 b 842 -68 875 -17 865 -44 b 814 -87 833 -75 824 -82 b 497 -178 714 -135 610 -172 b 211 -17 368 -186 272 -129 b 106 67 186 28 169 69 b 49 128 75 65 51 93 b 88 194 46 160 61 181 b 119 207 99 199 110 201 b 138 232 129 211 138 219 b 110 257 136 249 124 254 b 53 268 90 260 71 263 b 1 328 24 276 4 296 b 50 397 0 361 18 385 b 65 404 54 400 60 403 b 172 528 142 410 160 463 b 315 871 196 651 242 767 b 746 869 432 1035 626 1035 b 806 717 778 824 803 774 b 747 631 808 668 785 636 b 667 690 713 626 682 649 b 651 754 660 711 657 733 b 561 858 636 801 606 836 b 432 838 514 881 467 875 b 275 494 344 739 301 619 b 319 456 268 461 286 449 b 501 464 379 469 440 467 b 583 406 540 463 571 444 b 569 328 592 378 590 350 b 485 315 544 301 514 299 b 315 336 431 350 372 336 b 283 328 304 336 293 332 b 256 274 260 318 250 299 b 303 250 263 250 283 247 b 408 272 339 256 374 264 b 507 278 440 281 474 285 b 581 201 551 271 582 236 b 496 139 578 163 547 140 b 432 143 476 139 457 142 "},"№":{"ha":1917,"x_min":0,"x_max":0,"o":"m 146 207 b 261 614 174 347 207 483 b 485 953 315 740 385 857 b 622 1043 525 992 569 1024 b 868 947 725 1079 818 1044 b 917 756 899 888 917 824 b 904 224 918 578 922 401 b 901 24 899 158 903 90 b 926 -44 901 -1 908 -25 b 925 -150 957 -79 950 -115 b 846 -186 906 -176 879 -193 b 779 -100 801 -176 785 -140 b 782 199 769 -1 775 99 b 793 771 794 389 821 579 b 771 858 789 801 783 831 b 646 900 746 922 704 936 b 576 840 621 883 597 863 b 382 524 488 750 425 643 b 285 53 326 372 303 213 b 256 -110 278 -1 271 -57 b 163 -200 238 -175 208 -201 b 78 -112 121 -200 94 -175 b 31 174 50 -19 40 78 b 26 788 8 378 0 583 b 44 868 29 815 32 843 b 160 881 71 918 124 924 b 163 758 190 843 194 797 b 119 621 128 717 119 671 b 146 207 119 482 114 343 m 1833 544 b 1603 132 1825 378 1760 228 b 1190 357 1408 13 1199 128 b 1190 406 1190 372 1189 390 b 1138 526 1197 458 1178 492 b 1107 882 1022 624 1015 763 b 1771 806 1260 1079 1617 1103 b 1833 544 1811 728 1831 644 m 1215 640 b 1274 754 1254 672 1253 719 b 1372 783 1296 793 1338 806 b 1390 681 1406 763 1414 717 b 1357 646 1382 668 1368 658 b 1340 600 1346 633 1335 618 b 1389 579 1349 576 1369 579 b 1546 586 1442 578 1494 574 b 1692 564 1594 597 1643 604 b 1560 864 1697 694 1654 792 b 1222 835 1469 933 1300 917 b 1215 640 1164 771 1160 713 m 1693 507 b 1581 457 1651 471 1617 461 b 1350 442 1504 447 1428 426 b 1303 413 1326 446 1303 444 b 1368 250 1301 350 1317 289 b 1525 253 1418 213 1474 224 b 1693 507 1617 306 1669 386 m 1549 15 b 1689 15 1594 15 1642 17 b 1774 -15 1721 15 1750 6 b 1788 -121 1804 -40 1810 -87 b 1689 -140 1765 -157 1726 -168 b 1571 -108 1651 -112 1613 -108 b 1282 -125 1475 -108 1378 -104 b 1206 -153 1254 -131 1228 -135 b 1107 -153 1172 -178 1139 -178 b 1079 -79 1083 -133 1071 -110 b 1153 -19 1089 -43 1118 -26 b 1549 15 1283 3 1415 19 "},"™":{"ha":1189,"x_min":0,"x_max":0,"o":"m 592 1147 b 690 1238 618 1197 636 1243 b 763 1118 758 1229 751 1168 b 810 1175 797 1126 800 1156 b 931 1319 840 1232 878 1283 b 1097 1250 1006 1372 1082 1340 b 1097 1125 1106 1208 1104 1167 b 1086 878 1085 1043 1081 961 b 1038 794 1089 826 1072 800 b 964 868 1001 790 969 819 b 968 1058 957 932 960 996 b 969 1140 972 1083 982 1107 b 906 1014 935 1101 924 1057 b 861 899 890 976 879 935 b 693 892 818 818 744 815 b 675 919 686 901 682 910 b 629 858 650 904 647 876 b 489 885 581 808 515 821 b 478 975 478 914 476 944 b 461 1157 482 1036 468 1096 b 433 1224 458 1182 451 1206 b 354 1207 406 1250 367 1242 b 340 1142 347 1186 339 1163 b 357 871 344 1051 317 960 b 328 801 371 842 356 817 b 246 818 297 785 268 793 b 215 911 222 844 217 878 b 214 1086 214 969 214 1028 b 214 1144 214 1106 215 1125 b 197 1179 214 1158 213 1174 b 161 1164 182 1183 171 1175 b 138 1131 153 1153 147 1140 b 33 1125 108 1100 63 1099 b 28 1229 3 1151 0 1194 b 65 1261 38 1242 51 1254 b 374 1350 163 1311 261 1350 b 571 1210 483 1350 535 1314 b 592 1147 576 1194 581 1179 "},"−":{"ha":822,"x_min":0,"x_max":0,"o":"m 478 335 b 618 335 525 335 571 336 b 703 304 650 335 679 325 b 718 199 733 279 739 232 b 618 179 694 163 656 151 b 501 211 581 207 543 211 b 211 194 404 211 307 215 b 135 167 185 189 158 185 b 36 167 103 142 68 142 b 8 240 13 186 0 210 b 82 300 18 276 47 293 b 478 335 213 322 344 339 "},"≈":{"ha":772,"x_min":0,"x_max":0,"o":"m 481 -17 b 342 44 426 -19 382 10 b 249 126 310 71 282 101 b 151 92 199 163 171 150 b 60 25 132 31 101 8 b 22 146 18 42 0 96 b 251 249 57 228 167 276 b 397 156 308 229 353 193 b 544 169 468 94 488 97 b 571 201 553 181 560 193 b 653 208 596 224 624 231 b 679 128 681 189 689 161 b 481 -17 656 53 561 -17 m 481 224 b 342 285 426 221 382 250 b 249 367 310 311 282 342 b 151 332 199 403 171 390 b 60 265 132 271 101 249 b 22 386 18 282 0 336 b 251 489 57 468 167 517 b 397 396 308 469 353 433 b 544 410 468 335 488 338 b 571 442 553 421 560 433 b 653 449 596 464 624 471 b 679 368 681 429 689 401 b 481 224 656 293 561 224 "},"≤":{"ha":811,"x_min":0,"x_max":0,"o":"m 497 -132 b 196 -151 438 -125 293 -126 b 143 -175 178 -157 161 -171 b 46 -121 99 -186 54 -161 b 108 -39 38 -82 61 -47 b 256 -21 157 -29 207 -24 b 494 -6 297 -18 446 0 b 610 -19 533 -11 571 -15 b 672 -40 632 -21 654 -26 b 700 -143 706 -64 718 -108 b 607 -168 682 -175 646 -189 b 497 -132 571 -150 536 -136 m 528 432 b 472 424 508 439 490 431 b 207 271 376 386 290 331 b 183 232 193 263 176 253 b 218 213 188 217 206 218 b 364 192 265 194 315 194 b 644 179 457 186 550 163 b 721 132 683 185 715 164 b 671 57 728 92 704 69 b 622 47 656 51 638 46 b 171 104 471 63 318 64 b 122 118 154 108 139 111 b 81 325 19 158 0 247 b 308 476 147 389 228 433 b 483 550 365 504 425 528 b 549 565 504 558 526 564 b 628 497 593 567 626 538 b 544 428 629 454 596 426 b 528 432 539 428 533 431 "},"≥":{"ha":811,"x_min":0,"x_max":0,"o":"m 472 -132 b 171 -151 413 -125 268 -126 b 118 -175 153 -157 136 -171 b 21 -121 74 -186 29 -161 b 83 -39 13 -82 36 -47 b 231 -21 132 -29 182 -24 b 469 -6 272 -18 421 0 b 585 -19 508 -11 546 -15 b 647 -40 607 -21 629 -26 b 675 -143 681 -64 693 -108 b 582 -168 657 -175 621 -189 b 472 -132 546 -150 511 -136 m 199 181 b 256 188 219 174 238 181 b 521 340 351 226 438 281 b 544 379 533 349 551 358 b 510 399 539 394 522 393 b 363 419 463 417 411 417 b 83 433 269 426 178 449 b 7 481 43 426 13 449 b 57 554 0 519 22 543 b 106 564 72 560 89 567 b 557 508 256 549 408 547 b 604 494 572 503 589 500 b 646 286 708 453 728 364 b 418 136 581 222 500 178 b 243 61 363 107 303 85 b 179 47 224 53 201 47 b 100 114 135 44 101 75 b 183 183 99 157 132 186 b 199 181 188 183 193 182 "},"ﬁ":{"ha":892,"x_min":0,"x_max":0,"o":"m 290 801 b 281 642 278 744 279 693 b 331 599 282 611 303 599 b 446 585 369 600 408 593 b 507 558 468 579 489 572 b 532 457 543 531 553 492 b 431 438 510 422 472 415 b 381 467 413 446 397 460 b 265 386 301 493 267 469 b 264 -121 265 217 265 49 b 257 -203 264 -149 263 -176 b 199 -254 250 -232 229 -251 b 132 -214 168 -257 144 -240 b 108 -110 115 -181 108 -146 b 28 304 106 33 75 171 b 11 435 14 346 0 389 b 96 540 22 483 51 521 b 156 646 146 561 158 596 b 174 868 153 721 157 794 b 193 940 179 893 185 917 b 285 1026 208 985 235 1021 b 396 967 333 1033 368 1004 b 456 754 440 903 453 829 b 378 663 458 703 419 663 b 306 749 339 663 314 694 b 290 801 303 764 311 781 m 636 289 b 636 563 636 379 636 471 b 713 669 638 633 665 672 b 779 549 763 667 790 615 b 761 -22 746 358 763 168 b 793 -97 761 -53 779 -74 b 786 -165 808 -121 806 -146 b 710 -178 764 -186 739 -192 b 656 -108 679 -164 664 -139 b 638 14 646 -68 636 -28 b 638 289 638 106 638 197 b 636 289 638 289 636 289 m 789 811 b 710 757 783 775 750 751 b 651 832 669 761 644 794 b 733 881 658 868 693 889 b 789 811 769 875 793 844 "},"ﬂ":{"ha":1139,"x_min":0,"x_max":0,"o":"m 290 801 b 281 642 278 744 279 693 b 331 599 282 611 303 599 b 446 585 369 600 408 593 b 507 558 468 579 489 572 b 532 457 543 531 553 492 b 431 438 510 422 472 415 b 381 467 413 446 397 460 b 265 386 301 493 267 469 b 264 -121 265 217 265 49 b 257 -203 264 -149 263 -176 b 199 -254 250 -232 229 -251 b 132 -214 168 -257 144 -240 b 108 -110 115 -181 108 -146 b 28 304 106 33 75 171 b 11 435 14 346 0 389 b 96 540 22 483 51 521 b 156 646 146 561 158 596 b 174 868 153 721 157 794 b 193 940 179 893 185 917 b 285 1026 208 985 235 1021 b 396 967 333 1033 368 1004 b 456 754 440 903 453 829 b 378 663 458 703 419 663 b 306 749 339 663 314 694 b 290 801 303 764 311 781 m 636 317 b 692 853 642 469 661 661 b 706 951 697 886 700 919 b 793 1029 717 1013 750 1040 b 849 907 838 1019 871 954 b 757 439 775 760 778 597 b 758 83 743 321 736 203 b 811 -72 769 29 779 -26 b 967 -168 849 -126 893 -168 b 1051 -246 1026 -169 1057 -203 b 938 -317 1044 -293 989 -331 b 681 -78 813 -281 722 -204 b 636 317 643 36 636 156 "},"Œ":{"ha":1790,"x_min":0,"x_max":0,"o":"m 514 414 b 672 419 568 410 621 411 b 786 429 710 425 749 428 b 833 479 821 426 838 443 b 754 713 825 564 799 642 b 432 849 675 828 567 874 b 390 831 410 844 396 839 b 390 782 383 821 383 806 b 375 678 400 743 396 708 b 340 607 357 656 346 632 b 326 528 333 581 329 554 b 319 482 325 513 322 497 b 374 415 311 439 329 417 b 471 414 406 413 438 413 l 514 414 m 260 747 b 176 668 222 724 194 697 b 138 576 158 639 144 608 b 154 497 131 547 136 521 b 171 479 158 490 164 483 b 193 472 176 474 183 471 b 210 485 200 474 206 478 b 215 504 213 490 214 497 b 247 678 225 558 236 615 b 260 747 251 700 256 724 m 560 306 l 504 306 b 361 306 456 304 408 304 b 329 301 349 307 339 306 b 314 275 319 297 315 289 b 326 103 310 215 314 157 b 403 -53 339 47 364 -4 b 575 -90 451 -106 508 -118 b 669 -25 611 -75 643 -54 b 810 235 739 50 786 136 b 810 288 817 260 817 278 b 758 301 803 297 785 301 b 619 303 713 303 665 304 l 560 303 m 913 88 b 810 -82 886 31 853 -26 b 671 -199 772 -131 725 -169 b 450 -226 594 -237 521 -247 b 275 -87 378 -207 319 -161 b 196 231 219 13 193 118 b 114 376 200 296 172 344 b 18 604 31 428 -1 504 b 172 857 40 700 92 785 b 450 990 253 929 346 974 b 717 942 546 1003 635 988 b 822 860 756 919 790 892 b 886 935 826 897 849 922 b 1013 972 926 951 969 964 b 1381 1010 1128 996 1250 1008 b 1567 993 1438 1013 1499 1007 b 1574 992 1569 992 1572 992 b 1679 947 1614 988 1649 974 b 1707 888 1697 929 1706 908 b 1683 828 1707 865 1699 846 b 1576 835 1650 793 1614 796 b 1506 872 1556 856 1532 868 b 1315 885 1442 885 1378 889 b 1126 861 1253 881 1189 872 b 1042 771 1078 851 1050 821 b 1025 585 1032 708 1026 647 b 1021 522 1024 564 1022 543 b 1065 481 1019 488 1033 474 b 1182 492 1103 488 1142 492 b 1279 500 1214 493 1247 496 b 1481 511 1346 510 1413 514 l 1544 511 b 1622 486 1574 513 1600 504 b 1644 404 1650 465 1657 438 b 1576 369 1629 376 1607 365 b 1539 376 1564 371 1551 374 b 1478 386 1519 382 1499 385 b 1065 351 1339 385 1201 372 b 1010 292 1029 347 1011 328 b 1058 0 1006 190 1021 93 b 1238 -94 1090 -81 1150 -112 b 1410 -36 1299 -85 1356 -65 b 1465 -18 1426 -26 1444 -19 b 1526 -47 1492 -18 1513 -28 b 1532 -115 1539 -67 1542 -89 b 1493 -157 1525 -135 1511 -149 b 1322 -218 1438 -183 1381 -204 b 1140 -224 1264 -233 1203 -235 b 964 -86 1060 -208 1001 -162 b 913 88 940 -29 922 28 m 922 710 b 925 744 924 721 924 733 b 893 782 926 768 917 781 b 882 783 889 782 885 782 b 911 732 892 767 901 750 "},"œ":{"ha":1507,"x_min":0,"x_max":0,"o":"m 200 328 b 228 363 213 338 221 350 b 242 400 233 375 238 388 b 258 442 246 415 251 429 b 304 479 271 461 286 474 b 357 471 322 485 339 482 b 388 425 374 460 383 444 b 375 368 392 406 388 386 b 356 347 369 361 363 354 b 342 333 350 343 346 338 b 326 313 335 326 331 319 b 325 288 322 306 322 297 b 344 269 329 278 335 271 b 371 267 353 267 361 265 l 374 267 l 407 265 b 531 274 449 264 490 267 b 604 282 556 281 581 283 b 676 251 628 281 653 271 b 544 551 682 381 638 481 b 371 594 496 586 438 600 b 207 522 304 588 250 564 b 200 328 147 463 146 397 m 896 293 b 1226 488 1026 311 1136 376 b 1251 532 1236 501 1244 517 b 1249 579 1257 547 1256 563 b 1211 614 1239 597 1226 608 b 1160 624 1196 618 1178 622 l 1157 624 b 965 542 1089 628 1025 600 b 850 326 906 483 867 411 b 896 293 844 301 860 290 m 678 194 b 565 144 638 163 600 146 b 508 136 547 142 528 139 b 335 129 451 124 393 122 b 303 129 322 132 313 132 b 288 100 293 125 289 115 b 353 -62 283 35 304 -19 b 432 -86 379 -81 406 -89 b 510 -60 458 -83 483 -75 b 678 194 600 -8 656 76 m 765 13 b 760 0 764 8 761 4 b 588 -181 722 -71 665 -132 b 311 -199 486 -237 393 -244 b 175 44 229 -153 183 -72 l 175 54 b 175 93 174 67 174 81 b 122 214 181 142 163 182 b 31 383 65 264 35 321 b 92 569 26 446 46 508 b 299 704 146 636 214 681 b 550 689 382 726 465 721 b 756 493 633 657 701 592 b 769 464 761 483 765 474 b 803 535 779 488 790 511 b 1128 754 876 660 985 733 b 1267 739 1176 760 1222 754 b 1390 633 1326 717 1367 682 b 1392 472 1413 585 1413 532 b 1314 354 1374 428 1349 389 b 917 144 1204 243 1071 174 b 860 124 883 140 864 133 b 876 67 856 114 861 96 b 1133 -100 928 -39 1014 -94 b 1172 -100 1146 -101 1160 -101 l 1192 -100 l 1192 -99 l 1219 -99 b 1282 -100 1240 -99 1261 -99 b 1354 -154 1321 -99 1344 -117 b 1344 -203 1358 -172 1354 -187 b 1297 -235 1335 -218 1318 -228 b 1157 -240 1251 -246 1204 -247 b 881 -136 1040 -229 949 -194 b 765 13 835 -99 797 -49 "},"Š":{"ha":943,"x_min":0,"x_max":0,"o":"m 858 853 b 792 771 857 807 831 775 b 717 839 753 765 724 788 b 653 903 711 882 688 892 b 175 718 497 951 251 836 b 193 533 128 647 132 592 b 375 417 247 483 311 450 b 654 269 468 368 565 325 b 774 168 700 242 742 210 b 764 -82 836 88 833 -8 b 454 -231 681 -171 568 -206 b 438 -231 449 -232 443 -231 b 360 -169 394 -228 365 -204 b 424 -96 356 -135 381 -100 b 621 -33 494 -87 560 -67 b 636 129 703 13 708 65 b 497 218 594 167 546 192 b 225 361 406 265 313 307 b 100 457 181 390 136 419 b 75 765 10 551 0 660 b 450 1010 168 896 297 971 b 751 997 551 1035 653 1036 b 858 853 819 969 860 915 m 143 1414 b 250 1483 142 1465 196 1501 b 308 1439 274 1475 293 1458 b 401 1322 340 1400 371 1361 b 540 1318 461 1246 474 1246 b 624 1431 572 1351 597 1392 b 742 1436 658 1479 711 1479 b 743 1358 758 1411 761 1382 b 568 1172 692 1289 643 1218 b 361 1199 489 1122 425 1131 b 301 1268 339 1221 321 1244 b 186 1360 269 1307 239 1346 b 143 1414 160 1367 146 1386 "},"š":{"ha":779,"x_min":0,"x_max":0,"o":"m 379 749 b 147 557 278 703 199 646 b 168 429 119 506 126 471 b 285 350 201 396 243 372 b 497 238 356 313 426 275 b 619 153 542 214 583 188 b 628 -65 693 86 696 7 b 550 -126 606 -89 579 -110 b 315 -229 476 -169 399 -206 b 242 -243 292 -236 268 -243 b 147 -178 190 -242 157 -218 b 208 -60 139 -137 168 -78 b 278 -69 233 -49 260 -50 b 375 -79 308 -106 342 -93 b 521 -1 426 -60 478 -37 b 521 72 556 28 556 44 b 431 131 493 94 463 113 b 204 253 356 172 279 211 b 63 367 151 282 100 317 b 49 607 7 438 0 531 b 363 856 125 725 233 804 b 506 822 424 879 475 864 b 508 640 535 782 538 676 b 443 613 492 619 471 607 b 390 660 417 618 397 635 b 379 749 385 683 385 708 m -72 1211 b 35 1281 -74 1263 -19 1299 b 93 1236 58 1272 78 1256 b 186 1119 125 1197 156 1158 b 325 1115 246 1043 258 1043 b 408 1228 357 1149 382 1189 b 526 1233 443 1276 496 1276 b 528 1156 543 1208 546 1179 b 353 969 476 1086 428 1015 b 146 996 274 919 210 928 b 86 1065 124 1018 106 1042 b -29 1157 54 1104 24 1143 b -72 1211 -56 1164 -69 1183 "},"Ÿ":{"ha":938,"x_min":0,"x_max":0,"o":"m 403 161 b 415 306 407 207 413 256 b 363 386 417 344 410 376 b 140 560 260 406 194 478 b 26 733 101 617 72 681 b 3 844 0 764 0 806 b 50 906 6 875 19 899 b 125 868 85 914 110 897 b 156 792 138 843 147 817 b 272 590 182 717 222 650 b 524 604 361 482 450 486 b 697 1018 604 732 654 874 b 700 1033 699 1022 699 1028 b 782 1107 714 1089 742 1114 b 835 1003 825 1099 854 1054 b 571 454 765 813 721 608 b 532 306 531 414 532 356 b 544 -92 531 174 540 40 b 567 -154 546 -115 558 -133 b 544 -240 582 -196 574 -225 b 450 -211 513 -256 472 -244 b 422 -125 432 -185 425 -156 b 403 161 415 -31 410 63 m 161 1139 b 244 1232 160 1192 193 1229 b 335 1146 296 1235 335 1199 b 246 1044 335 1094 292 1044 b 161 1139 201 1043 164 1086 m 406 1139 b 489 1232 404 1192 438 1229 b 579 1146 540 1235 579 1199 b 490 1044 579 1094 536 1044 b 406 1139 446 1043 408 1086 "},"ž":{"ha":917,"x_min":0,"x_max":0,"o":"m 294 -47 b 596 -28 404 -29 500 -37 b 738 -35 644 -24 690 -32 b 776 -47 750 -36 764 -42 b 814 -153 819 -71 833 -112 b 710 -185 794 -194 753 -212 b 575 -157 667 -157 621 -156 b 342 -172 497 -160 419 -157 b 226 -167 304 -179 265 -178 b 156 0 142 -140 114 -78 b 264 136 183 53 224 96 b 543 410 357 228 450 319 b 638 526 579 446 613 482 b 590 639 669 586 656 617 b 353 635 510 667 432 644 b 249 608 317 631 283 617 b 160 539 208 597 181 578 b 46 508 133 485 88 475 b 33 632 6 539 0 592 b 94 676 50 653 71 667 b 596 749 256 740 421 781 b 668 729 621 744 644 738 b 763 518 758 690 794 613 b 651 346 740 451 699 396 b 374 58 560 249 465 154 b 294 -47 347 31 318 6 m 65 1115 b 172 1185 64 1167 118 1203 b 231 1140 196 1176 215 1160 b 324 1024 263 1101 293 1063 b 463 1019 383 947 396 947 b 546 1132 494 1053 519 1093 b 664 1138 581 1181 633 1181 b 665 1060 681 1113 683 1083 b 490 874 614 990 565 919 b 283 900 411 824 347 832 b 224 969 261 922 243 946 b 108 1061 192 1008 161 1047 b 65 1115 82 1068 68 1088 "},"‰":{"ha":1160,"x_min":0,"x_max":0,"o":"m 460 49 b 468 122 461 67 461 94 b 688 228 493 239 578 278 b 778 253 744 201 744 201 b 921 296 815 307 860 321 b 1068 92 1013 258 1060 188 b 954 -150 1076 -8 1042 -94 b 785 -142 897 -187 839 -185 b 713 -139 760 -122 739 -112 b 463 -18 622 -229 485 -164 b 460 49 460 0 461 19 m 926 69 b 899 126 925 90 931 121 b 847 85 871 131 856 108 b 842 4 838 58 835 31 b 865 -26 844 -10 851 -22 b 899 -10 881 -31 890 -19 b 926 69 917 13 926 38 m 646 44 b 619 88 643 64 646 86 b 585 50 596 89 586 71 b 599 -19 583 26 581 0 b 621 -19 603 -24 615 -24 b 646 44 643 -4 644 21 m 757 919 b 722 844 753 890 736 868 b 388 299 610 663 497 482 b 219 13 329 204 275 108 b 167 -125 196 -31 169 -72 b 83 -183 164 -169 122 -193 b 44 -96 47 -174 32 -142 b 93 10 54 -58 75 -25 b 543 776 233 271 393 521 b 601 913 568 819 594 861 b 653 985 606 943 625 968 b 731 985 678 1000 706 1001 b 757 919 754 969 760 946 m 356 765 b 304 593 357 701 342 644 b 60 608 232 497 115 503 b 65 953 0 722 14 839 b 185 1006 85 997 135 1014 b 353 832 274 989 339 922 b 356 765 356 810 354 788 m 201 842 b 157 710 147 803 147 757 b 179 689 160 699 167 690 b 203 710 193 689 199 700 b 201 842 217 749 218 789 "}}}
